<svg version="1.1" xmlns="http://www.w3.org/2000/svg" xmlns:xlink="http://www.w3.org/1999/xlink" width="160.33334" height="272.84416" viewBox="0,0,160.33334,272.84416"><defs><linearGradient x1="320.00002" y1="175.50001" x2="320.00002" y2="307.50001" gradientUnits="userSpaceOnUse" id="color-1"><stop offset="0" stop-color="#000000"/><stop offset="1" stop-color="#212121"/></linearGradient><linearGradient x1="319.05208" y1="191.33887" x2="319.05208" y2="287.08887" gradientUnits="userSpaceOnUse" id="color-2"><stop offset="0" stop-color="#000000"/><stop offset="1" stop-color="#363636"/></linearGradient><linearGradient x1="308.05208" y1="194.70183" x2="308.05208" y2="311.28515" gradientUnits="userSpaceOnUse" id="color-3"><stop offset="0" stop-color="#000000"/><stop offset="1" stop-color="#121212"/></linearGradient><linearGradient x1="330.55208" y1="194.70183" x2="330.55208" y2="311.28515" gradientUnits="userSpaceOnUse" id="color-4"><stop offset="0" stop-color="#000000"/><stop offset="1" stop-color="#121212"/></linearGradient><linearGradient x1="320.41031" y1="76.88117" x2="320.41031" y2="197.47783" gradientUnits="userSpaceOnUse" id="color-5"><stop offset="0" stop-color="#1a1a1a"/><stop offset="1" stop-color="#7f7f7f"/></linearGradient></defs><g transform="translate(-238.26041,-40.76835)"><g data-paper-data="{&quot;isPaintingLayer&quot;:true}" fill-rule="nonzero" stroke-linejoin="miter" stroke-miterlimit="10" stroke-dasharray="" stroke-dashoffset="0" style="mix-blend-mode: normal"><path d="M259.28371,313.61251v-267.22501h123.18203v267.22501z" fill-opacity="0.01" fill="#000000" stroke="none" stroke-width="0" stroke-linecap="butt"/><path d="M385.92709,110.45183c0,24.48463 -30.37002,19 -67.83333,19c-37.46332,0 -67.83334,5.48462 -67.83334,-19c0,-24.48463 2.37806,-70.69267 67.83334,-69.66667c63.79665,1 67.83333,45.18204 67.83333,69.66667z" fill="#3b383b" stroke="none" stroke-width="0" stroke-linecap="butt"/><path d="M398.59375,116.45183c0,10.40136 -35.89184,18.83333 -80.16667,18.83333c-44.27483,0 -80.16667,-8.43197 -80.16667,-18.83333c0,-10.40136 35.89184,-18.83334 80.16667,-18.83334c44.27483,0 80.16667,8.43197 80.16667,18.83334z" fill="#222023" stroke="none" stroke-width="0" stroke-linecap="butt"/><path d="M251.83996,139.84619c0,-1.65654 -5.80143,-1.9233 -5.80143,-1.9233c0,0 6.69584,-8.87746 7.35214,-11.71771c0.84388,-3.65211 1.85909,-7.28133 3.07552,-10.83592c0.24489,-0.71562 128.10081,-0.06276 128.43224,1.0351c2.27925,7.54993 3.41557,15.50087 3.41557,23.44184c0,0.66795 3.07779,7.31159 4.43041,10.36634c2.27861,5.14598 3.33715,7.45866 3.33715,7.45866c0,0 -2.64733,-1.66693 -4.82385,-3.56682c-2.14071,-1.86864 -3.80963,-3.97893 -3.99144,-3.01508c-0.43459,2.30399 -0.59561,10.92242 -4.12876,19.9176c-3.49395,8.89536 -10.36285,18.18124 -10.36285,18.18124c0,0 -2.29192,-5.28642 -3.77673,-3.14158c-6.07718,8.77862 -11.2964,15.30957 -11.2964,15.30957c0,0 -2.40974,-4.97718 -4.47106,-3.86765c-9.32569,5.01966 -20.06286,7.91078 -31.65348,7.91078c-12.60656,0 -24.772,-3.56633 -35.27102,-9.52744c-2.72845,-1.54916 -0.82623,4.38789 -0.82623,4.38789c0,0 -7.93843,-5.19677 -13.15685,-11.00681c-6.08759,-6.77777 -9.73663,-14.57056 -12.13914,-18.68944c-0.34082,-0.58431 -4.01999,1.58785 -5.934,2.01254c-2.96082,0.65696 -4.48364,-0.08182 -4.48364,-0.08182c0,0 2.67098,-3.37669 3.55098,-5.15497c0.94364,-1.90688 1.93325,-5.92746 1.93325,-5.92746c0,0 -2.66402,1.90888 -4.05965,2.38502c-1.48595,0.50696 -4.60208,0.57008 -4.60208,0.57008c0,0 4.39229,-5.64339 5.74307,-11.5602c1.27257,-5.57422 -0.4917,-11.39111 -0.4917,-12.96047z" fill="#000000" stroke="#000000" stroke-width="0" stroke-linecap="butt"/><path d="M286.75003,307.5l15.14285,-131.8421l37.78325,-0.15789l13.57389,132z" fill="url(#color-1)" stroke="#000000" stroke-width="0" stroke-linecap="butt"/><path d="M308.30208,240.83887l-1.75,-49.5h25l-1.875,49.625l-10.375,46.125z" fill="url(#color-2)" stroke="none" stroke-width="0" stroke-linecap="butt"/><path d="M307.01042,310.78515l-1.97975,-37.34512c0,0 2.73304,-26.62858 2.45114,-32.66993c-0.41934,-8.98704 -10.97139,-21.06827 -10.97139,-21.06827l10.58333,-25c0,0 3.86856,12.28994 4.83038,21.27861c0.56131,5.24572 -1.89459,25.00775 -1.89459,25.00775l9.05066,33.27387l0.51355,37.02311z" fill="url(#color-3)" stroke="none" stroke-width="0" stroke-linecap="butt"/><path d="M319.01042,311.28515l0.01355,-37.02311l9.55066,-33.27387c0,0 -2.45589,-19.76202 -1.89459,-25.00774c0.96182,-8.98866 4.83038,-21.2786 4.83038,-21.2786l10.58333,25c0,0 -10.55205,12.08123 -10.97139,21.06828c-0.2819,6.04135 2.45114,32.66993 2.45114,32.66993l-1.97975,37.34512z" data-paper-data="{&quot;index&quot;:null}" fill="url(#color-4)" stroke="none" stroke-width="0" stroke-linecap="butt"/><path d="M256.17329,137.1795c0,-7.78006 1.56969,-15.21597 4.42803,-22.04391c0.57159,-1.3654 119.84168,0.50552 120.29148,1.68263c2.43044,6.36053 3.75454,13.21576 3.75454,20.36129c0,33.30185 -28.7599,60.29833 -64.23702,60.29833c-35.47712,0 -64.23702,-26.99649 -64.23702,-60.29833z" fill="url(#color-5)" stroke="#000000" stroke-width="0" stroke-linecap="butt"/><path d="M385.26042,116.45183c0,6.90586 -29.9223,12.50416 -66.83333,12.50416c-36.91103,0 -66.83333,-5.5983 -66.83333,-12.50416c0,-6.90586 29.9223,-12.50416 66.83333,-12.50416c36.91103,0 66.83333,5.5983 66.83333,12.50416z" fill="#000000" stroke="none" stroke-width="0" stroke-linecap="butt"/><path d="M254.83995,136.84616c0,-7.86567 2.41693,-14.66079 6.59287,-20.38536c0.87287,-1.19657 116.74373,-1.84897 118.12013,0.0437c4.15639,5.71545 5.76104,12.496 5.76104,20.34166c0,11.52987 -3.50113,22.30391 -9.57433,31.4634c-0.29787,0.44923 -27.95013,1.52919 -55.81608,1.4113c-27.65347,-0.11698 -55.52254,-1.42881 -55.74391,-1.76791c-5.92867,-9.08202 -9.33972,-19.72622 -9.33972,-31.1068z" fill="#000000" stroke="#000000" stroke-width="0" stroke-linecap="butt"/><path d="M333.84288,177.26355c0,0 -3.41412,8.18267 -14.21721,8.53229c-8.90559,0.28824 -14.14841,-8.37158 -14.14841,-8.37158c0,0 9.4982,-3.37488 14.69799,-3.37488c5.05487,0 13.66763,3.21417 13.66763,3.21417z" fill="#7f7f7f" stroke="#000000" stroke-width="2" stroke-linecap="round"/><path d="M330.84841,180.16683c0,0 -6.74832,0.33333 -10.33333,0.33333c-3.89006,0 -12.16667,-0.33333 -12.16667,-0.33333" fill="none" stroke="#000000" stroke-width="1" stroke-linecap="round"/></g></g></svg>