<svg version="1.1" xmlns="http://www.w3.org/2000/svg" xmlns:xlink="http://www.w3.org/1999/xlink" width="34.17311" height="34.17311" viewBox="0,0,34.17311,34.17311"><g transform="translate(-302.91345,-162.91346)"><g data-paper-data="{&quot;isPaintingLayer&quot;:true}" stroke="none" stroke-miterlimit="10" stroke-dasharray="" stroke-dashoffset="0" style="mix-blend-mode: normal"><path d="M309.98311,162.91346h20.03379c3.9166,0 7.06966,3.15307 7.06966,7.06966v20.03379c0,3.91659 -3.15306,7.06966 -7.06966,7.06966h-20.03379c-3.91659,0 -7.06966,-3.15307 -7.06966,-7.06966v-20.03379c0,-3.91659 3.15307,-7.06966 7.06966,-7.06966z" fill="#ff927f" fill-rule="evenodd" stroke-width="4.43922" stroke-linecap="round" stroke-linejoin="round"/><g fill-rule="nonzero" stroke-width="0" stroke-linecap="butt" stroke-linejoin="miter"><path d="M328.19654,170.00098c-0.26097,0.50856 -1.24387,0.525 -2.19536,0.03673c-0.95149,-0.48827 -1.51127,-1.29636 -1.2503,-1.80491c0.26097,-0.50856 1.24387,-0.525 2.19536,-0.03673c0.95149,0.48827 1.51127,1.29636 1.2503,1.80492z" fill="#c80c11"/><path d="M308.87016,175.30813c0,0 5.22877,-13.13588 17.83307,-6.23248c13.15312,6.80959 5.39697,18.00319 5.39697,18.00319z" fill="#fa3512"/><path d="M303.69852,178.65841l5.17164,-3.35028c0,0 5.73055,1.68173 12.07123,4.99561c6.32122,3.3037 11.15881,6.7751 11.15881,6.7751l-0.00628,6.30116c0,0 -3.62914,-3.72087 -13.40607,-8.68342c-10.62044,-5.39069 -14.98933,-6.03816 -14.98933,-6.03816z" fill="#ca0b12"/><path d="M320.09982,176.05313l3.77008,-3.54414l-0.06545,2.15002l1.15276,-0.46627l-0.4018,4.14683z" fill="#ffffff"/></g></g></g></svg>