<svg version="1.1" xmlns="http://www.w3.org/2000/svg" xmlns:xlink="http://www.w3.org/1999/xlink" width="34.67311" height="34.67311" viewBox="0,0,34.67311,34.67311"><defs><linearGradient x1="320" y1="162.91345" x2="320" y2="197.08656" gradientUnits="userSpaceOnUse" id="color-1"><stop offset="0" stop-color="#000000"/><stop offset="1" stop-color="#6c3333"/></linearGradient></defs><g transform="translate(-302.66345,-162.66344)"><g data-paper-data="{&quot;isPaintingLayer&quot;:true}" stroke-width="0.5" stroke-miterlimit="10" stroke-dasharray="" stroke-dashoffset="0" style="mix-blend-mode: normal"><path d="M309.98311,162.91345h20.03379c3.9166,0 7.06966,3.15307 7.06966,7.06966v20.03379c0,3.91659 -3.15306,7.06966 -7.06966,7.06966h-20.03379c-3.91659,0 -7.06966,-3.15307 -7.06966,-7.06966v-20.03379c0,-3.91659 3.15307,-7.06966 7.06966,-7.06966z" fill="url(#color-1)" fill-rule="evenodd" stroke="#6c3333" stroke-linecap="round" stroke-linejoin="round"/><g fill="#6c3333" fill-rule="nonzero" stroke="none" stroke-linecap="butt" stroke-linejoin="miter"><path d="M331.9156,183.47896c-0.98969,0.76355 -1.75325,-0.22614 -1.75325,-0.22614l-0.10634,-0.17757c-5.82108,-5.11568 -13.37816,-7.66293 -20.7755,-4.88647c0,0 -1.17198,0.43469 -1.60667,-0.73729c-0.43469,-1.17198 0.73729,-1.60667 0.73729,-1.60667c8.33123,-3.05768 16.69265,-0.34934 23.28634,5.34479l0.44427,0.53611c0,0 0.76355,0.98969 -0.22614,1.75325z"/><path d="M322.67159,176.64596l0.96385,0.51287c0.14056,-0.04724 0.30623,-0.07271 0.50147,-0.06675c1.24942,0.03818 1.21124,1.2876 1.21124,1.2876c-0.10032,1.77809 -0.90089,3.13874 -1.79519,4.57476c2.04836,-0.01396 4.08652,-0.30854 5.94995,-0.82787l0.61699,-0.06705c0,0 1.24702,-0.08633 1.33335,1.16068c0.08633,1.24702 -1.16068,1.33335 -1.16068,1.33335l-0.13122,-0.01525c-7.75429,2.08079 -17.54526,0.75581 -21.86757,-6.54704c0,0 -0.6349,-1.07676 0.44185,-1.71166c1.07676,-0.6349 1.71166,0.44185 1.71166,0.44185c1.14499,1.9499 2.78408,3.38761 4.69759,4.3877c-0.09471,-1.789 0.1811,-2.73211 1.09847,-4.16291c0.02492,-0.62641 0.41875,-0.91301 0.74145,-1.04301c0.16783,-0.33886 0.5233,-0.73504 1.25748,-0.64034c0.42507,0.05483 0.6856,0.2366 0.84444,0.45182c1.24489,-0.01172 2.20556,0.17055 3.58488,0.93123z"/></g></g></g></svg>