<svg version="1.1" xmlns="http://www.w3.org/2000/svg" xmlns:xlink="http://www.w3.org/1999/xlink" width="150.04303" height="267.22501" viewBox="0,0,150.04303,267.22501"><defs><linearGradient x1="320.00005" y1="175.50002" x2="320.00005" y2="307.50002" gradientUnits="userSpaceOnUse" id="color-1"><stop offset="0" stop-color="#000000"/><stop offset="1" stop-color="#800000"/></linearGradient><linearGradient x1="320.00005" y1="175.50002" x2="320.00005" y2="307.50002" gradientUnits="userSpaceOnUse" id="color-2"><stop offset="0" stop-color="#000000"/><stop offset="1" stop-color="#670000"/></linearGradient><linearGradient x1="320.26961" y1="192.40394" x2="320.26961" y2="252.85004" gradientUnits="userSpaceOnUse" id="color-3"><stop offset="0" stop-color="#000000"/><stop offset="1" stop-color="#4d4646"/></linearGradient><linearGradient x1="320.2241" y1="224.12072" x2="320.2241" y2="266.01069" gradientUnits="userSpaceOnUse" id="color-4"><stop offset="0" stop-color="#000000"/><stop offset="1" stop-color="#660000"/></linearGradient><linearGradient x1="320.26961" y1="192.40394" x2="320.26961" y2="270.04417" gradientUnits="userSpaceOnUse" id="color-5"><stop offset="0" stop-color="#000000"/><stop offset="1" stop-color="#808080"/></linearGradient><linearGradient x1="320.2241" y1="218.932" x2="320.2241" y2="229.39532" gradientUnits="userSpaceOnUse" id="color-6"><stop offset="0" stop-color="#000000"/><stop offset="1" stop-color="#660000"/></linearGradient><linearGradient x1="331.18242" y1="194.69708" x2="331.18242" y2="259.11943" gradientUnits="userSpaceOnUse" id="color-7"><stop offset="0" stop-color="#000000"/><stop offset="1" stop-color="#663d3d"/></linearGradient><linearGradient x1="309.51576" y1="194.69708" x2="309.51576" y2="259.11943" gradientUnits="userSpaceOnUse" id="color-8"><stop offset="0" stop-color="#000000"/><stop offset="1" stop-color="#663d3d"/></linearGradient><linearGradient x1="320.07698" y1="81.54784" x2="320.07698" y2="202.1445" gradientUnits="userSpaceOnUse" id="color-9"><stop offset="0" stop-color="#1a1a1a"/><stop offset="1" stop-color="#808080"/></linearGradient><linearGradient x1="320" y1="176.52966" x2="320" y2="215.22036" gradientUnits="userSpaceOnUse" id="color-10"><stop offset="0" stop-color="#666666"/><stop offset="1" stop-color="#999999"/></linearGradient></defs><g transform="translate(-246.03853,-46.38752)"><g data-paper-data="{&quot;isPaintingLayer&quot;:true}" fill-rule="nonzero" stroke-linecap="butt" stroke-linejoin="miter" stroke-miterlimit="10" stroke-dasharray="" stroke-dashoffset="0" style="mix-blend-mode: normal"><path d="M251.83996,144.84619c0,-1.65654 -5.80143,-1.9233 -5.80143,-1.9233c0,0 6.69584,-8.87746 7.35214,-11.71771c6.65986,-28.82218 23.99043,-56.21969 66.68631,-56.74538c45.68643,-0.56252 68.23702,35.01087 68.23702,70.3864c0,0.66795 3.07779,7.31159 4.43041,10.36634c2.27861,5.14598 3.33715,7.45866 3.33715,7.45866c0,0 -2.64733,-1.66693 -4.82385,-3.56682c-2.14071,-1.86864 -3.80963,-3.97893 -3.99144,-3.01508c-0.43459,2.30399 -0.59561,10.92242 -4.12876,19.9176c-3.49395,8.89536 -10.36285,18.18124 -10.36285,18.18124c0,0 -2.29192,-5.28642 -3.77673,-3.14158c-6.07718,8.77862 -11.2964,15.30957 -11.2964,15.30957c0,0 -2.40974,-4.97718 -4.47106,-3.86765c-9.32569,5.01966 -20.06286,7.91078 -31.65348,7.91078c-12.60656,0 -24.772,-3.56633 -35.27102,-9.52744c-2.72845,-1.54916 -0.82623,4.38789 -0.82623,4.38789c0,0 -7.93843,-5.19677 -13.15685,-11.00681c-6.08759,-6.77777 -9.73663,-14.57056 -12.13914,-18.68944c-0.34082,-0.58431 -4.01999,1.58785 -5.934,2.01254c-2.96082,0.65696 -4.48364,-0.08182 -4.48364,-0.08182c0,0 2.67098,-3.37669 3.55098,-5.15497c0.94364,-1.90688 1.93325,-5.92746 1.93325,-5.92746c0,0 -2.66402,1.90888 -4.05965,2.38502c-1.48595,0.50696 -4.60208,0.57008 -4.60208,0.57008c0,0 4.39229,-5.64339 5.74307,-11.5602c1.27257,-5.57422 -0.4917,-11.39111 -0.4917,-12.96047z" fill="#000000" stroke="#000000" stroke-width="0"/><path d="M259.28374,313.61253v-267.22501h123.18203v267.22501z" fill-opacity="0.01" fill="#000000" stroke="none" stroke-width="0"/><path d="M286.75005,307.50001l15.14285,-131.8421l37.78325,-0.15789l13.57389,132z" fill="url(#color-1)" stroke="#000000" stroke-width="0"/><path d="M318.62719,175.58798l21.04896,-0.08796l13.57389,132h-32.96113z" fill="url(#color-2)" stroke="#000000" stroke-width="0"/><path d="M306.03151,192.40394l28.47619,0.65781l-14.28571,59.78829z" fill="url(#color-3)" stroke="none" stroke-width="0"/><path d="M322.29431,225.80505c0,0 1.38745,14.45461 1.89504,19.74272c0.34091,3.55158 0.8548,8.90533 0.8548,8.90533l-4.87225,-1.23607l-4.76785,1.23607l2.8358,-28.54281l1.98425,-1.78957z" fill="url(#color-4)" stroke="none" stroke-width="0"/><path d="M306.03151,192.40394l28.47619,0.84493l-14.28571,26.85019z" fill="url(#color-5)" stroke="none" stroke-width="0"/><path d="M320.2241,229.39532l-4.82005,-5.23166l4.82005,-5.23166l4.82005,5.23166z" fill="url(#color-6)" stroke="none" stroke-width="0"/><path d="M329.25833,259.11943l-9.00256,-5.94422l12.85074,-58.47814l9.00256,5.94422z" data-paper-data="{&quot;index&quot;:null}" fill="url(#color-7)" stroke="none" stroke-width="0"/><path d="M298.58911,200.6413l9.00256,-5.94422l12.85075,58.47814l-9.00256,5.94422z" fill="url(#color-8)" stroke="none" stroke-width="0"/><path d="M255.83996,141.84617c0,-33.30185 28.7599,-60.29833 64.23702,-60.29833c35.47712,0 64.23702,26.99649 64.23702,60.29833c0,33.30185 -28.7599,60.29833 -64.23702,60.29833c-35.47712,0 -64.23702,-26.99649 -64.23702,-60.29833z" fill="url(#color-9)" stroke="#000000" stroke-width="0"/><path d="M255.50663,141.51284c0,-33.30185 28.7599,-60.29833 64.23702,-60.29833c35.47712,0 64.23702,26.99649 64.23702,60.29833c0,0 -7.38383,23.41556 -11.38634,24.10177c-5.72925,0.98225 -6.92937,-6.71695 -9.76531,-6.21041c-6.29577,1.12452 -4.59481,19.61765 -9.28377,19.69556c-3.35345,0.05572 0.15538,-14.32504 -4.8822,-14.96797c-5.01573,-0.64014 -1.19444,8.13779 -6.49313,8.18107c-3.9638,0.03238 -6.01659,-10.54895 -8.76805,-10.61571c-7.82308,-0.18983 -3.34483,12.21379 -7.2607,12.23271c-4.91553,0.02374 -1.70535,-11.74016 -6.34774,-12.11014c-4.43148,-0.35316 -0.4985,7.85748 -4.74962,7.97585c-5.91944,0.16482 -4.33459,-7.90524 -5.87835,-7.73863c-6.05453,0.65346 -4.48598,18.8833 -10.19772,18.58884c-5.21355,-0.11817 -5.3929,-11.07181 -8.27829,-11.90663c-1.05844,-0.30623 -2.40751,2.43269 -3.82919,2.62472c-5.68027,0.76726 -4.35646,-4.83121 -8.72152,-4.93217c-2.71232,-0.06274 -3.11625,-15.68997 -8.8683,-15.88199c-3.09343,-0.10327 -0.33408,10.07015 -5.12987,10.53416c-7.11793,0.68869 -8.63392,-19.43759 -8.63392,-19.57103z" fill="#000000" stroke="#000000" stroke-width="1"/><path d="M269.39017,142.27564c0,-12.968 10.51265,-23.48065 23.48065,-23.48065c12.968,0 23.48065,10.51265 23.48065,23.48065c0,12.968 -10.51265,23.48065 -23.48065,23.48065c-12.968,0 -23.48065,-10.51265 -23.48065,-23.48065z" fill="#808080" stroke="#000000" stroke-width="0"/><path d="M347.12926,165.75628c-12.968,0 -23.48065,-10.51265 -23.48065,-23.48065c0,-12.968 10.51265,-23.48065 23.48065,-23.48065c12.968,0 23.48065,10.51265 23.48065,23.48065c0,12.968 -10.51265,23.48065 -23.48065,23.48065z" data-paper-data="{&quot;index&quot;:null}" fill="#808080" stroke="#000000" stroke-width="0"/><path d="M322.59215,266.44185c0,-0.9665 0.7835,-1.75 1.75,-1.75c0.9665,0 1.75,0.7835 1.75,1.75c0,0.9665 -0.7835,1.75 -1.75,1.75c-0.9665,0 -1.75,-0.7835 -1.75,-1.75z" fill="#1a0000" stroke="none" stroke-width="0.5"/><path d="M322.59215,280.44185c0,-0.9665 0.7835,-1.75 1.75,-1.75c0.9665,0 1.75,0.7835 1.75,1.75c0,0.9665 -0.7835,1.75 -1.75,1.75c-0.9665,0 -1.75,-0.7835 -1.75,-1.75z" fill="#1a0000" stroke="none" stroke-width="0.5"/><path d="M322.59215,295.77518c0,-0.9665 0.7835,-1.75 1.75,-1.75c0.9665,0 1.75,0.7835 1.75,1.75c0,0.9665 -0.7835,1.75 -1.75,1.75c-0.9665,0 -1.75,-0.7835 -1.75,-1.75z" fill="#1a0000" stroke="none" stroke-width="0.5"/><path d="M336.93333,189.42656c0,12.82097 -7.58131,24.7938 -16.93333,24.7938c-9.35202,0 -16.93333,-11.97283 -16.93333,-24.7938c0,-7.66221 7.58131,-12.8969 16.93333,-12.8969c9.35202,0 16.93333,3.17119 16.93333,12.8969z" fill="url(#color-10)" stroke="none" stroke-width="0"/><path d="M334.33333,189.01668c0,0 -2.21725,23.43333 -14.33333,23.23333c-12.11443,-0.19997 -14.20833,-23.23333 -14.20833,-23.23333c0,0 1.88593,-9.45114 14.20833,-9.51667c10.71191,-0.05696 14.33333,9.51667 14.33333,9.51667z" fill="#000000" stroke="#000000" stroke-width="2"/><g stroke="none" stroke-width="0"><path d="M308.80764,195.80001c0,0 5.01099,-3.52202 11.19236,-3.52202c6.18137,0 11.19236,3.52202 11.19236,3.52202c0,0 -5.01099,3.52202 -11.19236,3.52202c-6.18137,0 -11.19236,-3.52202 -11.19236,-3.52202z" fill="#808080"/><path d="M311.09166,195.80001c0,-3.35513 2.71987,-6.075 6.075,-6.075c3.35513,0 6.075,2.71987 6.075,6.075c0,3.35513 -2.71987,6.075 -6.075,6.075c-3.35513,0 -6.075,-2.71987 -6.075,-6.075z" fill="#000000"/></g><path d="M269.4567,141.9204c0,-12.96801 10.51265,-23.48065 23.48066,-23.48065c12.96801,0 23.48065,10.51264 23.48065,23.48065c0,0 -9.31888,-14.62498 -23.43307,-15.13879c-14.72884,-0.53619 -23.52823,15.7554 -23.52823,15.13879z" fill="#000000" stroke="#000000" stroke-width="2"/><path d="M323.60757,142.26807c0,-12.96801 10.51264,-23.48065 23.48065,-23.48065c12.96801,0 23.48066,10.51264 23.48066,23.48065c0,0.60606 -7.37231,-15.02482 -22.92496,-15.131c-15.95251,-0.10891 -24.03635,15.131 -24.03635,15.131z" data-paper-data="{&quot;index&quot;:null}" fill="#000000" stroke="#000000" stroke-width="2"/></g></g></svg>