<svg version="1.1" xmlns="http://www.w3.org/2000/svg" xmlns:xlink="http://www.w3.org/1999/xlink" width="159.66667" height="267.22501" viewBox="0,0,159.66667,267.22501"><g transform="translate(-240.59376,-46.38752)"><g data-paper-data="{&quot;isPaintingLayer&quot;:true}" fill-rule="nonzero" stroke-linejoin="miter" stroke-miterlimit="10" stroke-dasharray="" stroke-dashoffset="0" style="mix-blend-mode: normal"><path d="M259.03371,313.61253v-267.22501h123.18203v267.22501z" fill-opacity="0.01" fill="#000000" stroke="none" stroke-width="0" stroke-linecap="butt"/><path d="M240.59376,146.28517l27,-16.66666l109.66667,-0.33333l23,17.66667c0,0 -11.27802,18.45269 -79.33189,18.98818c-71.74829,0.56455 -80.33477,-19.65485 -80.33477,-19.65485z" fill="#3a0d1d" stroke="none" stroke-width="0" stroke-linecap="butt"/><path d="M251.83996,139.8462c0,-1.65654 -5.80143,-1.9233 -5.80143,-1.9233c0,0 6.69584,-8.87746 7.35214,-11.71771c6.65986,-28.82218 23.99043,-56.21969 66.68631,-56.74538c45.68643,-0.56252 68.23702,35.01087 68.23702,70.3864c0,0.66795 3.07779,7.31159 4.43041,10.36634c2.27861,5.14598 3.33715,7.45866 3.33715,7.45866c0,0 -2.64733,-1.66693 -4.82385,-3.56682c-2.14071,-1.86864 -3.80963,-3.97893 -3.99144,-3.01508c-0.43459,2.30399 -0.59561,10.92242 -4.12876,19.9176c-3.49395,8.89536 -10.36285,18.18124 -10.36285,18.18124c0,0 -2.29192,-5.28642 -3.77673,-3.14158c-6.07718,8.77862 -11.2964,15.30957 -11.2964,15.30957c0,0 -2.40974,-4.97718 -4.47106,-3.86765c-9.32569,5.01966 -20.06286,7.91078 -31.65348,7.91078c-12.60656,0 -24.772,-3.56633 -35.27102,-9.52744c-2.72845,-1.54916 -0.82623,4.38789 -0.82623,4.38789c0,0 -7.93843,-5.19677 -13.15685,-11.00681c-6.08759,-6.77777 -9.73663,-14.57056 -12.13914,-18.68944c-0.34082,-0.58431 -4.01999,1.58785 -5.934,2.01254c-2.96082,0.65696 -4.48364,-0.08182 -4.48364,-0.08182c0,0 2.67098,-3.37669 3.55098,-5.15497c0.94364,-1.90688 1.93325,-5.92746 1.93325,-5.92746c0,0 -2.66402,1.90888 -4.05965,2.38502c-1.48595,0.50696 -4.60208,0.57008 -4.60208,0.57008c0,0 4.39229,-5.64339 5.74307,-11.5602c1.27257,-5.57422 -0.4917,-11.39111 -0.4917,-12.96047z" fill="#000000" stroke="#000000" stroke-width="0" stroke-linecap="butt"/><path d="M329.66668,52.00001c0,2.85347 -4.32791,5.16666 -9.66667,5.16666c-5.33875,0 -9.66667,-2.31319 -9.66667,-5.16666c0,-2.85347 4.32791,-5.16667 9.66667,-5.16667c5.33875,0 9.66667,2.3132 9.66667,5.16667z" fill="#c80c11" stroke="none" stroke-width="0" stroke-linecap="butt"/><path d="M286.75005,307.50001l15.14285,-131.8421l37.78325,-0.15789l13.57389,132z" fill="#013288" stroke="#013289" stroke-width="2" stroke-linecap="butt"/><path d="M293.08258,252.36544l3.58808,-31.23988l47.73901,0.40591l3.34455,31.34311z" fill="#ffffff" stroke="#ffffff" stroke-width="2" stroke-linecap="butt"/><path d="M294.37416,241.12021l1.10296,-9.60303l49.88897,0.82013l1.13169,9.01262z" fill="#c50b13" stroke="#c90c13" stroke-width="2" stroke-linecap="butt"/><path d="M297.41456,200.58502l3.46345,-24.46251l39.75691,-0.15759l3.07058,24.21646c0,0 -8.33894,9.40581 -23.92138,9.75379c-15.58244,0.34797 -22.36957,-9.35014 -22.36957,-9.35014z" fill="#00224d" stroke="#000000" stroke-width="0" stroke-linecap="butt"/><path d="M320,202.12501v107.75" fill="none" stroke="#43bbf0" stroke-width="2" stroke-linecap="round"/><path d="M315.85136,205.83888l1.15909,-10.5h6.18182l1.15909,10.75c0,0 -2.99013,0.66206 -4.4365,0.61952c-1.38423,-0.04072 -4.0635,-0.86952 -4.0635,-0.86952z" fill="#fcff04" stroke="none" stroke-width="0" stroke-linecap="butt"/><path d="M255.83997,136.64618c0,-33.30185 28.7599,-60.29833 64.23702,-60.29833c35.47712,0 64.23702,26.99649 64.23702,60.29833c0,33.30185 -28.7599,60.29833 -64.23702,60.29833c-35.47712,0 -64.23702,-26.99649 -64.23702,-60.29833z" fill="#ffffff" stroke="#000000" stroke-width="2" stroke-linecap="butt"/><path d="M319.92348,193.83431c39.85013,-0.92158 58.94602,-34.75228 58.68979,-34.17441c-9.53797,21.5107 -32.18884,36.63845 -58.61323,36.63845c-26.19427,0 -48.68048,-14.86543 -58.36107,-36.07795c-0.42955,-0.94125 20.24869,34.49353 58.28451,33.61391z" fill="#e6e6e6" stroke="#000000" stroke-width="0" stroke-linecap="butt"/><path d="M255.83997,136.84617c0,-33.30185 28.7599,-60.29833 64.23702,-60.29833c35.47712,0 64.23702,26.99649 64.23702,60.29833c0,7.26572 -1.36901,14.2313 -3.87812,20.68184c-0.19323,0.49676 -30.54592,4.76597 -60.34212,4.92505c-30.23932,0.16144 -59.92944,-3.79654 -60.23596,-4.56935c-2.59796,-6.5499 -4.01784,-13.63807 -4.01784,-21.03754z" fill-opacity="0.49804" fill="#000000" stroke="#000000" stroke-width="0" stroke-linecap="butt"/><path d="M269.39018,137.27565c0,-12.968 10.51265,-23.48065 23.48065,-23.48065c12.968,0 23.48065,10.51265 23.48065,23.48065c0,12.968 -10.51265,23.48065 -23.48065,23.48065c-12.968,0 -23.48065,-10.51265 -23.48065,-23.48065z" fill="#ffffff" stroke="#000000" stroke-width="2" stroke-linecap="butt"/><path d="M276.45554,137c0,-9.12808 7.39976,-16.52784 16.52783,-16.52784c9.12808,0 16.52784,7.39977 16.52784,16.52784c0,9.12808 -7.39977,16.52784 -16.52784,16.52784c-9.12808,0 -16.52783,-7.39977 -16.52783,-16.52784z" fill="#000000" stroke="none" stroke-width="0" stroke-linecap="butt"/><path d="M347.12929,160.75627c-12.968,0 -23.48065,-10.51265 -23.48065,-23.48065c0,-12.968 10.51265,-23.48065 23.48065,-23.48065c12.968,0 23.48065,10.51265 23.48065,23.48065c0,12.968 -10.51265,23.48065 -23.48065,23.48065z" data-paper-data="{&quot;index&quot;:null}" fill="#ffffff" stroke="#000000" stroke-width="2" stroke-linecap="butt"/><path d="M347.01671,153.52785c-9.12807,0 -16.52783,-7.39977 -16.52783,-16.52784c0,-9.12808 7.39977,-16.52784 16.52783,-16.52784c9.12807,0 16.52783,7.39977 16.52783,16.52784c0,9.12808 -7.39977,16.52784 -16.52783,16.52784z" data-paper-data="{&quot;index&quot;:null}" fill="#000000" stroke="none" stroke-width="0" stroke-linecap="butt"/><path d="M269.39018,137.27565c0,-12.968 10.51265,-23.48065 23.48065,-23.48065c12.968,0 23.48065,10.51265 23.48065,23.48065c0,0 -46.96131,1.23155 -46.96131,0z" fill="#ffffff" stroke="#000000" stroke-width="2" stroke-linecap="butt"/><path d="M323.6486,137.27565c0,-12.968 10.51265,-23.48065 23.48065,-23.48065c12.968,0 23.48065,10.51265 23.48065,23.48065c0,1.2138 -46.96131,0 -46.96131,0z" data-paper-data="{&quot;index&quot;:null}" fill="#ffffff" stroke="#000000" stroke-width="2" stroke-linecap="butt"/><path d="M282.02786,108.46717c0,0 6.70895,-5.16922 11.79721,-6.36355c5.08827,-1.19433 12.33413,0.69937 12.33413,0.69937c0,0 -8.03812,-0.06028 -11.96762,0.86207c-4.10648,0.96389 -12.16372,4.80211 -12.16372,4.80211z" fill="#000000" stroke="none" stroke-width="0" stroke-linecap="butt"/><path d="M345.9624,103.66507c-3.9295,-0.92235 -11.96762,-0.86207 -11.96762,-0.86207c0,0 7.24586,-1.8937 12.33413,-0.69937c5.08826,1.19433 11.79721,6.36355 11.79721,6.36355c0,0 -8.05724,-3.83822 -12.16372,-4.80211z" data-paper-data="{&quot;index&quot;:null}" fill="#000000" stroke="none" stroke-width="0" stroke-linecap="butt"/><path d="M332.61665,176.65648c0,0 -4.09668,4 -12.91066,4.14285c-7.26585,0.11777 -12.19893,-4.14285 -12.19893,-4.14285" fill="none" stroke="#000000" stroke-width="2" stroke-linecap="round"/><path d="M255.9271,119.6185c0,0 -6.71569,-70.25824 64.99833,-68.32477c73.93773,0.26598 65.00167,67.65811 65.00167,67.65811z" fill="#fa3512" stroke="none" stroke-width="0" stroke-linecap="butt"/><path d="M240.59376,146.28517l15.33334,-26.66667c0,0 29.28431,-5.59158 64.99833,-5.32478c35.60439,0.26598 65.00167,4.65811 65.00167,4.65811l14.33333,28c0,0 -24.59869,-8.25439 -79.33189,-8.01183c-59.45531,0.2635 -80.33477,7.34516 -80.33477,7.34516z" fill="#ca0b12" stroke="none" stroke-width="0" stroke-linecap="butt"/><path d="M307.5,97.33334l8.66667,-24.33334l4.60952,9.69817l4.05715,-4.69817l7.66667,19.33334z" fill="#ffffff" stroke="none" stroke-width="0" stroke-linecap="butt"/></g></g></svg>