<svg version="1.1" xmlns="http://www.w3.org/2000/svg" xmlns:xlink="http://www.w3.org/1999/xlink" width="34.67311" height="34.67311" viewBox="0,0,34.67311,34.67311"><defs><linearGradient x1="240.00006" y1="162.9135" x2="240.00006" y2="197.08661" gradientUnits="userSpaceOnUse" id="color-1"><stop offset="0" stop-color="#000000"/><stop offset="1" stop-color="#1a0e00"/></linearGradient><linearGradient x1="240.51094" y1="180.02412" x2="240.51094" y2="201.76369" gradientUnits="userSpaceOnUse" id="color-2"><stop offset="0" stop-color="#000000"/><stop offset="1" stop-color="#4d0000"/></linearGradient><linearGradient x1="240.01511" y1="178.98026" x2="240.01511" y2="203.51975" gradientUnits="userSpaceOnUse" id="color-3"><stop offset="0" stop-color="#1a0e00"/><stop offset="1" stop-color="#593000"/></linearGradient></defs><g transform="translate(-222.66351,-162.6635)"><g data-paper-data="{&quot;isPaintingLayer&quot;:true}" stroke-miterlimit="10" stroke-dasharray="" stroke-dashoffset="0" style="mix-blend-mode: normal"><path d="M229.98318,162.9135h20.03379c3.9166,0 7.06966,3.15307 7.06966,7.06966v20.03379c0,3.91659 -3.15306,7.06966 -7.06966,7.06966h-20.03379c-3.91659,0 -7.06966,-3.15307 -7.06966,-7.06966v-20.03379c0,-3.91659 3.15307,-7.06966 7.06966,-7.06966z" fill="url(#color-1)" fill-rule="evenodd" stroke="#804600" stroke-width="0.5" stroke-linecap="round" stroke-linejoin="round"/><g fill-rule="nonzero" stroke="#000000" stroke-width="0" stroke-linecap="butt" stroke-linejoin="miter"><path d="M228.93114,190.89391c0,-6.00322 5.13359,-11.07328 11.52893,-11.07328c0.06079,0 -0.52359,0.61816 -0.26818,2.5953c0.20212,1.56467 1.00224,1.65818 1.00224,1.65818c0,0 -0.55474,1.10943 -0.27982,2.65606c0.331,1.86204 0.89821,1.91779 0.89821,1.91779c0,0 -0.8209,1.0059 -0.68227,2.50807c0.01039,0.1126 -0.48821,0.18382 -1.28916,0.22274c-3.13659,0.15239 -10.90994,-0.19073 -10.90994,-0.48486z" fill="url(#color-2)"/><path d="M226.94391,191.25c0,-6.7764 5.85217,-12.26974 13.0712,-12.26974c0.06862,0 -0.64844,0.75519 -0.36014,2.98696c0.22815,1.76619 1.13132,2.04402 1.13132,2.04402c0,0 -0.62619,0.90779 -0.31586,2.65361c0.37363,2.10187 1.01389,2.10737 1.01389,2.10737c0,0 -0.8403,1.00589 -0.78535,2.55152c0.00513,0.14432 -13.75505,0.40395 -13.75505,-0.07373z" fill="url(#color-3)"/></g></g></g></svg>