<svg version="1.1" xmlns="http://www.w3.org/2000/svg" xmlns:xlink="http://www.w3.org/1999/xlink" width="887.82106" height="429.92793" viewBox="0,0,887.82106,429.92793"><g transform="translate(12.08108,34.96396)"><g stroke-miterlimit="10"><path d="M-11.08108,393.96397v-427.92793h662.16216v427.92793z" fill="#000000" stroke="#000000" stroke-width="2" stroke-linecap="butt"/><text transform="translate(266.82042,46.03612) scale(1.00301,1.00301)" font-size="40" xml:space="preserve" fill="#ffffff" stroke="none" stroke-width="1" stroke-linecap="butt" font-family="Sans Serif" font-weight="normal" text-anchor="start"><tspan x="0" dy="0">NOTE</tspan></text><text transform="translate(39.84893,76.7729) scale(0.52398,0.52398)" font-size="40" xml:space="preserve" fill="#ffffff" stroke="none" stroke-width="1" stroke-linecap="butt" font-family="Sans Serif" font-weight="normal" text-anchor="start"><tspan x="0" dy="0">Due to the popularity of this mod. Just letting you know.</tspan><tspan x="0" dy="46.150000000000006px">This is a mod for a game called "Incredibox"</tspan><tspan x="0" dy="46.150000000000006px">It's a really good music game made by So Far So Good.</tspan><tspan x="0" dy="46.150000000000006px">You should try it. including other mods.</tspan></text><text transform="translate(124.20872,341.46398) scale(0.5,0.5)" font-size="40" xml:space="preserve" fill="#ffffff" stroke="none" stroke-width="1" stroke-linecap="butt" font-family="Sans Serif" font-weight="normal" text-anchor="start"><tspan x="0" dy="0">tap anywhere or press any key to continue</tspan></text><path d="M276.7378,224.92879c0,0 6.16329,-5.92187 6.29161,-6.78761c0.33654,-2.27063 -0.16776,-40.17317 35.96775,-41.57382c44.63633,-0.91362 39.01489,35.34872 41.53088,42.1903c3.44981,9.38084 6.15664,17.40016 6.15664,17.40016c0,0 -2.76715,-2.05351 -4.0797,-3.13397c-1.2242,-1.00773 -3.80143,-3.14585 -3.80143,-3.14585c0,0 3.09111,10.3481 1.31092,20.69498c-1.5623,9.48098 -7.29782,17.22543 -7.29782,17.22543l-1.15522,-2.34735c0,0 -1.02266,2.19794 -2.16005,3.33274c-1.1374,1.13479 -3.43873,2.91273 -3.43873,2.91273l-0.09205,-3.70421c0,0 -7.0601,11.01795 -24.35066,10.87154c-16.30625,-0.25547 -26.07151,-10.6752 -26.07151,-10.6752l-0.1162,2.65484c0,0 -3.89477,-3.29276 -6.18145,-9.70754c-2.72545,-7.64567 -3.23946,-12.24324 -3.23946,-12.24324c0,0 -2.33908,1.89916 -5.71704,2.7744c-4.23278,1.09673 -6.94665,0.34526 -6.94665,0.34526c0,0 3.60795,-2.71717 5.58396,-4.76989c1.76007,-1.8284 2.64658,-3.37722 2.64658,-3.37722c0,0 -2.10758,1.0847 -4.23277,1.61795c-2.21739,0.5564 -4.03008,0.53093 -4.03008,0.53093c0,0 4.97492,-5.03728 7.03074,-10.87429c1.94102,-5.51108 2.09972,-10.95731 2.09972,-10.95731c0,0 -1.36165,0.66163 -3.33013,0.79513c-1.24776,0.08463 -2.37785,-0.0489 -2.37785,-0.0489z" fill="#ffffff" stroke="none" stroke-width="1.5" stroke-linecap="butt"/><path d="M293.52369,236.25041c-0.57709,-7.29323 0.335,-17.15448 0.335,-17.15448c0,0 3.41059,-0.04124 13.91429,-3.14424c8.0696,-2.38394 20.54731,-9.48722 20.54731,-9.48722c0,0 -2.16005,3.00503 -3.40781,4.46015c-1.32651,1.54696 -3.99292,4.56297 -3.99292,4.56297c0,0 7.838,-1.66761 14.67476,-4.72931c8.56837,-3.53575 10.59252,-6.05309 12.95042,-4.5927c2.7829,1.72362 1.03006,23.1827 0.71846,28.74062c-0.42163,5.66922 -2.53327,9.49969 -3.15031,12.52053c-0.61704,3.02084 -0.4096,6.13662 -2.20622,16.0397c-1.12121,6.18021 -4.16183,8.92466 -10.01942,14.66081c-5.85759,5.73616 -9.05378,9.25275 -13.01359,9.32173c-3.81077,0.06639 -8.93565,-5.1002 -13.93542,-10.38244c-5.32393,-5.62474 -8.87489,-8.47713 -9.71551,-15.13975c-0.75707,-6.00039 -0.77653,-9.90853 -1.12266,-15.24835c-0.25298,-3.90273 -2.26119,-6.44504 -2.57636,-10.42801z" fill="#000000" stroke="#ffffff" stroke-width="1.5" stroke-linecap="butt"/><path d="M341.5937,221.13005c0,0 1.52429,0.31807 4.2558,1.11029c2.49492,0.72361 4.44935,1.74403 4.44935,1.74403l0.1951,1.17035c0,0 -7.24963,-3.12997 -15.1158,-2.4706c-6.2896,0.52724 -9.96319,2.8124 -9.96319,2.8124l0.04575,-4.17683c0,0 3.12748,-1.70421 7.86366,-1.85557c4.90428,-0.15672 8.09084,0.59125 8.09084,0.59125z" fill="#ffffff" stroke="none" stroke-width="1.5" stroke-linecap="butt"/><path d="M328.82956,264.1176c0.5704,0.21186 3.08357,1.39942 6.02385,2.59586c2.9637,1.20597 7.21362,2.29294 7.19412,2.4605c-0.02476,0.21265 -10.43477,0.22694 -13.67937,0.63224c-2.71902,0.33964 -6.68867,0.70564 -6.68867,0.70564c0,0 -7.10401,-1.16169 -13.27235,-2.44521c-4.94371,-1.02869 -10.39929,-1.66108 -10.40995,-1.75461c-0.01439,-0.12613 3.86835,-0.71071 6.82417,-1.39467c1.14585,-0.49661 5.43971,-1.48513 5.43971,-1.48513c0,0 4.95585,-0.27766 7.60826,0.579c2.84203,0.91791 2.83546,2.44556 3.0831,2.46906c0,0 1.18436,-1.74932 2.36886,-2.10461c1.18451,-0.35528 5.08219,-0.41633 5.50828,-0.25808z" fill="#000000" stroke="#ffffff" stroke-width="1.4" stroke-linecap="butt"/><path d="M310.18157,268.6712c5.09114,1.02674 11.91756,2.80736 11.91756,2.80736c0,0 5.78976,-1.55585 8.44678,-1.8344c2.05992,-0.21596 11.216,-0.70654 11.26026,-0.33377c0.04328,0.36447 -9.03119,12.90033 -21.14808,12.44714c-13.76954,-0.43578 -22.86459,-15.13559 -22.82675,-15.30472c0.03784,-0.16913 7.2591,1.19165 12.35024,2.2184z" fill="#000000" stroke="#ffffff" stroke-width="1.9" stroke-linecap="butt"/><path d="M321.15584,265.67751c-1.03376,0 -3.5381,-3.26042 -3.7867,-5.3637c-0.22243,-1.88186 1.31512,-3.82799 3.7867,-3.82799c2.47159,0 4.2021,0.49077 4.02999,4.18853c-0.14607,3.13818 -1.55841,5.00317 -4.02999,5.00317z" fill="#000000" stroke="#ffffff" stroke-width="1.15" stroke-linecap="butt"/><path d="M324.75794,235.58379c0,0 0.1026,3.96976 0.00576,7.12662c-0.19174,6.25113 -1.08147,27.7607 -1.08147,27.7607l-2.98167,0.00864c0,0 -0.80294,-4.17274 -1.12322,-9.49979c-0.43353,-7.21063 -0.4495,-16.29321 -0.76344,-19.63229c-0.29758,-3.16513 -0.89593,-5.71453 -0.89593,-5.71453" fill="#000000" stroke="#ffffff" stroke-width="1.3" stroke-linecap="round"/><path d="M295.22334,246.37363c0,0 -4.93211,-3.51705 -6.16417,-8.97502c-1.29636,-5.74284 -1.46118,-9.7328 0.48013,-9.99193c1.94131,-0.25915 2.70321,2.37692 3.73262,8.35569c1.0294,5.97877 1.95143,10.61127 1.95143,10.61127z" fill="#000000" stroke="#ffffff" stroke-width="1" stroke-linecap="butt"/><path d="M295.02074,242.42607c0,0 -3.56385,-2.92338 -4.31816,-8.45061c-0.42079,-3.08327 2.15675,-2.28016 2.15675,-2.28016" fill="none" stroke="#ffffff" stroke-width="0.25" stroke-linecap="round"/><path d="M298.03415,235.77017c0.07093,-4.89188 4.83834,-8.93609 10.21137,-8.8582c5.37302,0.0779 9.02724,4.2484 8.95632,9.14029c-0.07093,4.89188 -4.12352,8.79439 -9.49655,8.7165c-5.37302,-0.0779 -9.74207,-4.1067 -9.67114,-8.99859z" fill="#000000" stroke="#ffffff" stroke-width="1.4" stroke-linecap="butt"/><path d="M302.47179,235.88811c0.03999,-2.75843 2.30855,-4.96213 5.06696,-4.92214c2.75843,0.03999 4.96213,2.30855 4.92214,5.06696c-0.03999,2.75843 -2.30854,4.96213 -5.06696,4.92214c-2.75843,-0.03999 -4.96213,-2.30855 -4.92214,-5.06696z" fill="#ffffff" stroke="none" stroke-width="1.5" stroke-linecap="butt"/><path d="M325.09043,235.7709c0.20353,-4.88817 4.45264,-8.85847 9.77048,-8.85847c5.31783,0 9.27453,3.96607 9.27453,8.85847c0,4.8924 -3.88585,9.07104 -9.69964,9.14188c-5.52997,0.06739 -9.55792,-4.03692 -9.34537,-9.14188z" fill="#000000" stroke="#ffffff" stroke-width="1.4" stroke-linecap="butt"/><path d="M329.69318,235.85645c0,-2.81845 2.2848,-5.10325 5.10325,-5.10325c2.81845,0 5.10325,2.2848 5.10325,5.10325c0,2.81845 -2.28479,5.10325 -5.10325,5.10325c-2.81845,0 -5.10325,-2.2848 -5.10325,-5.10325z" fill="#ffffff" stroke="none" stroke-width="1.5" stroke-linecap="butt"/><path d="M297.96572,235.23799c0,0 0.06357,-9.01512 10.60111,-8.8249c9.47101,0.16586 9.55554,9.40723 9.55554,9.40723z" fill="#000000" stroke="#ffffff" stroke-width="1.15" stroke-linecap="butt"/><path d="M324.71278,235.36889c0,0 -0.24686,-9.4582 11.19813,-9.1032c9.71427,0.33347 9.54677,9.65229 9.54677,9.65229z" fill="#000000" stroke="#ffffff" stroke-width="1.15" stroke-linecap="butt"/><path d="M301.49557,225.22633c0,0 3.36963,-1.819 8.03244,-2.28178c5.16698,-0.51283 7.76823,-0.06628 7.76823,-0.06628l0.29508,4.13747c0,0 -3.83554,-0.68065 -8.01795,-0.52113c-5.59346,0.21333 -6.64488,1.43293 -10.89774,1.89119c-3.64408,0.39266 -6.73723,0.15884 -6.73723,0.15884l-0.02589,-1.23155c0,0 3.59517,0.07398 5.23371,-0.06836c1.35239,-0.11749 3.9757,-0.93808 3.9757,-0.93808z" fill="#ffffff" stroke="none" stroke-width="1.5" stroke-linecap="butt"/><path d="M349.4565,235.76236c1.0294,-5.97877 1.7913,-8.61483 3.73262,-8.35569c1.94131,0.25914 1.77649,4.24909 0.48013,9.99193c-1.23206,5.45797 -6.16417,8.97502 -6.16417,8.97502c0,0 0.92203,-4.6325 1.95143,-10.61127z" fill="#000000" stroke="#ffffff" stroke-width="1" stroke-linecap="butt"/><path d="M349.86907,231.6953c0,0 2.57754,-0.80312 2.15675,2.28016c-0.75431,5.52723 -4.31816,8.45061 -4.31816,8.45061" fill="none" stroke="#ffffff" stroke-width="0.25" stroke-linecap="round"/><text transform="translate(162.09935,200.43772) scale(0.40043,0.40042)" font-size="40" xml:space="preserve" fill="#ffffff" stroke="none" stroke-width="1" stroke-linecap="butt" font-family="Sans Serif" font-weight="normal" text-anchor="start"><tspan x="0" dy="0">cool guy</tspan></text><path d="M248.05929,241.98223c-0.69338,-1.04006 0.34669,-1.73344 0.34669,-1.73344l1.30949,-0.84382c0.86001,-1.23024 3.01395,-3.18347 4.40553,-3.77097c1.06282,-0.4487 2.40277,0.05866 3.42916,-0.46804c0.10677,-0.05479 0.21018,-0.10928 0.31055,-0.16339c-2.48746,0.0526 -5.12849,0.46573 -7.48951,0.01528c-2.36991,-0.45214 -2.09847,-1.09699 -4.24882,-2.07358c-1.88996,-0.85833 -4.17945,-0.91748 -6.19674,-0.92142c-3.49771,-0.74007 -4.84198,-2.76109 -8.01342,-4.16355c-3.984,-1.76179 -8.34215,-2.77481 -11.97004,-5.00714c-1.21405,-0.74704 -1.92091,0.04719 -3.16184,-1.119c-0.58156,-0.54653 -0.60815,-1.50318 -1.1181,-2.11706c-1.8882,-2.27306 -4.62993,-2.73314 -3.77946,-6.61444c0.18004,-0.82167 0.73235,-1.51455 1.09853,-2.27183c0,0 0.55902,-1.11803 1.67705,-0.55902c1.11803,0.55902 0.55902,1.67705 0.55902,1.67705c-1.98893,3.81289 0.18122,3.55632 2.31906,6.11373c0.44452,0.53175 0.41419,1.37146 0.8819,1.88294c0.66848,0.73102 1.98401,0.37932 2.83816,0.881c3.55993,2.09091 7.79067,3.11704 11.67234,4.84981c2.77918,1.24062 4.28475,3.41589 7.2471,3.96008c2.27462,0.00999 4.77177,0.15526 6.90035,1.098c1.23363,0.54637 2.34846,1.67742 3.75118,1.92642c2.80029,0.49709 6.02,-0.21842 8.86047,-0.01785c1.03944,0.0734 2.04704,0.20453 3.05787,0.31365c0.35489,-0.02799 0.74683,-0.03479 1.18762,-0.01754c0.2801,0.01096 -0.57662,-0.08846 -0.80078,-0.25677c-0.53262,-0.39992 -0.9454,-0.93847 -1.41721,-1.4086c-0.0562,-0.056 -2.02374,-2.02309 -2.04753,-2.05023c-2.11766,-2.41636 -4.03741,-5.04371 -6.04468,-7.55278c0,0 -0.78087,-0.97609 0.19522,-1.75695c0.97609,-0.78087 1.75695,0.19522 1.75695,0.19522c2.56423,3.20529 5.00938,6.48891 7.9078,9.39699c0.61956,0.62162 2.56758,2.31073 2.83236,3.63388h0.28376c0,0 1.25,0 1.25,1.25c0,1.25 -1.25,1.25 -1.25,1.25h-1c-1.33204,-0.0007 -2.61346,-0.14694 -3.90452,-0.29059c-0.17868,0.03874 -0.33687,0.08368 -0.46753,0.13849c-1.00786,0.42276 -1.59775,1.5432 -2.57876,2.025c-1.08017,0.5305 -2.46807,0.05018 -3.57084,0.53196c-1.10078,0.48091 -2.95347,2.21022 -3.59447,3.22903l-1.69051,1.15618c0,0 -1.04006,0.69338 -1.73344,-0.34669z" fill="#ffffff" stroke="none" stroke-width="0.5" stroke-linecap="butt"/><path d="M873.23998,284.81945c0,-0.69036 0.55964,-1.25 1.25,-1.25c0.69036,0 1.25,0.55964 1.25,1.25c0,0.69036 -0.55964,1.25 -1.25,1.25c-0.69036,0 -1.25,-0.55964 -1.25,-1.25z" fill="#ffffff" stroke="none" stroke-width="0.5" stroke-linecap="butt"/></g></g></svg>