<svg version="1.1" xmlns="http://www.w3.org/2000/svg" xmlns:xlink="http://www.w3.org/1999/xlink" width="155.12154" height="267.22501" viewBox="0,0,155.12154,267.22501"><defs><linearGradient x1="325.00005" y1="180.50001" x2="325.00005" y2="312.50001" gradientUnits="userSpaceOnUse" id="color-1"><stop offset="0" stop-color="#000000"/><stop offset="1" stop-color="#800000"/></linearGradient><linearGradient x1="325.00005" y1="180.50001" x2="325.00005" y2="312.50001" gradientUnits="userSpaceOnUse" id="color-2"><stop offset="0" stop-color="#000000"/><stop offset="1" stop-color="#670000"/></linearGradient><linearGradient x1="325.26962" y1="197.40393" x2="325.26962" y2="257.85003" gradientUnits="userSpaceOnUse" id="color-3"><stop offset="0" stop-color="#000000"/><stop offset="1" stop-color="#4d4646"/></linearGradient><linearGradient x1="325.22409" y1="229.12071" x2="325.22409" y2="271.01068" gradientUnits="userSpaceOnUse" id="color-4"><stop offset="0" stop-color="#000000"/><stop offset="1" stop-color="#660000"/></linearGradient><linearGradient x1="325.26962" y1="197.40393" x2="325.26962" y2="275.04416" gradientUnits="userSpaceOnUse" id="color-5"><stop offset="0" stop-color="#000000"/><stop offset="1" stop-color="#808080"/></linearGradient><linearGradient x1="325.22409" y1="223.93199" x2="325.22409" y2="234.39531" gradientUnits="userSpaceOnUse" id="color-6"><stop offset="0" stop-color="#000000"/><stop offset="1" stop-color="#660000"/></linearGradient><linearGradient x1="336.18244" y1="199.69707" x2="336.18244" y2="264.11942" gradientUnits="userSpaceOnUse" id="color-7"><stop offset="0" stop-color="#000000"/><stop offset="1" stop-color="#663d3d"/></linearGradient><linearGradient x1="314.51577" y1="199.69707" x2="314.51577" y2="264.11942" gradientUnits="userSpaceOnUse" id="color-8"><stop offset="0" stop-color="#000000"/><stop offset="1" stop-color="#663d3d"/></linearGradient><linearGradient x1="325.07698" y1="81.54783" x2="325.07698" y2="202.14449" gradientUnits="userSpaceOnUse" id="color-9"><stop offset="0" stop-color="#1a1a1a"/><stop offset="1" stop-color="#808080"/></linearGradient></defs><g transform="translate(-245.96002,-51.38751)"><g data-paper-data="{&quot;isPaintingLayer&quot;:true}" fill-rule="nonzero" stroke-linejoin="miter" stroke-miterlimit="10" stroke-dasharray="" stroke-dashoffset="0" style="mix-blend-mode: normal"><path d="M264.28373,318.61252v-267.22501h123.18203v267.22501z" fill-opacity="0.01" fill="#000000" stroke="none" stroke-width="0" stroke-linecap="butt"/><path d="M256.83997,141.84616c0,-1.65654 -5.80143,-1.9233 -5.80143,-1.9233c0,0 6.69584,-8.87746 7.35214,-11.71771c6.65986,-28.82218 33.98711,-50.41205 66.68631,-50.41205c37.68626,0 68.23702,28.67754 68.23702,64.05307c0,0.66795 3.07779,7.31159 4.43041,10.36634c2.27861,5.14598 3.33715,7.45866 3.33715,7.45866c0,0 -2.64733,-1.66693 -4.82385,-3.56682c-2.14071,-1.86864 -3.80963,-3.97893 -3.99144,-3.01508c-0.43459,2.30399 -0.59561,10.92242 -4.12876,19.9176c-3.49395,8.89536 -10.36285,18.18124 -10.36285,18.18124c0,0 -2.29192,-5.28642 -3.77673,-3.14158c-6.07718,8.77862 -11.2964,15.30957 -11.2964,15.30957c0,0 -2.40974,-4.97718 -4.47106,-3.86765c-9.32569,5.01966 -20.06286,7.91078 -31.65348,7.91078c-12.60656,0 -24.772,-3.56633 -35.27102,-9.52744c-2.72845,-1.54916 -0.82623,4.38789 -0.82623,4.38789c0,0 -7.93843,-5.19677 -13.15685,-11.00681c-6.08759,-6.77777 -9.73663,-14.57056 -12.13914,-18.68944c-0.34082,-0.58431 -4.01999,1.58785 -5.934,2.01254c-2.96082,0.65696 -4.48364,-0.08182 -4.48364,-0.08182c0,0 2.67098,-3.37669 3.55098,-5.15497c0.94364,-1.90688 1.93325,-5.92746 1.93325,-5.92746c0,0 -2.66402,1.90888 -4.05965,2.38502c-1.48595,0.50696 -4.60208,0.57008 -4.60208,0.57008c0,0 4.39229,-5.64339 5.74307,-11.5602c1.27257,-5.57422 -0.4917,-11.39111 -0.4917,-12.96047z" fill="#000000" stroke="#000000" stroke-width="0" stroke-linecap="butt"/><path d="M291.75005,312.5l15.14285,-131.8421l37.78325,-0.15789l13.57389,132z" fill="url(#color-1)" stroke="#000000" stroke-width="0" stroke-linecap="butt"/><path d="M323.62719,180.58797l21.04896,-0.08796l13.57389,132h-32.96113z" fill="url(#color-2)" stroke="#000000" stroke-width="0" stroke-linecap="butt"/><path d="M311.03153,197.40393l28.47619,0.65781l-14.28571,59.78829z" fill="url(#color-3)" stroke="none" stroke-width="0" stroke-linecap="butt"/><path d="M327.29432,230.80504c0,0 1.38745,14.45461 1.89504,19.74272c0.34091,3.55158 0.8548,8.90533 0.8548,8.90533l-4.87225,-1.23607l-4.76785,1.23607l2.8358,-28.54281l1.98425,-1.78957z" fill="url(#color-4)" stroke="none" stroke-width="0" stroke-linecap="butt"/><path d="M311.03153,197.40393l28.47619,0.84493l-14.28571,26.85019z" fill="url(#color-5)" stroke="none" stroke-width="0" stroke-linecap="butt"/><path d="M325.22409,234.39531l-4.82005,-5.23166l4.82005,-5.23166l4.82005,5.23166z" fill="url(#color-6)" stroke="none" stroke-width="0" stroke-linecap="butt"/><path d="M334.25834,264.11942l-9.00256,-5.94422l12.85074,-58.47814l9.00256,5.94422z" data-paper-data="{&quot;index&quot;:null}" fill="url(#color-7)" stroke="none" stroke-width="0" stroke-linecap="butt"/><path d="M303.58912,205.64129l9.00256,-5.94422l12.85075,58.47814l-9.00256,5.94422z" fill="url(#color-8)" stroke="none" stroke-width="0" stroke-linecap="butt"/><path d="M260.83997,141.84616c0,-33.30185 28.7599,-60.29833 64.23702,-60.29833c35.47712,0 64.23702,26.99649 64.23702,60.29833c0,33.30185 -28.7599,60.29833 -64.23702,60.29833c-35.47712,0 -64.23702,-26.99649 -64.23702,-60.29833z" fill="url(#color-9)" stroke="#000000" stroke-width="0" stroke-linecap="butt"/><path d="M260.50663,141.51283c0,-33.30185 28.7599,-60.29833 64.23702,-60.29833c35.47712,0 64.23702,26.99649 64.23702,60.29833c0,0 -7.38383,23.41556 -11.38634,24.10177c-5.72925,0.98225 -6.92937,-6.71695 -9.76531,-6.21041c-6.29577,1.12452 -4.59481,19.61765 -9.28377,19.69556c-3.35345,0.05572 0.15538,-14.32504 -4.8822,-14.96797c-5.01573,-0.64014 -1.19444,8.13779 -6.49313,8.18107c-3.9638,0.03238 -6.01659,-10.54895 -8.76805,-10.61571c-7.82308,-0.18983 -3.34483,12.21379 -7.2607,12.23271c-4.91553,0.02374 -1.70535,-11.74016 -6.34774,-12.11014c-4.43148,-0.35316 -0.4985,7.85748 -4.74962,7.97585c-5.91944,0.16482 -4.33459,-7.90524 -5.87835,-7.73863c-6.05453,0.65346 -4.48598,18.8833 -10.19772,18.58884c-5.21355,-0.11817 -5.3929,-11.07181 -8.27829,-11.90663c-1.05844,-0.30623 -2.40751,2.43269 -3.82919,2.62472c-5.68027,0.76726 -4.35646,-4.83121 -8.72152,-4.93217c-2.71232,-0.06274 -3.11625,-15.68997 -8.8683,-15.88199c-3.09343,-0.10327 -0.33408,10.07015 -5.12987,10.53416c-7.11793,0.68869 -8.63392,-19.43759 -8.63392,-19.57103z" fill="#000000" stroke="#000000" stroke-width="1" stroke-linecap="butt"/><path d="M274.39018,142.27563c0,-12.968 10.51265,-23.48065 23.48065,-23.48065c12.968,0 23.48065,10.51265 23.48065,23.48065c0,12.968 -10.51265,23.48065 -23.48065,23.48065c-12.968,0 -23.48065,-10.51265 -23.48065,-23.48065z" fill="#808080" stroke="#000000" stroke-width="0" stroke-linecap="butt"/><path d="M281.45556,142.66667c0,-9.12808 7.39976,-16.52784 16.52783,-16.52784c9.12808,0 16.52784,7.39977 16.52784,16.52784c0,9.12808 -7.39977,16.52784 -16.52784,16.52784c-9.12808,0 -16.52783,-7.39977 -16.52783,-16.52784z" fill="#808080" stroke="#000000" stroke-width="2" stroke-linecap="butt"/><path d="M312.50705,181.65643h25.10959" fill="none" stroke="#000000" stroke-width="2" stroke-linecap="round"/><path d="M352.12928,165.75627c-12.968,0 -23.48065,-10.51265 -23.48065,-23.48065c0,-12.968 10.51265,-23.48065 23.48065,-23.48065c12.968,0 23.48065,10.51265 23.48065,23.48065c0,12.968 -10.51265,23.48065 -23.48065,23.48065z" data-paper-data="{&quot;index&quot;:null}" fill="#808080" stroke="#000000" stroke-width="0" stroke-linecap="butt"/><path d="M352.01671,159.19451c-9.12807,0 -16.52783,-7.39977 -16.52783,-16.52784c0,-9.12808 7.39977,-16.52784 16.52783,-16.52784c9.12807,0 16.52783,7.39977 16.52783,16.52784c0,9.12808 -7.39977,16.52784 -16.52783,16.52784z" data-paper-data="{&quot;index&quot;:null}" fill="#808080" stroke="#000000" stroke-width="2" stroke-linecap="butt"/><path d="M274.39018,141.9423c0,-12.968 10.51265,-23.48065 23.48065,-23.48065c12.968,0 23.48065,10.51265 23.48065,23.48065c0,0 -46.96131,1.23155 -46.96131,0z" fill="#000000" stroke="#000000" stroke-width="2" stroke-linecap="butt"/><path d="M328.64862,142.27563c0,-12.968 10.51265,-23.48065 23.48065,-23.48065c12.968,0 23.48065,10.51265 23.48065,23.48065c0,1.2138 -46.96131,0 -46.96131,0z" data-paper-data="{&quot;index&quot;:null}" fill="#000000" stroke="#000000" stroke-width="2" stroke-linecap="butt"/><path d="M327.59216,271.44184c0,-0.9665 0.7835,-1.75 1.75,-1.75c0.9665,0 1.75,0.7835 1.75,1.75c0,0.9665 -0.7835,1.75 -1.75,1.75c-0.9665,0 -1.75,-0.7835 -1.75,-1.75z" fill="#1a0000" stroke="none" stroke-width="0.5" stroke-linecap="butt"/><path d="M327.59216,285.44184c0,-0.9665 0.7835,-1.75 1.75,-1.75c0.9665,0 1.75,0.7835 1.75,1.75c0,0.9665 -0.7835,1.75 -1.75,1.75c-0.9665,0 -1.75,-0.7835 -1.75,-1.75z" fill="#1a0000" stroke="none" stroke-width="0.5" stroke-linecap="butt"/><path d="M327.59216,300.77517c0,-0.9665 0.7835,-1.75 1.75,-1.75c0.9665,0 1.75,0.7835 1.75,1.75c0,0.9665 -0.7835,1.75 -1.75,1.75c-0.9665,0 -1.75,-0.7835 -1.75,-1.75z" fill="#1a0000" stroke="none" stroke-width="0.5" stroke-linecap="butt"/><text transform="translate(246.21002,232.62341) scale(0.5,0.5)" font-size="40" xml:space="preserve" fill="#7f7f7f" fill-rule="nonzero" stroke="#000000" stroke-width="1" stroke-linecap="butt" stroke-linejoin="miter" stroke-miterlimit="10" stroke-dasharray="" stroke-dashoffset="0" font-family="Sans Serif" font-weight="normal" text-anchor="start" style="mix-blend-mode: normal"><tspan x="0" dy="0">animation later</tspan></text></g></g></svg>