<svg version="1.1" xmlns="http://www.w3.org/2000/svg" xmlns:xlink="http://www.w3.org/1999/xlink" width="35.12499" height="35.12434" viewBox="0,0,35.12499,35.12434"><g transform="translate(-302.43754,-162.43783)"><g data-paper-data="{&quot;isPaintingLayer&quot;:true}" stroke="none" stroke-miterlimit="10" stroke-dasharray="" stroke-dashoffset="0" style="mix-blend-mode: normal"><path d="M337.56252,169.8317v20.49804c0,4.00745 -3.22497,7.23243 -7.23242,7.23243h-20.5c-3.66107,0 -6.66147,-2.69385 -7.1543,-6.21484c0.7952,3.03475 3.54108,5.26367 6.83204,5.26367h20.0332c3.9166,0 7.07032,-3.15372 7.07032,-7.07031v-20.03321c0,-3.2976 -2.23906,-6.0451 -5.28321,-6.83398c3.52994,0.48496 6.23438,3.49081 6.23438,7.15821z" fill-opacity="0.29839" fill="#000000" fill-rule="evenodd" stroke-width="4.54219" stroke-linecap="round" stroke-linejoin="round"/><path d="M309.50721,162.43783h20.03378c3.9166,0 7.06966,3.15307 7.06966,7.06966v20.03379c0,3.91659 -3.15307,7.06966 -7.06966,7.06966h-20.03378c-3.91659,0 -7.06967,-3.15307 -7.06967,-7.06966v-20.03379c0,-3.91659 3.15308,-7.06966 7.06967,-7.06966z" fill="#ff927f" fill-rule="evenodd" stroke-width="4.43922" stroke-linecap="round" stroke-linejoin="round"/><g fill-rule="nonzero" stroke-width="0" stroke-linecap="butt" stroke-linejoin="miter"><path d="M327.76796,169.57241c-0.26097,0.50856 -1.24387,0.525 -2.19536,0.03673c-0.95149,-0.48827 -1.51127,-1.29636 -1.2503,-1.80491c0.26097,-0.50856 1.24387,-0.525 2.19536,-0.03673c0.95149,0.48827 1.51127,1.29636 1.2503,1.80492z" fill="#c80c11"/><path d="M308.44158,174.87956c0,0 5.22877,-13.13588 17.83307,-6.23248c13.15312,6.80959 5.39697,18.00319 5.39697,18.00319z" fill="#fa3512"/><path d="M303.26994,178.22984l5.17164,-3.35028c0,0 5.73055,1.68173 12.07123,4.99561c6.32122,3.3037 11.15881,6.7751 11.15881,6.7751l-0.00628,6.30116c0,0 -3.62914,-3.72087 -13.40607,-8.68342c-10.62044,-5.39069 -14.98933,-6.03816 -14.98933,-6.03816z" fill="#ca0b12"/><path d="M319.67124,175.62456l3.77008,-3.54414l-0.06545,2.15002l1.15276,-0.46627l-0.4018,4.14683z" fill="#ffffff"/></g></g></g></svg>