<svg version="1.1" xmlns="http://www.w3.org/2000/svg" xmlns:xlink="http://www.w3.org/1999/xlink" width="35.37498" height="35.37434" viewBox="0,0,35.37498,35.37434"><defs><linearGradient x1="239.52409" y1="162.43783" x2="239.52409" y2="196.61094" gradientUnits="userSpaceOnUse" id="color-1"><stop offset="0" stop-color="#000000"/><stop offset="1" stop-color="#081a1b"/></linearGradient><linearGradient x1="250.31712" y1="173.39408" x2="250.31712" y2="182.1549" gradientUnits="userSpaceOnUse" id="color-2"><stop offset="0" stop-color="#000000"/><stop offset="1" stop-color="#1f6266"/></linearGradient><linearGradient x1="250.38556" y1="174.8314" x2="250.38556" y2="180.85446" gradientUnits="userSpaceOnUse" id="color-3"><stop offset="0" stop-color="#14191a"/><stop offset="1" stop-color="#667e80"/></linearGradient><linearGradient x1="228.82574" y1="173.39408" x2="228.82574" y2="182.1549" gradientUnits="userSpaceOnUse" id="color-4"><stop offset="0" stop-color="#000000"/><stop offset="1" stop-color="#1f6266"/></linearGradient><linearGradient x1="228.89418" y1="174.8314" x2="228.89418" y2="180.85446" gradientUnits="userSpaceOnUse" id="color-5"><stop offset="0" stop-color="#14191a"/><stop offset="1" stop-color="#667e80"/></linearGradient><linearGradient x1="237.39286" y1="172.54532" x2="237.38411" y2="175.73487" gradientUnits="userSpaceOnUse" id="color-6"><stop offset="0" stop-color="#1a0000" stop-opacity="0"/><stop offset="1" stop-color="#1a0000"/></linearGradient><linearGradient x1="228.1607" y1="178.36746" x2="231.78782" y2="178.36746" gradientUnits="userSpaceOnUse" id="color-7"><stop offset="0" stop-color="#1a0101" stop-opacity="0"/><stop offset="1" stop-color="#1a0101"/></linearGradient><linearGradient x1="239.67659" y1="175.18363" x2="239.67659" y2="187.56478" gradientUnits="userSpaceOnUse" id="color-8"><stop offset="0" stop-color="#08191a"/><stop offset="1" stop-color="#267b80"/></linearGradient><linearGradient x1="240.76558" y1="171.29236" x2="240.76558" y2="177.07928" gradientUnits="userSpaceOnUse" id="color-9"><stop offset="0" stop-color="#0f3133"/><stop offset="1" stop-color="#08181a"/></linearGradient></defs><g transform="translate(-222.18754,-162.18783)"><g data-paper-data="{&quot;isPaintingLayer&quot;:true}" stroke-miterlimit="10" stroke-dasharray="" stroke-dashoffset="0" style="mix-blend-mode: normal"><path d="M257.56251,169.8317v20.49804c0,4.00745 -3.22497,7.23243 -7.23242,7.23243h-20.5c-3.66107,0 -6.66147,-2.69385 -7.1543,-6.21484c0.7952,3.03475 3.54108,5.26367 6.83204,5.26367h20.0332c3.9166,0 7.07032,-3.15372 7.07032,-7.07031v-20.03321c0,-3.2976 -2.23906,-6.0451 -5.28321,-6.83398c3.52994,0.48496 6.23438,3.49081 6.23438,7.15821z" fill-opacity="0.29839" fill="#000000" fill-rule="evenodd" stroke="none" stroke-width="4.54219" stroke-linecap="round" stroke-linejoin="round"/><path d="M229.50721,162.43783h20.03378c3.9166,0 7.06966,3.15307 7.06966,7.06966v20.03379c0,3.91659 -3.15307,7.06966 -7.06966,7.06966h-20.03378c-3.91659,0 -7.06967,-3.15307 -7.06967,-7.06966v-20.03379c0,-3.91659 3.15308,-7.06966 7.06967,-7.06966z" fill="url(#color-1)" fill-rule="evenodd" stroke="#267a80" stroke-width="0.5" stroke-linecap="round" stroke-linejoin="round"/><path d="M245.93671,177.77449c0,-2.41923 1.96118,-4.38041 4.38041,-4.38041c2.41923,0 4.38041,1.96118 4.38041,4.38041c0,2.41923 -1.96118,4.38041 -4.38041,4.38041c-2.41923,0 -4.38041,-1.96117 -4.38041,-4.38041z" fill="url(#color-2)" fill-rule="nonzero" stroke="#000000" stroke-width="0" stroke-linecap="butt" stroke-linejoin="miter"/><path d="M247.37403,177.84293c0,-1.66322 1.34831,-3.01153 3.01153,-3.01153c1.66322,0 3.01153,1.34831 3.01153,3.01153c0,1.66322 -1.34831,3.01153 -3.01153,3.01153c-1.66322,0 -3.01153,-1.34831 -3.01153,-3.01153z" fill="url(#color-3)" fill-rule="nonzero" stroke="#000000" stroke-width="0" stroke-linecap="butt" stroke-linejoin="miter"/><path d="M224.44533,177.77449c0,-2.41923 1.96118,-4.38041 4.38041,-4.38041c2.41923,0 4.38041,1.96118 4.38041,4.38041c0,2.41923 -1.96118,4.38041 -4.38041,4.38041c-2.41923,0 -4.38041,-1.96117 -4.38041,-4.38041z" fill="url(#color-4)" fill-rule="nonzero" stroke="#000000" stroke-width="0" stroke-linecap="butt" stroke-linejoin="miter"/><path d="M225.88265,177.84293c0,-1.66322 1.34831,-3.01153 3.01153,-3.01153c1.66322,0 3.01153,1.34831 3.01153,3.01153c0,1.66322 -1.34831,3.01153 -3.01153,3.01153c-1.66322,0 -3.01153,-1.34831 -3.01153,-3.01153z" fill="url(#color-5)" fill-rule="nonzero" stroke="#000000" stroke-width="0" stroke-linecap="butt" stroke-linejoin="miter"/><path d="M237.60634,183.10793l-1.46383,-13.8195c0,0 -0.07026,-0.58144 0.65395,-0.7041c0.72269,-0.1224 0.75932,0.56359 0.75932,0.56359l1.64849,15.51104z" fill="#5d5f60" fill-rule="nonzero" stroke="none" stroke-width="0" stroke-linecap="butt" stroke-linejoin="miter"/><path d="M236.8343,175.73337l-0.30978,-3.00322l1.4106,-0.18333l0.31716,3.06437z" fill="url(#color-6)" fill-rule="nonzero" stroke="none" stroke-width="0" stroke-linecap="butt" stroke-linejoin="miter"/><path d="M233.10688,181.66712l-10.02316,-7.70346l0.0231,-1.77452l12.63312,9.70004z" fill="#5d5f60" fill-rule="nonzero" stroke="none" stroke-width="0" stroke-linecap="butt" stroke-linejoin="miter"/><path d="M231.03998,180.07857l-2.87929,-2.21292l0.76414,-1.20929l2.86299,2.24971z" fill="url(#color-7)" fill-rule="nonzero" stroke="none" stroke-width="0" stroke-linecap="butt" stroke-linejoin="miter"/><path d="M226.4867,187.56478c0,-6.83792 5.90532,-12.38115 13.18989,-12.38115c7.28457,0 13.18989,5.54323 13.18989,12.38115" fill="url(#color-8)" fill-rule="nonzero" stroke="#000000" stroke-width="0" stroke-linecap="butt" stroke-linejoin="miter"/><path d="M238.85427,176.8168c0,0 -0.06505,-2.29754 0.88006,-3.87856c1.3632,-2.28041 2.94351,-1.52641 2.94351,-1.52641c0,0 -1.36613,1.39602 -1.8443,2.27236c-0.45288,0.82999 -0.45133,3.39509 -0.45133,3.39509" fill="url(#color-9)" fill-rule="nonzero" stroke="#000000" stroke-width="0" stroke-linecap="round" stroke-linejoin="miter"/></g></g></svg>