<svg version="1.1" xmlns="http://www.w3.org/2000/svg" xmlns:xlink="http://www.w3.org/1999/xlink" width="160.33334" height="272.84416" viewBox="0,0,160.33334,272.84416"><defs><linearGradient x1="320.00002" y1="175.50001" x2="320.00002" y2="307.50001" gradientUnits="userSpaceOnUse" id="color-1"><stop offset="0" stop-color="#000000"/><stop offset="1" stop-color="#212121"/></linearGradient><linearGradient x1="319.05208" y1="191.33887" x2="319.05208" y2="287.08887" gradientUnits="userSpaceOnUse" id="color-2"><stop offset="0" stop-color="#000000"/><stop offset="1" stop-color="#363636"/></linearGradient><linearGradient x1="308.05208" y1="194.70183" x2="308.05208" y2="311.28515" gradientUnits="userSpaceOnUse" id="color-3"><stop offset="0" stop-color="#000000"/><stop offset="1" stop-color="#121212"/></linearGradient><linearGradient x1="330.55208" y1="194.70183" x2="330.55208" y2="311.28515" gradientUnits="userSpaceOnUse" id="color-4"><stop offset="0" stop-color="#000000"/><stop offset="1" stop-color="#121212"/></linearGradient><linearGradient x1="320.41031" y1="76.88117" x2="320.41031" y2="197.47783" gradientUnits="userSpaceOnUse" id="color-5"><stop offset="0" stop-color="#1a1a1a"/><stop offset="1" stop-color="#7f7f7f"/></linearGradient></defs><g transform="translate(-238.26041,-40.76836)"><g data-paper-data="{&quot;isPaintingLayer&quot;:true}" fill-rule="nonzero" stroke-linejoin="miter" stroke-miterlimit="10" stroke-dasharray="" stroke-dashoffset="0" style="mix-blend-mode: normal"><path d="M259.28371,313.61252v-267.22501h123.18203v267.22501z" fill-opacity="0.01" fill="#000000" stroke="none" stroke-width="0" stroke-linecap="butt"/><path d="M385.92709,110.45183c0,24.48463 -30.37002,19 -67.83333,19c-37.46332,0 -67.83334,5.48462 -67.83334,-19c0,-24.48463 2.37806,-70.69267 67.83334,-69.66667c63.79665,1 67.83333,45.18204 67.83333,69.66667z" fill="#3b383b" stroke="none" stroke-width="0" stroke-linecap="butt"/><path d="M398.59375,116.45183c0,10.40136 -35.89184,18.83333 -80.16667,18.83333c-44.27483,0 -80.16667,-8.43197 -80.16667,-18.83333c0,-10.40136 35.89184,-18.83334 80.16667,-18.83334c44.27483,0 80.16667,8.43197 80.16667,18.83334z" fill="#222023" stroke="none" stroke-width="0" stroke-linecap="butt"/><path d="M251.83996,139.84619c0,-1.65654 -5.80143,-1.9233 -5.80143,-1.9233c0,0 6.69584,-8.87746 7.35214,-11.71771c0.84388,-3.65211 1.85909,-7.28133 3.07552,-10.83592c0.24489,-0.71562 128.10081,-0.06276 128.43224,1.0351c2.27925,7.54993 3.41557,15.50087 3.41557,23.44184c0,0.66795 3.07779,7.31159 4.43041,10.36634c2.27861,5.14598 3.33715,7.45866 3.33715,7.45866c0,0 -2.64733,-1.66693 -4.82385,-3.56682c-2.14071,-1.86864 -3.80963,-3.97893 -3.99144,-3.01508c-0.43459,2.30399 -0.59561,10.92242 -4.12876,19.9176c-3.49395,8.89536 -10.36285,18.18124 -10.36285,18.18124c0,0 -2.29192,-5.28642 -3.77673,-3.14158c-6.07718,8.77862 -11.2964,15.30957 -11.2964,15.30957c0,0 -2.40974,-4.97718 -4.47106,-3.86765c-9.32569,5.01966 -20.06286,7.91078 -31.65348,7.91078c-12.60656,0 -24.772,-3.56633 -35.27102,-9.52744c-2.72845,-1.54916 -0.82623,4.38789 -0.82623,4.38789c0,0 -7.93843,-5.19677 -13.15685,-11.00681c-6.08759,-6.77777 -9.73663,-14.57056 -12.13914,-18.68944c-0.34082,-0.58431 -4.01999,1.58785 -5.934,2.01254c-2.96082,0.65696 -4.48364,-0.08182 -4.48364,-0.08182c0,0 2.67098,-3.37669 3.55098,-5.15497c0.94364,-1.90688 1.93325,-5.92746 1.93325,-5.92746c0,0 -2.66402,1.90888 -4.05965,2.38502c-1.48595,0.50696 -4.60208,0.57008 -4.60208,0.57008c0,0 4.39229,-5.64339 5.74307,-11.5602c1.27257,-5.57422 -0.4917,-11.39111 -0.4917,-12.96047z" fill="#000000" stroke="#000000" stroke-width="0" stroke-linecap="butt"/><path d="M286.75003,307.5l15.14285,-131.8421l37.78325,-0.15789l13.57389,132z" fill="url(#color-1)" stroke="#000000" stroke-width="0" stroke-linecap="butt"/><path d="M308.30208,240.83887l-1.75,-49.5h25l-1.875,49.625l-10.375,46.125z" fill="url(#color-2)" stroke="none" stroke-width="0" stroke-linecap="butt"/><path d="M307.01042,310.78515l-1.97975,-37.34512c0,0 2.73304,-26.62858 2.45114,-32.66993c-0.41934,-8.98704 -10.97139,-21.06827 -10.97139,-21.06827l10.58333,-25c0,0 3.86856,12.28994 4.83038,21.27861c0.56131,5.24572 -1.89459,25.00775 -1.89459,25.00775l9.05066,33.27387l0.51355,37.02311z" fill="url(#color-3)" stroke="none" stroke-width="0" stroke-linecap="butt"/><path d="M319.01042,311.28515l0.01355,-37.02311l9.55066,-33.27387c0,0 -2.45589,-19.76202 -1.89459,-25.00774c0.96182,-8.98866 4.83038,-21.2786 4.83038,-21.2786l10.58333,25c0,0 -10.55205,12.08123 -10.97139,21.06828c-0.2819,6.04135 2.45114,32.66993 2.45114,32.66993l-1.97975,37.34512z" data-paper-data="{&quot;index&quot;:null}" fill="url(#color-4)" stroke="none" stroke-width="0" stroke-linecap="butt"/><path d="M256.17329,137.1795c0,-7.78006 1.56969,-15.21597 4.42803,-22.04391c0.57159,-1.3654 119.84168,0.50552 120.29148,1.68263c2.43044,6.36053 3.75454,13.21576 3.75454,20.36129c0,33.30185 -28.7599,60.29833 -64.23702,60.29833c-35.47712,0 -64.23702,-26.99649 -64.23702,-60.29833z" fill="url(#color-5)" stroke="#000000" stroke-width="0" stroke-linecap="butt"/><path d="M385.26042,116.45183c0,6.90586 -29.9223,12.50416 -66.83333,12.50416c-36.91103,0 -66.83333,-5.5983 -66.83333,-12.50416c0,-6.90586 29.9223,-12.50416 66.83333,-12.50416c36.91103,0 66.83333,5.5983 66.83333,12.50416z" fill="#000000" stroke="none" stroke-width="0" stroke-linecap="butt"/><path d="M254.83995,136.84616c0,-7.86567 2.41693,-14.66079 6.59287,-20.38536c0.87287,-1.19657 116.74373,-1.84897 118.12013,0.0437c4.15639,5.71545 5.76104,12.496 5.76104,20.34166c0,11.52987 -3.50113,22.30391 -9.57433,31.4634c-0.29787,0.44923 -27.95013,1.52919 -55.81608,1.4113c-27.65347,-0.11698 -55.52254,-1.42881 -55.74391,-1.76791c-5.92867,-9.08202 -9.33972,-19.72622 -9.33972,-31.1068z" fill="#000000" stroke="#000000" stroke-width="0" stroke-linecap="butt"/><path d="M333.84288,177.26355c0,0 -3.41412,8.18267 -14.21721,8.53229c-8.90559,0.28824 -14.14841,-8.37158 -14.14841,-8.37158c0,0 9.4982,-3.37488 14.69799,-3.37488c5.05487,0 13.66763,3.21417 13.66763,3.21417z" fill="#7f7f7f" stroke="#000000" stroke-width="2" stroke-linecap="round"/><path d="M330.84841,180.16683c0,0 -6.74832,0.33333 -10.33333,0.33333c-3.89006,0 -12.16667,-0.33333 -12.16667,-0.33333" fill="none" stroke="#000000" stroke-width="1" stroke-linecap="round"/><g stroke="none" stroke-width="0" stroke-linecap="butt"><path d="M319.0168,135.87857c0,0 9.55044,-8.34965 19.66638,-6.91429c10.11594,1.43536 16.96669,12.11219 16.96669,12.11219c0,0 -9.55044,8.34965 -19.66638,6.91429c-10.11594,-1.43536 -16.96669,-12.11219 -16.96669,-12.11219z" fill="#7f7f7f"/><path d="M326.00264,136.8698c0.88792,-6.25777 6.68065,-10.61089 12.93842,-9.72297c6.25777,0.88792 10.61088,6.68065 9.72296,12.93842c-0.88792,6.25777 -6.68064,10.61089 -12.93841,9.72297c-6.25777,-0.88792 -10.61089,-6.68065 -9.72297,-12.93842z" fill="#000000"/></g><g data-paper-data="{&quot;index&quot;:null}" stroke="none" stroke-width="0" stroke-linecap="butt"><path d="M291.68318,146.99076c-10.11594,1.43536 -19.66638,-6.91429 -19.66638,-6.91429c0,0 6.85075,-10.67683 16.96669,-12.11219c10.11594,-1.43536 19.66638,6.91429 19.66638,6.91429c0,0 -6.85075,10.67683 -16.96669,12.11219z" fill="#7f7f7f"/><path d="M291.94106,148.80821c-6.25777,0.88792 -12.0505,-3.4652 -12.93842,-9.72297c-0.88792,-6.25777 3.4652,-12.0505 9.72297,-12.93842c6.25777,-0.88792 12.0505,3.4652 12.93842,9.72297c0.88792,6.25777 -3.4652,12.0505 -9.72297,12.93842z" fill="#000000"/></g><g data-paper-data="{&quot;index&quot;:null}" stroke="none" stroke-width="0" stroke-linecap="butt"><path d="M314.34456,126.5244c-9.4593,0.05142 -17.17595,-8.8026 -17.17595,-8.8026c0,0 7.61992,-8.93741 17.07922,-8.98883c9.4593,-0.05142 17.17595,8.80261 17.17595,8.80261c0,0 -7.61992,8.93741 -17.07922,8.98883z" fill="#7f7f7f"/><path d="M314.3538,128.22388c-5.85157,0.03181 -10.62099,-4.68604 -10.6528,-10.53761c-0.03181,-5.85157 4.68602,-10.621 10.53759,-10.6528c5.85157,-0.03181 10.62099,4.68604 10.65281,10.53761c0.03181,5.85157 -4.68603,10.621 -10.5376,10.65281z" fill="#000000"/></g><g data-paper-data="{&quot;index&quot;:null}" stroke="none" stroke-width="0" stroke-linecap="butt"><path d="M359.41278,163.10696c-7.95207,-0.55567 -13.87593,-8.48441 -13.87593,-8.48441c0,0 6.96898,-7.02783 14.92105,-6.47216c7.95207,0.55567 13.87593,8.48441 13.87593,8.48441c0,0 -6.96899,7.02782 -14.92105,6.47216z" fill="#7f7f7f"/><path d="M359.31295,164.53565c-4.91919,-0.34374 -8.62832,-4.61019 -8.28458,-9.52937c0.34374,-4.91918 4.61018,-8.62832 9.52936,-8.28458c4.91919,0.34374 8.62832,4.61019 8.28458,9.52937c-0.34374,4.91918 -4.61018,8.62832 -9.52936,8.28458z" fill="#000000"/></g><g data-paper-data="{&quot;index&quot;:null}" stroke="none" stroke-width="0" stroke-linecap="butt"><path d="M280.86708,164.30856c-6.11111,-0.42702 -10.66357,-6.52022 -10.66357,-6.52022c0,0 5.35563,-5.40084 11.46675,-4.97382c6.11111,0.42702 10.66357,6.52022 10.66357,6.52022c0,0 -5.35563,5.40084 -11.46675,4.97382z" fill="#7f7f7f"/><path d="M280.79037,165.40651c-3.78037,-0.26416 -6.63081,-3.5429 -6.36665,-7.32327c0.26416,-3.78036 3.54289,-6.63081 7.32326,-6.36665c3.78037,0.26416 6.63081,3.5429 6.36665,7.32327c-0.26416,3.78036 -3.5429,6.63081 -7.32326,6.36665z" fill="#000000"/></g><g data-paper-data="{&quot;index&quot;:null}" stroke="none" stroke-width="0" stroke-linecap="butt"><path d="M276.62023,127.49513c-5.95504,1.43719 -12.13413,-2.99798 -12.13413,-2.99798c0,0 3.47596,-6.76533 9.431,-8.20252c5.95504,-1.43719 12.13414,2.99798 12.13414,2.99798c0,0 -3.47596,6.76533 -9.43101,8.20252z" fill="#7f7f7f"/><path d="M276.87845,128.56503c-3.68382,0.88906 -7.39087,-1.37655 -8.27992,-5.06037c-0.88905,-3.68382 1.37655,-7.39087 5.06037,-8.27992c3.68382,-0.88905 7.39087,1.37656 8.27993,5.06038c0.88905,3.68382 -1.37655,7.39086 -5.06038,8.27991z" fill="#000000"/></g><g data-paper-data="{&quot;index&quot;:null}" stroke="none" stroke-width="0" stroke-linecap="butt"><path d="M351.15277,129.29261c0,0 6.17909,-4.43517 12.13414,-2.99798c5.95504,1.43719 9.431,8.20251 9.431,8.20251c0,0 -6.17909,4.43517 -12.13413,2.99798c-5.95504,-1.43719 -9.43101,-8.20252 -9.43101,-8.20252z" fill="#7f7f7f"/><path d="M355.26519,130.28511c0.88905,-3.68382 4.5961,-5.94944 8.27992,-5.06038c3.68382,0.88905 5.94943,4.5961 5.06037,8.27992c-0.88905,3.68382 -4.5961,5.94943 -8.27992,5.06037c-3.68382,-0.88905 -5.94943,-4.59609 -5.06038,-8.27991z" fill="#000000"/></g><g data-paper-data="{&quot;index&quot;:null}" stroke="none" stroke-width="0" stroke-linecap="butt"><path d="M336.18039,109.29548c0,0 5.76483,-0.10676 8.86151,3.35389c3.09668,3.46065 2.35258,9.17825 2.35258,9.17825c0,0 -5.76483,0.10677 -8.86151,-3.35388c-3.09668,-3.46065 -2.35258,-9.17826 -2.35258,-9.17826z" fill="#7f7f7f"/><path d="M338.31889,111.68533c2.14078,-1.91563 5.42914,-1.73311 7.34476,0.40767c1.91562,2.14078 1.73311,5.42913 -0.40767,7.34476c-2.14078,1.91563 -5.42914,1.73311 -7.34476,-0.40767c-1.91562,-2.14078 -1.73311,-5.42914 0.40767,-7.34476z" fill="#000000"/></g><g data-paper-data="{&quot;index&quot;:null}" stroke="none" stroke-width="0" stroke-linecap="butt"><path d="M305.36697,156.27476c0,0 3.81793,-6.57839 9.83877,-7.70867c6.02085,-1.13028 11.96465,3.61558 11.96465,3.61558c0,0 -3.81793,6.57839 -9.83877,7.70867c-6.02085,1.13028 -11.96464,-3.61558 -11.96464,-3.61558z" fill="#7f7f7f"/><path d="M309.52483,155.49422c-0.69919,-3.72452 1.75332,-7.31066 5.47785,-8.00986c3.72453,-0.6992 7.31065,1.75332 8.00984,5.47784c0.69919,3.72453 -1.75332,7.31066 -5.47784,8.00985c-3.72452,0.6992 -7.31065,-1.75331 -8.00985,-5.47784z" fill="#000000"/></g><g data-paper-data="{&quot;index&quot;:null}" stroke="none" stroke-width="0" stroke-linecap="butt"><path d="M263.96304,143.49418c0,0 4.34055,-0.58862 6.98219,1.74976c2.64165,2.33839 2.58406,6.71829 2.58406,6.71829c0,0 -4.34055,0.58862 -6.9822,-1.74977c-2.64165,-2.33839 -2.58406,-6.71828 -2.58406,-6.71828z" fill="#7f7f7f"/><path d="M265.78729,145.10902c1.44654,-1.63414 3.94392,-1.78622 5.57806,-0.33968c1.63414,1.44654 1.78622,3.94391 0.33968,5.57805c-1.44654,1.63414 -3.94392,1.78622 -5.57805,0.33968c-1.63414,-1.44654 -1.78622,-3.94392 -0.33968,-5.57805z" fill="#000000"/></g><g data-paper-data="{&quot;index&quot;:null}" stroke="none" stroke-width="0" stroke-linecap="butt"><path d="M261.21791,137.59546c0,0 0.81277,-4.30421 3.86593,-6.07184c3.05317,-1.76763 7.19057,-0.32932 7.19057,-0.32932c0,0 -0.81277,4.30421 -3.86594,6.07184c-3.05317,1.76763 -7.19057,0.32932 -7.19057,0.32932z" fill="#7f7f7f"/><path d="M263.32636,136.37477c-1.09347,-1.88871 -0.4488,-4.30623 1.43991,-5.3997c1.88871,-1.09347 4.30623,-0.4488 5.39969,1.43991c1.09347,1.88871 0.4488,4.30623 -1.43991,5.3997c-1.88871,1.09347 -4.30623,0.4488 -5.3997,-1.43991z" fill="#000000"/></g><g data-paper-data="{&quot;index&quot;:null}" stroke="none" stroke-width="0" stroke-linecap="butt"><path d="M329.25715,161.02272c0,0 1.2419,-4.20053 4.4575,-5.65185c3.21559,-1.45132 7.1872,0.39617 7.1872,0.39617c0,0 -1.24191,4.20054 -4.4575,5.65185c-3.21559,1.45132 -7.1872,-0.39617 -7.1872,-0.39617z" fill="#7f7f7f"/><path d="M331.47777,160.02048c-0.89779,-1.98918 -0.01305,-4.32954 1.97613,-5.22733c1.98918,-0.89779 4.32953,-0.01304 5.22733,1.97614c0.89779,1.98918 0.01305,4.32953 -1.97613,5.22733c-1.98918,0.89779 -4.32953,0.01305 -5.22733,-1.97613z" fill="#000000"/></g><g data-paper-data="{&quot;index&quot;:null}" stroke="none" stroke-width="0" stroke-linecap="butt"><path d="M352.00818,115.98973c0,0 4.18831,-1.28254 7.17321,0.59807c2.98491,1.88061 3.6361,6.21221 3.6361,6.21221c0,0 -4.18831,1.28253 -7.17322,-0.59808c-2.98491,-1.88061 -3.63609,-6.21221 -3.63609,-6.21221z" fill="#7f7f7f"/><path d="M354.06949,117.28844c1.16335,-1.84648 3.6033,-2.40027 5.44978,-1.23691c1.84648,1.16335 2.40026,3.6033 1.23691,5.44978c-1.16335,1.84648 -3.6033,2.40026 -5.44978,1.23691c-1.84648,-1.16335 -2.40026,-3.6033 -1.23691,-5.44978z" fill="#000000"/></g><g data-paper-data="{&quot;index&quot;:null}" stroke="none" stroke-width="0" stroke-linecap="butt"><path d="M284.71782,115.30641c0,0 2.54791,-3.563 6.06137,-3.88233c3.51346,-0.31933 6.66199,2.72592 6.66199,2.72592c0,0 -2.54792,3.563 -6.06138,3.88233c-3.51346,0.31933 -6.66199,-2.72592 -6.66199,-2.72592z" fill="#7f7f7f"/><path d="M287.14414,115.0859c-0.19754,-2.17344 1.40424,-4.09551 3.57768,-4.29305c2.17344,-0.19754 4.0955,1.40424 4.29304,3.57768c0.19754,2.17344 -1.40424,4.0955 -3.57768,4.29305c-2.17344,0.19754 -4.0955,-1.40424 -4.29305,-3.57768z" fill="#000000"/></g><g data-paper-data="{&quot;index&quot;:null}" stroke="none" stroke-width="0" stroke-linecap="butt"><path d="M292.38449,150.63975c0,0 2.54791,-3.563 6.06137,-3.88233c3.51346,-0.31933 6.66199,2.72592 6.66199,2.72592c0,0 -2.54792,3.563 -6.06138,3.88233c-3.51346,0.31933 -6.66199,-2.72592 -6.66199,-2.72592z" fill="#7f7f7f"/><path d="M294.8108,150.41923c-0.19754,-2.17344 1.40424,-4.09551 3.57768,-4.29305c2.17344,-0.19754 4.0955,1.40424 4.29304,3.57768c0.19754,2.17344 -1.40424,4.0955 -3.57768,4.29305c-2.17344,0.19754 -4.0955,-1.40424 -4.29305,-3.57768z" fill="#000000"/></g><g data-paper-data="{&quot;index&quot;:null}" stroke="none" stroke-width="0" stroke-linecap="butt"><path d="M295.05115,162.63975c0,0 2.54791,-3.563 6.06137,-3.88233c3.51346,-0.31933 6.66199,2.72592 6.66199,2.72592c0,0 -2.54792,3.563 -6.06138,3.88233c-3.51346,0.31933 -6.66199,-2.72592 -6.66199,-2.72592z" fill="#7f7f7f"/><path d="M297.47747,162.41923c-0.19754,-2.17344 1.40424,-4.09551 3.57768,-4.29305c2.17344,-0.19754 4.0955,1.40424 4.29304,3.57768c0.19754,2.17344 -1.40424,4.0955 -3.57768,4.29305c-2.17344,0.19754 -4.0955,-1.40424 -4.29305,-3.57768z" fill="#000000"/></g><g data-paper-data="{&quot;index&quot;:null}" stroke="none" stroke-width="0" stroke-linecap="butt"><path d="M363.05115,143.58919c0,0 3.08192,-4.30976 7.33176,-4.69602c4.24984,-0.38626 8.05827,3.29724 8.05827,3.29724c0,0 -3.08193,4.30976 -7.33177,4.69603c-4.24984,0.38626 -8.05826,-3.29725 -8.05826,-3.29725z" fill="#7f7f7f"/><path d="M365.986,143.32246c-0.23894,-2.62897 1.69855,-4.95388 4.32752,-5.19282c2.62897,-0.23894 4.95387,1.69855 5.19281,4.32752c0.23894,2.62897 -1.69855,4.95387 -4.32752,5.19282c-2.62897,0.23894 -4.95387,-1.69855 -5.19282,-4.32752z" fill="#000000"/></g><g data-paper-data="{&quot;index&quot;:null}" stroke="none" stroke-width="0" stroke-linecap="butt"><path d="M313.66343,141.55697c0,0 -2.78102,-3.07574 -2.36713,-6.38972c0.41389,-3.31398 3.86594,-5.61128 3.86594,-5.61128c0,0 2.78102,3.07575 2.36713,6.38973c-0.41389,3.31398 -3.86595,5.61128 -3.86595,5.61128z" fill="#7f7f7f"/><path d="M313.94925,139.26841c-2.05005,-0.25603 -3.50439,-2.12547 -3.24836,-4.17552c0.25603,-2.05005 2.12548,-3.50438 4.17552,-3.24835c2.05005,0.25603 3.50439,2.12547 3.24835,4.17552c-0.25603,2.05005 -2.12547,3.50439 -4.17552,3.24835z" fill="#000000"/></g></g></g></svg>