<svg version="1.1" xmlns="http://www.w3.org/2000/svg" xmlns:xlink="http://www.w3.org/1999/xlink" width="35.12499" height="35.12434" viewBox="0,0,35.12499,35.12434"><g transform="translate(-302.43754,-162.43783)"><g data-paper-data="{&quot;isPaintingLayer&quot;:true}" stroke-miterlimit="10" stroke-dasharray="" stroke-dashoffset="0" style="mix-blend-mode: normal"><path d="M337.56252,169.8317v20.49804c0,4.00745 -3.22497,7.23243 -7.23242,7.23243h-20.5c-3.66107,0 -6.66147,-2.69385 -7.1543,-6.21484c0.7952,3.03475 3.54108,5.26367 6.83204,5.26367h20.0332c3.9166,0 7.07032,-3.15372 7.07032,-7.07031v-20.03321c0,-3.2976 -2.23906,-6.0451 -5.28321,-6.83398c3.52994,0.48496 6.23438,3.49081 6.23438,7.15821z" fill-opacity="0.29839" fill="#000000" fill-rule="evenodd" stroke="none" stroke-width="4.54219" stroke-linecap="round" stroke-linejoin="round"/><path d="M309.50721,162.43783h20.03378c3.9166,0 7.06966,3.15307 7.06966,7.06966v20.03379c0,3.91659 -3.15307,7.06966 -7.06966,7.06966h-20.03378c-3.91659,0 -7.06967,-3.15307 -7.06967,-7.06966v-20.03379c0,-3.91659 3.15308,-7.06966 7.06967,-7.06966z" fill="#94fff8" fill-rule="evenodd" stroke="none" stroke-width="4.43922" stroke-linecap="round" stroke-linejoin="round"/><g fill-rule="nonzero" stroke-width="0" stroke-linecap="butt" stroke-linejoin="miter"><g data-paper-data="{&quot;index&quot;:null}"><path d="M325.71069,189.85019l-7.39362,-21.12583l8.00092,-1.34376l7.39362,21.12583z" fill="#000000" stroke="none"/><path d="M323.19001,179.62231l-3.28606,-9.38926l6.00069,-1.00782l3.28605,9.38926z" fill="#94fff9" stroke="#000000"/></g><g data-paper-data="{&quot;index&quot;:null}"><path d="M313.08193,192.01936l-7.39362,-21.12583l8.00092,-1.34376l7.39362,21.12583z" fill="#000000" stroke="none"/><path d="M310.56126,181.79147l-3.28606,-9.38926l6.00069,-1.00782l3.28605,9.38926z" fill="#94fff9" stroke="#000000"/></g></g></g></g></svg>