<svg version="1.1" xmlns="http://www.w3.org/2000/svg" xmlns:xlink="http://www.w3.org/1999/xlink" width="730.78687" height="382.68" viewBox="0,0,730.78687,382.68"><g transform="translate(28.21219,7.83587)"><g data-paper-data="{&quot;isPaintingLayer&quot;:true}" fill-rule="nonzero" stroke-linecap="butt" stroke-linejoin="miter" stroke-miterlimit="10" stroke-dasharray="" stroke-dashoffset="0" style="mix-blend-mode: normal"><path d="M642.52348,-7.83586v310.99511h-643.53817v-310.99511z" data-paper-data="{&quot;index&quot;:null}" fill="#00eaff" stroke="none" stroke-width="NaN"/><path d="M341.89555,249.29467c0,33.58488 -66.21279,29.81081 -147.89039,29.81081c-81.6776,0 -147.89039,3.77407 -147.89039,-29.81081c0,-33.58488 66.21279,-91.81081 147.89039,-91.81081c81.67761,0 147.89039,58.22593 147.89039,91.81081z" fill="#00800b" stroke="none" stroke-width="0"/><path d="M595.89555,249.29467c0,33.58488 -62.85492,37.81081 -140.39039,37.81081c-77.53547,0 -140.39039,-4.22593 -140.39039,-37.81081c0,-33.58488 62.85492,-83.81081 140.39039,-83.81081c77.53547,0 140.39039,50.22593 140.39039,83.81081z" fill="#00b30f" stroke="none" stroke-width="0"/><path d="M274.49616,252.29467c0,33.58488 -62.85492,60.81081 -140.39039,60.81081c-77.53547,0 -140.39039,-27.22593 -140.39039,-60.81081c0,-33.58488 62.85492,-60.81081 140.39039,-60.81081c77.53547,0 140.39039,27.22593 140.39039,60.81081z" fill="#00e613" stroke="none" stroke-width="0"/><path d="M673.89555,252.29467c0,33.58488 -62.85492,60.81081 -140.39039,60.81081c-77.53547,0 -140.39039,-27.22593 -140.39039,-60.81081c0,-33.58488 62.85492,-60.81081 140.39039,-60.81081c77.53547,0 140.39039,27.22593 140.39039,60.81081z" fill="#00e613" stroke="none" stroke-width="0"/><path d="M460.68234,252.29466c0,33.58489 -62.85492,60.81082 -140.39039,60.81082c-77.53547,0 -140.39039,-27.22593 -140.39039,-60.81082c0,-33.58488 62.85492,-60.81081 140.39039,-60.81081c77.53547,0 140.39039,27.22593 140.39039,60.81081z" fill="#00ff15" stroke="none" stroke-width="0"/><g fill="#ffffff" stroke="none" stroke-width="0"><path d="M99.55604,136.19c0,8.65246 -15.81927,15.66667 -35.33333,15.66667c-19.51406,0 -35.33334,-7.01421 -35.33334,-15.66667c0,-8.65246 15.81928,-15.66667 35.33334,-15.66667c19.51406,0 35.33333,7.01421 35.33333,15.66667z"/><path d="M56.22272,143.35666c0,3.95804 -8.28273,7.16666 -18.5,7.16666c-10.21727,0 -18.5,-3.20862 -18.5,-7.16666c0,-3.95804 8.28273,-7.16667 18.5,-7.16667c10.21727,0 18.5,3.20863 18.5,7.16667z"/><path d="M95.38937,140.19c9.1127,0 16.5,2.68629 16.5,6c0,3.31371 -7.3873,6 -16.5,6c-9.1127,0 -16.5,-2.68629 -16.5,-6c0,-3.31371 7.3873,-6 16.5,-6z"/><path d="M64.22272,154.52333c-27.24605,0 -49.33334,-1.64161 -49.33334,-3.66666c0,-2.02505 22.08729,-3.66667 49.33334,-3.66667c27.24605,0 49.33333,1.64162 49.33333,3.66667c0,2.02504 -22.08728,3.66666 -49.33333,3.66666z"/></g><g fill="#ffffff" stroke="none" stroke-width="0"><path d="M603.53422,87.03173c0,7.13224 -16.83829,12.91406 -37.60937,12.91406c-20.77108,0 -37.60938,-5.78182 -37.60938,-12.91406c0,-7.13224 16.83829,-12.91406 37.60938,-12.91406c20.77108,0 37.60938,5.78182 37.60938,12.91406z"/><path d="M536.24515,99.49267c-12.38758,0 -22.42969,-2.33302 -22.42969,-5.21094c0,-2.87792 10.04211,-5.21094 22.42969,-5.21094c12.38758,0 22.42969,2.33302 22.42969,5.21094c0,2.87792 -10.04211,5.21094 -22.42969,5.21094z"/><path d="M585.86234,92.69579c0,-3.75381 5.57895,-6.79687 12.46094,-6.79687c6.88199,0 12.46094,3.04307 12.46094,6.79688c0,3.75381 -5.57895,6.79688 -12.46094,6.79688c-6.88199,0 -12.46094,-3.04307 -12.46094,-6.79687z"/><path d="M612.14359,98.35985c0,2.62766 -24.14165,4.75781 -53.92188,4.75781c-29.78024,0 -53.92188,-2.13014 -53.92188,-4.75781c0,-2.62766 24.14165,-4.75781 53.92188,-4.75781c29.78023,0 53.92187,2.13014 53.92187,4.75781z"/></g><g fill="#ffffff" stroke="none" stroke-width="0"><path d="M493.0024,37.24508c0,6.90356 -16.11775,12.5 -36,12.5c-19.88225,0 -36,-5.59644 -36,-12.5c0,-6.90356 16.11775,-12.5 36,-12.5c19.88225,0 36,5.59644 36,12.5z"/><path d="M445.50239,42.49509c0,3.45178 -6.71573,6.25 -15,6.25c-8.28427,0 -15,-2.79822 -15,-6.25c0,-3.45178 6.71573,-6.25 15,-6.25c8.28427,0 15,2.79822 15,6.25z"/><path d="M483.2524,36.24508c7.31777,0 13.25,2.46243 13.25,5.5c0,3.03757 -5.93223,5.5 -13.25,5.5c-7.31778,0 -13.25,-2.46243 -13.25,-5.5c0,-3.03757 5.93223,-5.5 13.25,-5.5z"/><path d="M449.0024,51.24509c-24.57667,0 -44.5,-1.90279 -44.5,-4.25c0,-2.34721 19.92333,-4.25 44.5,-4.25c24.57667,0 44.5,1.90279 44.5,4.25c0,2.34721 -19.92333,4.25 -44.5,4.25z"/></g><path d="M-28.21219,374.84414v-125.06459h730.78687v125.06459z" fill="#00ff15" stroke="none" stroke-width="0"/><g><path d="M37.14032,61.67559c0,0 24.85513,-15.05461 34.43929,-24.05112c8.72387,-8.18896 20.72786,-27.73345 20.72786,-27.73345c0,0 11.02348,22.5897 20.06755,31.07923c9.33571,8.76329 35.09958,20.70533 35.09958,20.70533c0,0 -22.49595,11.3074 -31.49037,19.75032c-9.37856,8.80351 -23.67677,32.03423 -23.67677,32.03423c0,0 -11.64187,-22.88303 -20.71675,-31.40148c-9.30826,-8.73752 -34.45039,-20.38308 -34.45039,-20.38308z" fill="#ff6f00" stroke="#000000" stroke-width="0"/><path d="M53.2984,100.68465c0,0 6.93001,-28.22045 7.34555,-41.35895c0.37823,-11.95918 -4.9537,-34.26731 -4.9537,-34.26731c0,0 23.7681,8.17855 36.16624,7.78643c12.79793,-0.40476 39.46003,-10.17827 39.46003,-10.17827c0,0 -7.9115,23.90257 -8.30146,36.23264c-0.40662,12.85666 5.90963,39.39364 5.90963,39.39364c0,0 -24.4128,-7.9487 -36.85315,-7.55525c-12.76029,0.40357 -38.77313,9.94709 -38.77313,9.94709z" fill="#ff6f00" stroke="#000000" stroke-width="0"/><path d="M55.16134,61.67559c0,-19.10861 16.50244,-34.59919 36.85922,-34.59919c20.35678,0 36.85922,15.49059 36.85922,34.59919c0,19.10861 -16.50244,34.59919 -36.85922,34.59919c-20.35678,0 -36.85922,-15.49059 -36.85922,-34.59919z" fill="#ffe900" stroke="#000000" stroke-width="0"/><path d="M83.36837,69.15793c0,-0.41896 9.03028,1.36088 17.17598,1.12248c8.93699,-0.26156 17.06287,-2.4959 17.06287,-1.86959c0,8.35865 -7.96575,17.12698 -16.87039,17.12698c-8.90464,0 -17.36846,-8.02122 -17.36846,-16.37987z" fill="#000000" stroke="#000000" stroke-width="2"/><path d="M78.75066,58.29806c0,-3.55665 2.88322,-6.43987 6.43987,-6.43987c3.55665,0 6.43988,2.88322 6.43988,6.43987c0,3.55665 -2.88323,6.43987 -6.43988,6.43987c-3.55665,0 -6.43986,-2.88324 -6.43986,-6.43987z" fill="#000000" stroke="none" stroke-width="0"/><path d="M116.19486,64.54768c-3.45158,0 -6.24963,-2.79805 -6.24963,-6.24963c0,-3.45158 2.79806,-6.24964 6.24963,-6.24964c3.45157,0 6.24962,2.79806 6.24962,6.24964c0,3.45158 -2.79805,6.24963 -6.24962,6.24963z" data-paper-data="{&quot;index&quot;:null}" fill="#000000" stroke="none" stroke-width="0"/></g></g></g></svg>