<svg version="1.1" xmlns="http://www.w3.org/2000/svg" xmlns:xlink="http://www.w3.org/1999/xlink" width="34.67311" height="34.67311" viewBox="0,0,34.67311,34.67311"><defs><linearGradient x1="240.00003" y1="162.9135" x2="240.00003" y2="197.08661" gradientUnits="userSpaceOnUse" id="color-1"><stop offset="0" stop-color="#000000"/><stop offset="1" stop-color="#1b1900"/></linearGradient><radialGradient cx="240" cy="180.00001" r="15.73392" gradientUnits="userSpaceOnUse" id="color-2"><stop offset="0" stop-color="#401c00"/><stop offset="1" stop-color="#803700"/></radialGradient><radialGradient cx="240" cy="180.00002" r="11.12556" gradientUnits="userSpaceOnUse" id="color-3"><stop offset="0" stop-color="#401c00"/><stop offset="1" stop-color="#803700"/></radialGradient><radialGradient cx="239.91818" cy="180.00002" r="10.51242" gradientUnits="userSpaceOnUse" id="color-4"><stop offset="0" stop-color="#403a00"/><stop offset="1" stop-color="#807500"/></radialGradient></defs><g transform="translate(-222.66348,-162.6635)"><g data-paper-data="{&quot;isPaintingLayer&quot;:true}" stroke-miterlimit="10" stroke-dasharray="" stroke-dashoffset="0" style="mix-blend-mode: normal"><path d="M229.98314,162.9135h20.03379c3.9166,0 7.06966,3.15307 7.06966,7.06966v20.03379c0,3.91659 -3.15306,7.06966 -7.06966,7.06966h-20.03379c-3.91659,0 -7.06966,-3.15307 -7.06966,-7.06966v-20.03379c0,-3.91659 3.15307,-7.06966 7.06966,-7.06966z" fill="url(#color-1)" fill-rule="evenodd" stroke="#807500" stroke-width="0.5" stroke-linecap="round" stroke-linejoin="round"/><g fill-rule="nonzero" stroke="#000000" stroke-width="0" stroke-linecap="butt" stroke-linejoin="miter"><path d="M234.08832,173.14053c2.48809,-2.33553 5.91168,-7.90971 5.91168,-7.90971c0,0 3.14395,6.44268 5.72336,8.86394c2.66259,2.49933 10.01056,5.90525 10.01056,5.90525c0,0 -6.41595,3.22492 -8.9812,5.63288c-2.67481,2.5108 -6.75272,9.13631 -6.75272,9.13631c0,0 -3.32032,-6.52635 -5.90851,-8.95584c-2.65476,-2.49198 -9.82541,-5.81335 -9.82541,-5.81335z" fill="url(#color-2)"/><path d="M228.87444,191.12558c0,0 1.97647,-8.0486 2.09498,-11.79576c0.10787,-3.41081 -1.41282,-9.77319 -1.41282,-9.77319c0,0 6.77877,2.33256 10.31478,2.22073c3.65003,-0.11544 11.25418,-2.90289 11.25418,-2.90289c0,0 -2.2564,6.81712 -2.36761,10.33371c-0.11597,3.66678 1.68545,11.23524 1.68545,11.23524c0,0 -6.96264,-2.267 -10.51069,-2.15479c-3.63929,0.1151 -11.05827,2.83695 -11.05827,2.83695z" fill="url(#color-3)"/><path d="M229.40576,180.00002c0,-5.44986 4.70657,-9.86785 10.51242,-9.86785c5.80585,0 10.51242,4.41799 10.51242,9.86785c0,5.44986 -4.70657,9.86785 -10.51242,9.86785c-5.80585,0 -10.51242,-4.41799 -10.51242,-9.86785z" fill="url(#color-4)"/></g></g></g></svg>