<svg version="1.1" xmlns="http://www.w3.org/2000/svg" xmlns:xlink="http://www.w3.org/1999/xlink" width="34.67311" height="34.67311" viewBox="0,0,34.67311,34.67311"><defs><linearGradient x1="320.05963" y1="162.91344" x2="320.05963" y2="197.08655" gradientUnits="userSpaceOnUse" id="color-1"><stop offset="0" stop-color="#000000"/><stop offset="1" stop-color="#7f0000"/></linearGradient></defs><g transform="translate(-302.72308,-162.66344)"><g data-paper-data="{&quot;isPaintingLayer&quot;:true}" stroke-miterlimit="10" stroke-dasharray="" stroke-dashoffset="0" style="mix-blend-mode: normal"><path d="M310.04275,162.91344h20.03378c3.9166,0 7.06966,3.15307 7.06966,7.06966v20.03379c0,3.91659 -3.15307,7.06966 -7.06966,7.06966h-20.03378c-3.91659,0 -7.06967,-3.15307 -7.06967,-7.06966v-20.03379c0,-3.91659 3.15308,-7.06966 7.06967,-7.06966z" fill="url(#color-1)" fill-rule="evenodd" stroke="#ff0000" stroke-width="0.5" stroke-linecap="round" stroke-linejoin="round"/><path d="M309.92349,166.54383h20.03378c3.9166,0 7.06966,2.46106 7.06966,5.51808v15.63696c0,3.05702 -3.15307,5.51808 -7.06966,5.51808h-20.03378c-3.91659,0 -7.06967,-2.46106 -7.06967,-5.51808v-15.63696c0,-3.05702 3.15308,-5.51808 7.06967,-5.51808z" fill="none" fill-rule="evenodd" stroke="none" stroke-width="4.43922" stroke-linecap="round" stroke-linejoin="round"/><path d="M325.49584,181.61407c0.02831,-0.05685 0.05542,-0.11045 0.08249,-0.16493c0.07276,-0.01438 0.20048,-0.06175 0.20048,-0.24092c0,-0.25 -0.15101,-0.2361 -0.15101,-0.2361l-0.33264,0.14066c-0.31381,0.62924 -0.72548,1.48696 -1.20529,1.97404c-0.55196,2.05365 -1.41811,3.90769 -2.15625,5.88459c-0.2274,0.60901 -0.77225,1.83729 -1.47264,1.86219c-2.01702,0.35416 -4.34142,0.34703 -6.3237,-0.13316c-0.69098,-0.16738 -2.0368,-0.82559 -1.82989,-1.5723c0.1016,-0.5779 0.1455,-2.10949 0.4522,-2.55223c1.00731,-1.45409 5.10195,0.90389 5.10195,-1.29907c0,-1.11201 0.55826,-4.52947 -0.06471,-5.41046c-0.61375,-0.86795 -2.65169,-1.60622 -3.61442,-2.06743c-0.66513,-0.27107 -2.60148,-0.10208 -3.04061,-0.46931c-0.19843,-0.16594 0.40362,-1.01919 0.44426,-1.11316c0.61797,-1.42899 1.4718,-2.80872 2.28608,-4.1456c0.34571,-0.56778 0.658,-1.62617 1.11348,-2.07499c0.08172,-0.08052 1.07574,0.8584 1.16267,0.93009c1.36647,1.12713 2.78695,2.00818 4.07742,3.29808c2.01535,2.0109 4.48515,3.98989 6.18067,6.27246c0,0 0.10662,0.14319 0.25994,0.09791c1.23073,0.41005 2.57746,2.76922 3.74753,2.91894c1.17052,0.14978 0.24344,-1.72387 1.82931,-1.19705c1.15938,0.55583 -3.36314,6.01522 -2.46303,3.31489c0.0173,-1.96255 -2.63579,-2.92177 -4.22,-3.98461z" data-paper-data="{&quot;noHover&quot;:false,&quot;origItem&quot;:[&quot;Path&quot;,{&quot;applyMatrix&quot;:true,&quot;segments&quot;:[[[491.33553,363.56057],[0,0],[3.16842,2.12567]],[[499.5952,371.44799],[0.03461,-3.92509],[-1.80022,5.40065]],[[504.50706,364.85512],[2.31877,1.11166],[-3.17174,-1.05365]],[[501.04158,367.29854],[2.34104,0.29955],[-2.34013,-0.29944]],[[493.35198,361.42688],[2.46145,0.82011],[-0.30663,0.09057]],[[492.8321,361.23311],[0,0],[-3.39102,-4.56514]],[[480.5945,348.78451],[4.03071,4.0218],[-2.58095,-2.57981]],[[472.46641,342.17752],[2.73293,2.25425],[-0.17385,-0.1434]],[[470.1447,340.3151],[0.16344,-0.16105],[-0.91097,0.89764]],[[467.93183,344.45411],[0.69141,-1.13555],[-1.62856,2.67376]],[[463.38353,352.71123],[1.23594,-2.85799],[-0.08128,0.18795]],[[462.49869,354.92739],[-0.39687,-0.33188],[0.87827,0.73445]],[[468.3901,355.80319],[-1.33027,-0.54214],[1.92546,0.92243]],[[475.81163,359.98859],[-1.2275,-1.73591],[1.24592,1.76197]],[[475.90601,370.71572],[0,-2.22401],[0,4.40591]],[[465.55548,373.44675],[2.01462,-2.90819],[-0.61341,0.88549]],[[464.80815,378.42827],[0.2032,-1.1558],[-0.41382,1.49343]],[[468.45394,381.56014],[-1.38196,-0.33477],[3.96456,0.96038]],[[481.0539,381.80725],[-4.03405,0.70833],[1.40077,-0.0498]],[[483.98462,378.08209],[-0.45479,1.21803],[1.47627,-3.95379]],[[488.23178,366.33894],[-1.10392,4.10731],[0.95961,-0.97416]],[[490.61097,362.44864],[-0.62762,1.25848],[0,0]],[491.27557,362.17225],[[491.77557,362.67225],[0,-0.5],[0,0.35835]],[[491.37323,363.16088],[0.14552,-0.02876],[-0.05415,0.10895]],[[491.20706,363.4952],[0.05662,-0.11369],[0,0]]],&quot;closed&quot;:true}]}" fill="#000000" fill-rule="nonzero" stroke="none" stroke-width="0.5" stroke-linecap="butt" stroke-linejoin="miter"/><path d="M325.60811,181.66066c1.58421,1.06284 4.14714,1.98117 4.12983,3.94371c-0.90011,2.70032 3.61532,-2.74061 2.45593,-3.29644c-1.58587,-0.52683 -0.56222,1.37149 -1.73274,1.22171c-1.17006,-0.14972 -2.61407,-2.52578 -3.8448,-2.93583c-0.15331,0.04529 -0.25994,-0.09688 -0.25994,-0.09688c-1.69551,-2.28257 -4.10345,-4.2134 -6.1188,-6.2243c-1.29047,-1.28991 -2.69758,-2.17637 -4.06404,-3.30349c-0.08693,-0.0717 -1.07914,-1.01174 -1.16085,-0.93121c-0.45549,0.44882 -0.76073,1.50173 -1.10644,2.06951c-0.81428,1.33688 -1.65618,2.69957 -2.27415,4.12856c-0.04064,0.09398 -0.64085,0.94214 -0.44242,1.10808c0.43913,0.36722 2.28057,0.16683 2.94571,0.4379c0.96273,0.46122 3.09701,1.22475 3.71076,2.0927c0.62296,0.88099 0.04719,4.25156 0.04719,5.36356c0,2.20296 -4.16796,-0.08858 -5.17526,1.36552c-0.3067,0.44275 -0.27206,1.91286 -0.37366,2.49076c-0.20691,0.74671 1.13191,1.39855 1.82289,1.56593c1.98228,0.48019 4.28296,0.47772 6.29998,0.12356c0.70039,-0.0249 1.23797,-1.25357 1.46536,-1.86258c0.73813,-1.9769 1.57162,-3.81792 2.12358,-5.87158c0.4798,-0.48708 0.87579,-1.31591 1.18959,-1.94515l0.3323,-0.13819c0,0 0.25,0 0.25,0.25c0,0.17917 -0.12841,0.22994 -0.20117,0.24432c-0.02707,0.05447 -0.05477,0.11031 -0.08308,0.16716zM326.74414,180.10976c1.27989,0.45047 2.85558,1.88772 3.72995,2.92005c0.36581,0.43191 0.24447,-1.33451 0.78378,-1.5063c0.10595,-0.03375 0.97644,0.27174 1.12363,0.32096c1.60943,0.77337 -0.57556,2.92604 -1.26926,3.96723c-0.20953,0.31449 -0.59287,1.33067 -1.01084,1.4066c-1.09542,0.19898 -1.07597,-1.03706 -0.85698,-1.69402c-0.01781,-1.57827 -2.53215,-2.5332 -3.91365,-3.44759l-0.01235,-0.00604c-0.24095,0.45768 -0.51739,0.92078 -0.82707,1.22555c-0.40481,1.79128 -1.73779,7.73313 -3.96066,7.98377c-1.66159,0.28991 -9.3795,0.77721 -8.67535,-2.2893c0.1092,-0.62549 0.09722,-2.2555 0.4959,-2.72664c1.01349,-1.19769 5.04212,0.11447 5.04212,-1.02579c0,-0.81805 0.50923,-4.54882 0.04719,-5.07121c-0.69207,-0.78245 -2.52353,-1.45595 -3.50827,-1.92818c-0.73621,-0.30513 -2.60985,-0.02717 -3.09613,-0.54123c-0.85804,-0.90704 2.09702,-4.95374 2.6431,-5.85029c0.30302,-0.49733 0.82802,-2.04502 1.35998,-2.27835c0.49016,-0.21499 1.39162,0.79449 1.66523,1.02531c1.35048,1.13924 2.79548,2.03414 4.08646,3.32455c2.0102,2.00575 4.36085,3.92685 6.09021,6.17932c0.03732,0.00303 0.06302,0.0116 0.06302,0.0116z" fill="#ff0000" fill-rule="nonzero" stroke="none" stroke-width="0.5" stroke-linecap="butt" stroke-linejoin="miter"/></g></g></svg>