<svg version="1.1" xmlns="http://www.w3.org/2000/svg" xmlns:xlink="http://www.w3.org/1999/xlink" width="35.37498" height="35.37434" viewBox="0,0,35.37498,35.37434"><defs><linearGradient x1="239.52409" y1="162.43783" x2="239.52409" y2="196.61094" gradientUnits="userSpaceOnUse" id="color-1"><stop offset="0" stop-color="#000000"/><stop offset="1" stop-color="#1a0000"/></linearGradient><linearGradient x1="239.539" y1="176.63406" x2="239.539" y2="197.64041" gradientUnits="userSpaceOnUse" id="color-2"><stop offset="0" stop-color="#1a1a1a"/><stop offset="1" stop-color="#808080"/></linearGradient><linearGradient x1="239.51859" y1="176.05921" x2="239.51859" y2="198.21526" gradientUnits="userSpaceOnUse" id="color-3"><stop offset="0" stop-color="#1a0000"/><stop offset="1" stop-color="#800000"/></linearGradient></defs><g transform="translate(-222.18754,-162.18783)"><g data-paper-data="{&quot;isPaintingLayer&quot;:true}" stroke-miterlimit="10" stroke-dasharray="" stroke-dashoffset="0" style="mix-blend-mode: normal"><path d="M257.56251,169.8317v20.49804c0,4.00745 -3.22497,7.23243 -7.23242,7.23243h-20.5c-3.66107,0 -6.66147,-2.69385 -7.1543,-6.21484c0.7952,3.03475 3.54108,5.26367 6.83204,5.26367h20.0332c3.9166,0 7.07032,-3.15372 7.07032,-7.07031v-20.03321c0,-3.2976 -2.23906,-6.0451 -5.28321,-6.83398c3.52994,0.48496 6.23438,3.49081 6.23438,7.15821z" fill-opacity="0.29839" fill="#000000" fill-rule="evenodd" stroke="none" stroke-width="4.54219" stroke-linecap="round" stroke-linejoin="round"/><path d="M229.50721,162.43783h20.03378c3.9166,0 7.06966,3.15307 7.06966,7.06966v20.03379c0,3.91659 -3.15307,7.06966 -7.06966,7.06966h-20.03378c-3.91659,0 -7.06967,-3.15307 -7.06967,-7.06966v-20.03379c0,-3.91659 3.15308,-7.06966 7.06967,-7.06966z" fill="url(#color-1)" fill-rule="evenodd" stroke="#800000" stroke-width="0.5" stroke-linecap="round" stroke-linejoin="round"/><g fill-rule="nonzero" stroke="#000000" stroke-width="0" stroke-linecap="butt" stroke-linejoin="miter"><path d="M228.82474,184.43558c-0.97378,-1.15685 -4.90766,-9.85281 -4.90766,-9.85281c0,0 7.89749,5.35956 8.87127,6.51641c0.97378,1.15685 0.87591,2.84154 -0.21861,3.76286c-1.09453,0.92132 -2.77122,0.73039 -3.745,-0.42646z" fill="#330000"/><path d="M228.34976,187.13724c0,-5.80075 5.0096,-10.50317 11.18924,-10.50317c6.17964,0 10.59215,4.35864 10.59215,10.15938c0,0 -21.7814,0.53215 -21.7814,0.3438z" fill="url(#color-2)"/><path d="M227.71694,187.13724c0,-6.11822 5.28378,-11.07802 11.80165,-11.07802c0.05282,0 0.96615,1.83917 1.01827,3.04413c0.08297,1.91805 -0.80923,5.00572 -0.91335,8.03272c-0.01065,0.30974 -11.90656,0.48971 -11.90656,0.00117z" fill="url(#color-3)"/><path d="M234.26312,179.32772c-0.8498,0.36111 -1.74322,0.17252 -1.99551,-0.4212c-0.25229,-0.59372 -0.24621,-4.85435 -0.24621,-4.85435c0,0 3.07133,2.95297 3.32361,3.54669c0.25229,0.59372 -0.2321,1.36775 -1.0819,1.72885z" data-paper-data="{&quot;index&quot;:null}" fill="#330000"/></g></g></g></svg>