<svg version="1.1" xmlns="http://www.w3.org/2000/svg" xmlns:xlink="http://www.w3.org/1999/xlink" width="164" height="273" viewBox="0,0,164,273"><defs><linearGradient x1="320" y1="43.5" x2="320" y2="316.5" gradientUnits="userSpaceOnUse" id="color-1"><stop offset="0" stop-color="#000000" stop-opacity="0.24983"/><stop offset="1" stop-color="#800000" stop-opacity="0.24994"/></linearGradient><linearGradient x1="320" y1="43.5" x2="320" y2="316.5" gradientUnits="userSpaceOnUse" id="color-2"><stop offset="0" stop-color="#000000"/><stop offset="1" stop-color="#800000"/></linearGradient><linearGradient x1="320.00004" y1="164.06907" x2="320.00004" y2="307.50001" gradientUnits="userSpaceOnUse" id="color-3"><stop offset="0" stop-color="#000000"/><stop offset="1" stop-color="#800000"/></linearGradient><linearGradient x1="306.74704" y1="174.46293" x2="306.74704" y2="203.34552" gradientUnits="userSpaceOnUse" id="color-4"><stop offset="0" stop-color="#000000"/><stop offset="1" stop-color="#800000"/></linearGradient><linearGradient x1="332.26709" y1="174.46294" x2="332.26709" y2="203.34553" gradientUnits="userSpaceOnUse" id="color-5"><stop offset="0" stop-color="#000000"/><stop offset="1" stop-color="#800000"/></linearGradient><linearGradient x1="320.07697" y1="56.54783" x2="320.07697" y2="187.58792" gradientUnits="userSpaceOnUse" id="color-6"><stop offset="0" stop-color="#000000"/><stop offset="1" stop-color="#800000"/></linearGradient><linearGradient x1="298.35974" y1="97.02051" x2="298.35974" y2="148.04856" gradientUnits="userSpaceOnUse" id="color-7"><stop offset="0" stop-color="#000000"/><stop offset="1" stop-color="#800000"/></linearGradient><linearGradient x1="342.48227" y1="97.0205" x2="342.48227" y2="148.04855" gradientUnits="userSpaceOnUse" id="color-8"><stop offset="0" stop-color="#000000"/><stop offset="1" stop-color="#800000"/></linearGradient><linearGradient x1="320.06466" y1="164.32564" x2="320.06466" y2="166.32564" gradientUnits="userSpaceOnUse" id="color-9"><stop offset="0" stop-color="#000000"/><stop offset="1" stop-color="#800000"/></linearGradient><linearGradient x1="319.54001" y1="195.18236" x2="319.54001" y2="230.22543" gradientUnits="userSpaceOnUse" id="color-10"><stop offset="0" stop-color="#000000"/><stop offset="1" stop-color="#800000"/></linearGradient></defs><g transform="translate(-238,-43.5)"><g data-paper-data="{&quot;isPaintingLayer&quot;:true}" fill-rule="nonzero" stroke-linejoin="miter" stroke-miterlimit="10" stroke-dasharray="" stroke-dashoffset="0" style="mix-blend-mode: normal"><g fill="url(#color-1)" stroke="none" stroke-width="0" stroke-linecap="butt"><path d="M238,316.5v-273h164v273z"/><path d="M245.46998,316.5v-273h149.06004v273z"/><path d="M250.90269,316.5v-273h138.19462v273z"/><path d="M257.19727,316.5v-273h125.60546v273z"/></g><path d="M260.5,316.5v-273h119v273z" fill="url(#color-2)" stroke="none" stroke-width="0" stroke-linecap="butt"/><path d="M286.75004,307.5l15.14285,-143.25936l37.78325,-0.17156l13.57389,143.43094z" fill="url(#color-3)" stroke="#000000" stroke-width="0" stroke-linecap="butt"/><path d="M293.64123,190.87349l5.32149,-16.41056l20.89013,12.47203l-5.32149,16.41056z" fill="url(#color-4)" stroke="none" stroke-width="0" stroke-linecap="butt"/><path d="M324.48277,203.34553l-5.32148,-16.41056l20.89013,-12.47203l5.32148,16.41055z" data-paper-data="{&quot;index&quot;:null}" fill="url(#color-5)" stroke="none" stroke-width="0" stroke-linecap="butt"/><path d="M267.83995,122.06788c0,-36.18572 23.38732,-65.52005 52.23702,-65.52005c28.8497,0 52.23702,29.33433 52.23702,65.52005c0,36.18572 -23.38732,65.52005 -52.23702,65.52005c-28.8497,0 -52.23702,-29.33433 -52.23702,-65.52005z" fill="url(#color-6)" stroke="#000000" stroke-width="0" stroke-linecap="butt"/><path d="M279.26547,122.53454c0,-14.091 8.5488,-25.51403 19.09427,-25.51403c10.54547,0 19.09427,11.42302 19.09427,25.51403c0,14.091 -8.5488,25.51403 -19.09427,25.51403c-10.54547,0 -19.09427,-11.42302 -19.09427,-25.51403z" fill="url(#color-7)" stroke="#000000" stroke-width="0" stroke-linecap="butt"/><path d="M342.48227,148.04855c-10.54547,0 -19.09427,-11.42302 -19.09427,-25.51403c0,-14.091 8.5488,-25.51403 19.09427,-25.51403c10.54547,0 19.09427,11.42302 19.09427,25.51403c0,14.091 -8.5488,25.51403 -19.09427,25.51403z" data-paper-data="{&quot;index&quot;:null}" fill="url(#color-8)" stroke="#000000" stroke-width="0" stroke-linecap="butt"/><path d="M309.85521,165.32564h20.41891" fill="url(#color-9)" stroke="#000000" stroke-width="2" stroke-linecap="round"/><path d="M289.13572,91.23131c0,0 5.45566,-5.61686 9.59339,-6.91462c4.13774,-1.29776 10.03001,0.75993 10.03001,0.75993c0,0 -6.53653,-0.0655 -9.73197,0.93672c-3.33936,1.04736 -9.89144,5.21796 -9.89144,5.21796z" fill="#000000" stroke="none" stroke-width="0" stroke-linecap="butt"/><path d="M341.12676,86.01336c-3.19544,-1.00222 -9.73197,-0.93672 -9.73197,-0.93672c0,0 5.89227,-2.05769 10.03001,-0.75993c4.13773,1.29776 9.59339,6.91462 9.59339,6.91462c0,0 -6.55208,-4.1706 -9.89144,-5.21796z" data-paper-data="{&quot;index&quot;:null}" fill="#000000" stroke="none" stroke-width="0" stroke-linecap="butt"/><path d="M303.78442,159.59628c0,0 10.74136,1.0866 16.26384,1.0866c5.04812,0 14.23086,-1.0866 14.23086,-1.0866c0,0 -4.86909,74.47324 -14.43416,74.16031c-8.87584,-0.29039 -16.06054,-74.16031 -16.06054,-74.16031z" fill="#000000" stroke="none" stroke-width="0" stroke-linecap="butt"/><path d="M309.91238,195.45401c0,0 5.07955,30.59291 9.78155,30.59291c4.29812,0 9.47371,-30.86456 9.47371,-30.86456c0,0 -3.33432,35.13632 -9.4435,35.04288c-6.31744,-0.09663 -9.81176,-34.77123 -9.81176,-34.77123z" fill="url(#color-10)" stroke="none" stroke-width="0" stroke-linecap="butt"/></g></g></svg>