<svg version="1.1" xmlns="http://www.w3.org/2000/svg" xmlns:xlink="http://www.w3.org/1999/xlink" width="34.17311" height="34.17311" viewBox="0,0,34.17311,34.17311"><g transform="translate(-222.91348,-162.9135)"><g data-paper-data="{&quot;isPaintingLayer&quot;:true}" stroke-miterlimit="10" stroke-dasharray="" stroke-dashoffset="0" style="mix-blend-mode: normal"><path d="M229.98316,162.9135h20.03378c3.9166,0 7.06966,3.15307 7.06966,7.06966v20.03379c0,3.91659 -3.15306,7.06966 -7.06966,7.06966h-20.03378c-3.91659,0 -7.06967,-3.15307 -7.06967,-7.06966v-20.03379c0,-3.91659 3.15308,-7.06966 7.06967,-7.06966z" fill-opacity="0.09677" fill="#191919" fill-rule="evenodd" stroke="none" stroke-width="4.43922" stroke-linecap="round" stroke-linejoin="round"/><g fill="#000000" fill-rule="nonzero" stroke="#ffffff" stroke-width="0.5" stroke-linecap="butt" stroke-linejoin="miter"><path d="M229.53429,184.4553c0,-5.44162 0.78211,-9.77898 10.34185,-9.85292c10.88998,-0.08423 10.34185,4.4113 10.34185,9.85292c0,0 -20.6837,0.22496 -20.6837,0zM240.01415,183.63444c0.76725,0 1.38923,-0.62198 1.38923,-1.38923c0,-0.76725 -0.62198,-1.38923 -1.38923,-1.38923c-0.76725,0 -1.38923,0.62198 -1.38923,1.38923c0,0.76725 0.62198,1.38923 1.38923,1.38923z"/><path d="M224.95,185.39879l0.80267,-1.4201l28.80338,0.06174l0.49395,1.35836z"/></g></g></g></svg>