<svg version="1.1" xmlns="http://www.w3.org/2000/svg" xmlns:xlink="http://www.w3.org/1999/xlink" width="35.37498" height="35.37434" viewBox="0,0,35.37498,35.37434"><defs><linearGradient x1="239.52409" y1="162.43783" x2="239.52409" y2="196.61094" gradientUnits="userSpaceOnUse" id="color-1"><stop offset="0" stop-color="#000000"/><stop offset="1" stop-color="#1a0e00"/></linearGradient><linearGradient x1="240.11252" y1="179.62573" x2="240.11252" y2="201.3653" gradientUnits="userSpaceOnUse" id="color-2"><stop offset="0" stop-color="#000000"/><stop offset="1" stop-color="#4d0000"/></linearGradient><linearGradient x1="239.6167" y1="178.58187" x2="239.6167" y2="203.12136" gradientUnits="userSpaceOnUse" id="color-3"><stop offset="0" stop-color="#1a0e00"/><stop offset="1" stop-color="#593000"/></linearGradient></defs><g transform="translate(-222.18754,-162.18783)"><g data-paper-data="{&quot;isPaintingLayer&quot;:true}" stroke-miterlimit="10" stroke-dasharray="" stroke-dashoffset="0" style="mix-blend-mode: normal"><path d="M257.56251,169.8317v20.49804c0,4.00745 -3.22497,7.23243 -7.23242,7.23243h-20.5c-3.66107,0 -6.66147,-2.69385 -7.1543,-6.21484c0.7952,3.03475 3.54108,5.26367 6.83204,5.26367h20.0332c3.9166,0 7.07032,-3.15372 7.07032,-7.07031v-20.03321c0,-3.2976 -2.23906,-6.0451 -5.28321,-6.83398c3.52994,0.48496 6.23438,3.49081 6.23438,7.15821z" fill-opacity="0.29839" fill="#000000" fill-rule="evenodd" stroke="none" stroke-width="4.54219" stroke-linecap="round" stroke-linejoin="round"/><path d="M229.50721,162.43783h20.03378c3.9166,0 7.06966,3.15307 7.06966,7.06966v20.03379c0,3.91659 -3.15307,7.06966 -7.06966,7.06966h-20.03378c-3.91659,0 -7.06967,-3.15307 -7.06967,-7.06966v-20.03379c0,-3.91659 3.15308,-7.06966 7.06967,-7.06966z" fill="url(#color-1)" fill-rule="evenodd" stroke="#804400" stroke-width="0.5" stroke-linecap="round" stroke-linejoin="round"/><g fill-rule="nonzero" stroke="#000000" stroke-width="0" stroke-linecap="butt" stroke-linejoin="miter"><path d="M228.53272,190.49552c0,-6.00322 5.13359,-11.07328 11.52893,-11.07328c0.06079,0 -0.52359,0.61816 -0.26818,2.5953c0.20212,1.56467 1.00224,1.65818 1.00224,1.65818c0,0 -0.55474,1.10943 -0.27982,2.65606c0.331,1.86204 0.89821,1.91779 0.89821,1.91779c0,0 -0.8209,1.0059 -0.68227,2.50807c0.01039,0.1126 -0.48821,0.18382 -1.28916,0.22274c-3.13659,0.15239 -10.90994,-0.19073 -10.90994,-0.48486z" fill="url(#color-2)"/><path d="M226.5455,190.85161c0,-6.7764 5.85217,-12.26974 13.0712,-12.26974c0.06862,0 -0.64844,0.75519 -0.36014,2.98696c0.22815,1.76619 1.13132,2.04402 1.13132,2.04402c0,0 -0.62619,0.90779 -0.31586,2.65361c0.37363,2.10187 1.01389,2.10737 1.01389,2.10737c0,0 -0.8403,1.00589 -0.78535,2.55152c0.00513,0.14432 -13.75505,0.40395 -13.75505,-0.07373z" fill="url(#color-3)"/></g></g></g></svg>