<svg version="1.1" xmlns="http://www.w3.org/2000/svg" xmlns:xlink="http://www.w3.org/1999/xlink" width="34.17311" height="34.17311" viewBox="0,0,34.17311,34.17311"><g transform="translate(-222.91344,-162.91344)"><g data-paper-data="{&quot;isPaintingLayer&quot;:true}" stroke-miterlimit="10" stroke-dasharray="" stroke-dashoffset="0" style="mix-blend-mode: normal"><path d="M229.98312,162.91345h20.03378c3.9166,0 7.06966,3.15307 7.06966,7.06966v20.03379c0,3.91659 -3.15306,7.06966 -7.06966,7.06966h-20.03378c-3.91659,0 -7.06967,-3.15307 -7.06967,-7.06966v-20.03379c0,-3.91659 3.15308,-7.06966 7.06967,-7.06966z" fill-opacity="0.09677" fill="#191919" fill-rule="evenodd" stroke="none" stroke-width="4.43922" stroke-linecap="round" stroke-linejoin="round"/><path d="M255.90094,186.24627c0,1.73775 -7.11909,4.3264 -15.90094,4.3264c-8.78185,0 -15.90093,-2.58865 -15.90093,-4.3264c0,-1.73775 7.11908,-3.98928 15.90093,-3.98928c8.78185,0 15.90094,2.25153 15.90094,3.98928z" fill="#000000" fill-rule="nonzero" stroke="#ffffff" stroke-width="0.5" stroke-linecap="butt" stroke-linejoin="miter"/><path d="M239.00342,171.16276c0,0 0.13037,-1.14478 -0.54065,-0.89424c-0.53877,0.20117 -1.84114,0.93015 -1.84114,0.93015c0,0 0.66674,-1.22993 1.5137,-1.6779c0.67909,-0.35918 1.54615,0.43355 1.54615,0.43355c0,0 0.79736,-0.70164 1.31216,-0.38203c0.67658,0.42005 1.23252,1.65815 1.23252,1.65815c0,0 -1.00782,-0.57434 -1.45318,-0.80006c-0.4913,-0.249 -0.54077,0.69732 -0.54077,0.69732l0.40111,14.64812c0,0 -0.28869,0.32913 -1.00396,0.30104c-0.61829,-0.02428 -0.9952,-0.32996 -0.9952,-0.32996z" fill="#000000" fill-rule="nonzero" stroke="#ffffff" stroke-width="0.5" stroke-linecap="butt" stroke-linejoin="miter"/></g></g></svg>