<svg version="1.1" xmlns="http://www.w3.org/2000/svg" xmlns:xlink="http://www.w3.org/1999/xlink" width="131.47234" height="267.22501" viewBox="0,0,131.47234,267.22501"><g transform="translate(-256.90699,-46.3875)"><g data-paper-data="{&quot;isPaintingLayer&quot;:true}" fill-rule="nonzero" stroke-linejoin="miter" stroke-miterlimit="10" stroke-dasharray="" stroke-dashoffset="0" style="mix-blend-mode: normal"><path d="M273.907,169.8854c0,0 -2.34657,4.61796 -3.29846,7.42352c-1.12889,3.32726 -3.03488,11.24315 -3.03488,11.24315c0,0 -2.23879,-10.85065 -2.94515,-16.32493c-0.61399,-4.75839 -1.05485,-14.67507 -1.05485,-14.67507c0,0 -1.97496,4.59153 -2.72134,6.83068c-0.89363,2.68089 -2.27866,8.16932 -2.27866,8.16932c0,0 -0.87045,-9.8365 -0.97757,-14.65709c-0.11459,-5.15674 0.3109,-15.34291 0.3109,-15.34291" fill="#000000" stroke="#000000" stroke-width="2" stroke-linecap="round"/><path d="M259.28373,313.61251v-267.22501h123.18203v267.22501z" fill-opacity="0.01" fill="#000000" stroke="none" stroke-width="0" stroke-linecap="butt"/><path d="M286.75005,307.49999l15.14285,-131.8421l37.78325,-0.15789l13.57389,132z" fill="#ffffff" stroke="#000000" stroke-width="2" stroke-linecap="butt"/><path d="M285.55006,308.28195l9.69529,-84.41262l-9.88921,-32.33432c0,0 4.38009,0.20549 6.63407,-0.07471c2.3426,-0.29122 7.16596,-1.64083 7.16596,-1.64083l2.08324,-18.13783l39.14686,-0.16359l1.93941,18.85986c0,0 4.19277,1.08919 6.3295,1.24364c1.88953,0.13657 5.84069,-0.36398 5.84069,-0.36398l-8.6567,33.28749l8.61088,83.7369z" fill="#3e72a8" stroke="#000000" stroke-width="0" stroke-linecap="butt"/><path d="M285.55006,308.28195l9.69529,-84.41262l-9.88921,-32.33432c0,0 4.38009,0.20549 6.63407,-0.07471c2.3426,-0.29122 7.16596,-1.64083 7.16596,-1.64083l2.08324,-18.13783l19.94878,-0.08337l-0.49881,136.68368z" fill="#1b4570" stroke="#000000" stroke-width="0" stroke-linecap="butt"/><path d="M258.83996,138.84615c0,-33.30185 28.7599,-60.29833 64.23702,-60.29833c35.47712,0 64.23702,26.99649 64.23702,60.29833c0,33.30185 -28.7599,60.29833 -64.23702,60.29833c-35.47712,0 -64.23702,-26.99649 -64.23702,-60.29833z" fill="#000000" stroke="#000000" stroke-width="2" stroke-linecap="butt"/><path d="M272.39018,139.27562c0,-12.968 10.51265,-23.48065 23.48065,-23.48065c12.968,0 23.48065,10.51265 23.48065,23.48065c0,12.968 -10.51265,23.48065 -23.48065,23.48065c-12.968,0 -23.48065,-10.51265 -23.48065,-23.48065z" fill="#ffffff" stroke="#000000" stroke-width="2" stroke-linecap="butt"/><path d="M350.12928,162.75626c-12.968,0 -23.48065,-10.51265 -23.48065,-23.48065c0,-12.968 10.51265,-23.48065 23.48065,-23.48065c12.968,0 23.48065,10.51265 23.48065,23.48065c0,12.968 -10.51265,23.48065 -23.48065,23.48065z" data-paper-data="{&quot;index&quot;:null}" fill="#ffffff" stroke="#000000" stroke-width="2" stroke-linecap="butt"/><path d="M350.0167,155.52783c-9.12807,0 -16.52783,-7.39977 -16.52783,-16.52784c0,-9.12808 7.39977,-16.52784 16.52783,-16.52784c9.12807,0 16.52783,7.39977 16.52783,16.52784c0,9.12808 -7.39977,16.52784 -16.52783,16.52784z" data-paper-data="{&quot;index&quot;:null}" fill="#000000" stroke="none" stroke-width="0" stroke-linecap="butt"/><path d="M257.77465,138.84615c0,-33.85413 29.23686,-61.29833 65.30234,-61.29833c36.06548,0 65.30234,27.4442 65.30234,61.29833c0,13.70951 -2.79458,27.36785 -10.89564,37.57814c0,0 -37.34243,2.07771 -48.39492,-8.60648c-5.94299,-5.74496 3.06173,-57.74749 -32.3595,-55.36487c-36.25232,2.43852 -38.95462,38.82369 -38.95462,26.3932z" fill="#001f3f" stroke="#000000" stroke-width="0" stroke-linecap="butt"/><path d="M257.77465,138.34615c0,-33.85413 34.23686,-49.79833 63.80234,-49.79833c36.06548,0 45.23361,87.51761 43.5783,87.47237c-11.91417,-0.32566 -29.1452,-2.0117 -36.06651,-8.70238c-5.94299,-5.74496 3.06173,-57.74749 -32.3595,-55.36487c-36.25232,2.43852 -38.95462,38.82369 -38.95462,26.3932z" fill="#1b4570" stroke="#000000" stroke-width="0" stroke-linecap="butt"/><path d="M257.77465,138.34615c0.5,-18.35413 22.73686,-39.79833 52.30234,-39.79833c32.97294,0 40.1172,76.35189 37.74813,75.96702c-7.65553,-1.24369 -14.83433,-3.42504 -18.73634,-7.19703c-5.94299,-5.74496 3.06173,-57.74749 -32.3595,-55.36487c-36.25232,2.43852 -39.29312,38.81909 -38.95462,26.3932z" fill="#3e72a8" stroke="#000000" stroke-width="0" stroke-linecap="butt"/><path d="M257.77465,138.34615c0.5,-18.35413 19.73686,-31.79833 49.30234,-31.79833c29.34233,0 32.45516,66.17934 30.51435,65.50832c-3.47229,-1.20052 -6.44361,-2.74798 -8.50257,-4.73833c-5.94299,-5.74496 3.06173,-57.74749 -32.3595,-55.36487c-36.25232,2.43852 -39.29312,38.81909 -38.95462,26.3932z" fill="#66a2e0" stroke="#000000" stroke-width="0" stroke-linecap="butt"/><g stroke="none" stroke-width="0" stroke-linecap="butt"><path d="M361.67972,150.57811l-2.43478,-40h13.56522l2.43478,40z" fill="#284543"/><path d="M361.93906,129.84465l-1.02454,-17.59395h10.66241l1.02454,17.59395z" fill="#4c837f"/></g><g stroke="none" stroke-width="0" stroke-linecap="butt"><path d="M340.67972,150.07811l-2.43478,-40h13.56521l2.43479,40z" fill="#284543"/><path d="M340.93906,129.34465l-1.02454,-17.59396h10.66242l1.02454,17.59396z" fill="#4c837f"/></g><path d="M323.0999,192.0781c-18.30948,0 -23.80921,-13.42168 -23.80921,-13.42168c0,0 15.69581,0.6 23.6212,0.6c7.84459,0 23.69119,-0.6 23.69119,-0.6c0,0 -5.19372,13.42168 -23.5032,13.42168z" fill="#ffffff" stroke="#000000" stroke-width="0.5" stroke-linecap="round"/><path d="M294.09024,186.37628v-3.71915c0,0 19.89663,0.30155 29.84376,0.30155c9.82199,0 29.46836,-0.30155 29.46836,-0.30155v3.71915c0,0 -19.77071,0.40207 -29.65606,0.40207c-9.88535,0 -29.65606,-0.40207 -29.65606,-0.40207z" fill="#000000" stroke="none" stroke-width="0" stroke-linecap="butt"/></g></g></svg>