<svg version="1.1" xmlns="http://www.w3.org/2000/svg" xmlns:xlink="http://www.w3.org/1999/xlink" width="664.16216" height="429.92793" viewBox="0,0,664.16216,429.92793"><g transform="translate(13.58256,34.96392)"><g stroke-miterlimit="10"><path d="M-12.58256,393.96401v-427.92793h662.16216v427.92793z" fill="#000000" stroke="#000000" stroke-width="2"/><path d="M-12.58256,393.96401v-427.92793h662.16216v427.92793z" fill="#000000" stroke="#000000" stroke-width="2"/><text transform="translate(124.20873,341.46401) scale(0.5,0.5)" font-size="40" xml:space="preserve" fill="#ffffff" stroke="none" stroke-width="1" font-family="Sans Serif" font-weight="normal" text-anchor="start"><tspan x="0" dy="0">tap anywhere or press any key to continue</tspan></text><g fill="#ffffff" stroke="none" stroke-width="0.5"><path d="M283.93456,200.36293c0,-1.38071 1.11929,-2.5 2.5,-2.5c1.38071,0 2.5,1.11929 2.5,2.5c0,1.38071 -1.11929,2.5 -2.5,2.5c-1.38071,0 -2.5,-1.11929 -2.5,-2.5z"/><path d="M353.00363,212.37494c0,-1.38071 1.11929,-2.5 2.5,-2.5c1.38071,0 2.5,1.11929 2.5,2.5c0,1.38071 -1.11929,2.5 -2.5,2.5c-1.38071,0 -2.5,-1.11929 -2.5,-2.5z"/><path d="M381.76372,221.76739c1.11803,2.23607 -1.11803,3.3541 -1.11803,3.3541l-2.65926,1.29354c-1.001,1.001 -1.86623,2.15935 -3.003,3.003c-2.68447,1.99228 -6.41333,2.56906 -9.08092,4.5657c-4.08557,3.05796 -7.60032,6.86038 -12.3035,9.1655c-5.48401,2.68781 -13.8131,4.10554 -19.85921,4.74482c-0.16888,0.01786 -9.1538,0.01389 -9.7677,0.01389c-2.69406,0 -5.46124,0.55773 -8.08189,-0.06688c-1.8216,-0.43416 -3.5597,-1.48617 -5.43162,-1.43462c-1.63499,-0.01076 -3.29124,0.23076 -4.90496,-0.03228c-1.5621,-0.25463 -2.94332,-1.2413 -4.5045,-1.5015c-1.48107,-0.24685 -3.02423,0.25159 -4.5045,0c-4.9799,-0.8464 -11.90441,-3.42033 -16.07634,-6.44562c-3.40562,-2.4696 -5.65447,-6.49311 -9.00901,-9.00901c-0.99968,-0.74976 -2.42119,-0.88246 -3.30899,-1.76184c-0.79512,-0.78758 -0.71014,-2.21164 -1.5015,-3.003c-0.79136,-0.79136 -2.22594,-0.69609 -3.003,-1.5015c-0.96049,-0.99553 -1.3301,-2.4262 -1.9698,-3.65274c-1.93403,-3.70823 -5.69281,-8.99337 -2.5347,-13.39631c0.93773,-1.30735 3.18051,-0.48816 4.77077,-0.73223c0,0 2.5,0 2.5,2.5c0,2.5 -2.5,2.5 -2.5,2.5c-3.34754,-1.98438 0.38528,3.20951 0.73457,3.88947c0.90254,1.75699 1.10626,3.99204 2.5347,5.35627c0.80934,0.77296 2.21164,0.71014 3.003,1.5015c0.79136,0.79136 0.71443,2.20737 1.5015,3.003c0.69598,0.70355 1.90531,0.64738 2.69701,1.24116c3.35999,2.51999 5.62405,6.55038 9.00901,9.00901c3.55014,2.5786 9.72121,4.8762 13.95369,5.56639c1.48193,0.24166 3.02343,-0.24685 4.5045,0c1.56119,0.2602 2.94434,1.23523 4.5045,1.5015c1.34856,0.23016 2.73603,-0.02152 4.10405,-0.03228c1.19246,0.02229 2.41721,-0.20964 3.57739,0.06688c1.08866,0.25947 1.92096,1.21571 3.003,1.5015c2.23452,0.59019 4.62198,-0.06688 6.93313,-0.06688c3.08044,0 6.17803,0.33864 9.24131,0.01389c3.2362,-0.34307 6.36516,-1.35978 9.55468,-2.00605c2.51913,-0.51044 6.25565,-1.07543 8.63416,-2.25814c4.44851,-2.21202 7.72927,-5.90002 11.63168,-8.7692c2.67174,-1.96435 6.40063,-2.53454 9.02594,-4.52663c1.12772,-0.85572 2.002,-2.002 3.003,-3.003l3.34674,-1.70946c0,0 2.23607,-1.11803 3.3541,1.11803z"/></g><text transform="translate(268.65183,49.62162) scale(0.96847,0.96847)" font-size="40" xml:space="preserve" fill="#ffffff" stroke="none" stroke-width="1" font-family="Sans Serif" font-weight="normal" text-anchor="start"><tspan x="0" dy="0">NOTE</tspan></text><text transform="translate(15.47273,84.62321) scale(0.55262,0.55262)" font-size="40" xml:space="preserve" fill="#ffffff" stroke="none" stroke-width="1" font-family="Sans Serif" font-weight="normal" text-anchor="start"><tspan x="0" dy="0">Hello! This is an OFFICIAL port of Sprunki! Approved by</tspan><tspan x="0" dy="48px">NyankoBFLol Himself. This and the Cocrea version are the</tspan><tspan x="0" dy="48px">              ONLY Official Sprunki Projects. Thank you!</tspan></text></g></g></svg>