<svg version="1.1" xmlns="http://www.w3.org/2000/svg" xmlns:xlink="http://www.w3.org/1999/xlink" width="35.37498" height="35.37434" viewBox="0,0,35.37498,35.37434"><defs><linearGradient x1="239.52409" y1="162.43783" x2="239.52409" y2="196.61094" gradientUnits="userSpaceOnUse" id="color-1"><stop offset="0" stop-color="#000000"/><stop offset="1" stop-color="#1b1900"/></linearGradient><linearGradient x1="229.46875" y1="170.6984" x2="229.46875" y2="176.90002" gradientUnits="userSpaceOnUse" id="color-2"><stop offset="0" stop-color="#332f00"/><stop offset="1" stop-color="#998c00"/></linearGradient><linearGradient x1="242.6796" y1="186.5358" x2="255.82142" y2="186.5358" gradientUnits="userSpaceOnUse" id="color-3"><stop offset="0" stop-color="#000000"/><stop offset="1" stop-color="#4d4600"/></linearGradient><linearGradient x1="249.38999" y1="170.6984" x2="249.38999" y2="176.90002" gradientUnits="userSpaceOnUse" id="color-4"><stop offset="0" stop-color="#332f00"/><stop offset="1" stop-color="#998c00"/></linearGradient><linearGradient x1="223.72143" y1="186.53579" x2="236.83536" y2="186.53579" gradientUnits="userSpaceOnUse" id="color-5"><stop offset="0" stop-color="#4d4600"/><stop offset="1" stop-color="#000000"/></linearGradient><linearGradient x1="239.49718" y1="177.24036" x2="239.49718" y2="187.82377" gradientUnits="userSpaceOnUse" id="color-6"><stop offset="0" stop-color="#1a1700"/><stop offset="1" stop-color="#807500"/></linearGradient><linearGradient x1="240.26009" y1="175.76784" x2="240.26009" y2="179.84862" gradientUnits="userSpaceOnUse" id="color-7"><stop offset="0" stop-color="#4d4600"/><stop offset="1" stop-color="#1a1700"/></linearGradient></defs><g transform="translate(-222.18754,-162.18783)"><g data-paper-data="{&quot;isPaintingLayer&quot;:true}" stroke-miterlimit="10" stroke-dasharray="" stroke-dashoffset="0" style="mix-blend-mode: normal"><path d="M257.56251,169.8317v20.49804c0,4.00745 -3.22497,7.23243 -7.23242,7.23243h-20.5c-3.66107,0 -6.66147,-2.69385 -7.1543,-6.21484c0.7952,3.03475 3.54108,5.26367 6.83204,5.26367h20.0332c3.9166,0 7.07032,-3.15372 7.07032,-7.07031v-20.03321c0,-3.2976 -2.23906,-6.0451 -5.28321,-6.83398c3.52994,0.48496 6.23438,3.49081 6.23438,7.15821z" fill-opacity="0.29839" fill="#000000" fill-rule="evenodd" stroke="none" stroke-width="4.54219" stroke-linecap="round" stroke-linejoin="round"/><path d="M229.50721,162.43783h20.03378c3.9166,0 7.06966,3.15307 7.06966,7.06966v20.03379c0,3.91659 -3.15307,7.06966 -7.06966,7.06966h-20.03378c-3.91659,0 -7.06967,-3.15307 -7.06967,-7.06966v-20.03379c0,-3.91659 3.15308,-7.06966 7.06967,-7.06966z" fill="url(#color-1)" fill-rule="evenodd" stroke="#807500" stroke-width="0.5" stroke-linecap="round" stroke-linejoin="round"/><g fill-rule="nonzero" stroke="#000000" stroke-width="0" stroke-linejoin="miter"><g stroke-linecap="butt"><path d="M228.82519,186.08543v-12.28623h1.28713v12.28623z" fill="#4d4926"/><path d="M226.36794,173.79921c0,-1.71253 1.38828,-3.10081 3.10081,-3.10081c1.71253,0 3.10081,1.38828 3.10081,3.10081c0,1.71253 -1.38828,3.10081 -3.10081,3.10081c-1.71253,0 -3.10081,-1.38828 -3.10081,-3.10081z" fill="url(#color-2)"/></g><path d="M242.6796,186.99395c0.57101,-1.38894 1.93742,-2.3669 3.53224,-2.3669c2.10835,0 9.60958,3.81751 9.60958,3.81751" data-paper-data="{&quot;index&quot;:null}" fill="url(#color-3)" stroke-linecap="butt"/><g stroke-linecap="butt"><path d="M248.74642,186.08543v-12.28623h1.28713v12.28623z" fill="#4d4926"/><path d="M246.28918,173.79921c0,-1.71253 1.38828,-3.10081 3.10081,-3.10081c1.71253,0 3.10081,1.38828 3.10081,3.10081c0,1.71253 -1.38828,3.10081 -3.10081,3.10081c-1.71253,0 -3.10081,-1.38828 -3.10081,-3.10081z" fill="url(#color-4)"/></g><path d="M223.72143,188.44455c0,0 7.50123,-3.81751 9.60958,-3.81751c1.56942,0 2.91764,0.94705 3.50435,2.30083" data-paper-data="{&quot;index&quot;:null}" fill="url(#color-5)" stroke-linecap="butt"/><path d="M228.22246,187.82377c0,-5.84506 5.04787,-10.58341 11.27472,-10.58341c6.22686,0 11.27472,4.73836 11.27472,10.58341" fill="url(#color-6)" stroke-linecap="butt"/><path d="M235.65276,179.19043l5.83596,-3.42259l-0.57043,2.41337l3.94914,-1.05311l-2.545,2.72052" fill="url(#color-7)" stroke-linecap="round"/></g></g></g></svg>