<svg version="1.1" xmlns="http://www.w3.org/2000/svg" xmlns:xlink="http://www.w3.org/1999/xlink" width="34.17311" height="34.17311" viewBox="0,0,34.17311,34.17311"><g transform="translate(-302.91347,-162.91347)"><g data-paper-data="{&quot;isPaintingLayer&quot;:true}" stroke-miterlimit="10" stroke-dasharray="" stroke-dashoffset="0" style="mix-blend-mode: normal"><path d="M309.98314,162.91348h20.03378c3.9166,0 7.06966,3.15307 7.06966,7.06966v20.03379c0,3.91659 -3.15306,7.06966 -7.06966,7.06966h-20.03378c-3.91659,0 -7.06967,-3.15307 -7.06967,-7.06966v-20.03379c0,-3.91659 3.15308,-7.06966 7.06967,-7.06966z" fill-opacity="0.09677" fill="#191919" fill-rule="evenodd" stroke="none" stroke-width="4.43922" stroke-linecap="round" stroke-linejoin="round"/><g fill-rule="nonzero" stroke="#000000" stroke-width="0" stroke-linecap="butt" stroke-linejoin="miter"><path d="M309.488,180.66237l-0.69937,0.15234c0,0 -2.25469,-4.83991 -0.14711,-6.47841c2.41587,-1.87817 11.96235,-4.62862 13.31683,-4.4296c1.53064,0.22492 8.76271,4.77673 10.62286,7.23615c1.56995,2.07573 -0.98006,6.6574 -0.98006,6.6574l-0.61305,-0.46311c0,0 1.24527,-3.98112 -0.1375,-5.79225c-1.64083,-2.14914 -7.62518,-6.10658 -9.07388,-6.26387c-1.53582,-0.16675 -9.54862,2.04211 -11.78448,3.74778c-1.73383,1.32268 -0.50424,5.63356 -0.50424,5.63356z" fill="#000000"/><path d="M309.49165,180.63357l-0.70198,0.17292c0,0 -2.20543,-5.22888 -0.07724,-7.03011c2.4395,-2.06471 12.0288,-5.15333 13.38299,-4.95195c1.53031,0.22757 8.72305,5.08991 10.55914,7.73926c1.54964,2.23603 -1.05341,7.23658 -1.05341,7.23658l-0.60888,-0.49603c0,0 1.29003,-4.3346 -0.07504,-6.28545c-1.61984,-2.31494 -7.56957,-6.54565 -9.01855,-6.7007c-1.53612,-0.16438 -9.58379,2.3198 -11.84116,4.19533c-1.7505,1.4544 -0.56588,6.12015 -0.56588,6.12015z" fill="#b5b5b5"/><path d="M305.19288,183.04892c0.28526,-2.25241 2.15035,-3.87143 4.1658,-3.61617c0.18249,0.02311 -0.81958,8.18373 -1.03304,8.1567c-2.01544,-0.25526 -3.41802,-2.28812 -3.13276,-4.54053z" fill="#b5b5b5"/><path d="M307.36337,187.66497l1.05397,-8.32199c0,0 0.09765,-0.69007 0.9996,-0.57316c0.74914,0.0971 0.82504,0.80425 0.82504,0.80425l-1.05397,8.32199c0,0 -0.20346,0.56904 -0.9864,0.46988c-0.68703,-0.08701 -0.83823,-0.70096 -0.83823,-0.70096z" fill="#000000"/><path d="M330.64135,190.41571c-0.21346,-0.02704 0.85055,-8.1798 1.03303,-8.15669c2.01544,0.25526 3.41803,2.28812 3.13276,4.54053c-0.28526,2.25241 -2.15035,3.87142 -4.1658,3.61617z" data-paper-data="{&quot;index&quot;:null}" fill="#b5b5b5"/><path d="M329.53038,190.47241l1.05397,-8.32199c0,0 0.09766,-0.69008 0.99961,-0.57317c0.74914,0.0971 0.82504,0.80425 0.82504,0.80425l-1.05397,8.32199c0,0 -0.20347,0.56903 -0.98641,0.46987c-0.68703,-0.08701 -0.83823,-0.70096 -0.83823,-0.70096z" fill="#000000"/></g></g></g></svg>