<svg version="1.1" xmlns="http://www.w3.org/2000/svg" xmlns:xlink="http://www.w3.org/1999/xlink" width="668.53847" height="407.74281" viewBox="0,0,668.53847,407.74281"><defs><linearGradient x1="93.31937" y1="-57.24862" x2="93.31937" y2="190.49913" gradientUnits="userSpaceOnUse" id="color-1"><stop offset="0" stop-color="#cccccc"/><stop offset="1" stop-color="#575757"/></linearGradient><linearGradient x1="340.85955" y1="-56.98796" x2="340.85955" y2="190.75979" gradientUnits="userSpaceOnUse" id="color-2"><stop offset="0" stop-color="#ffffff"/><stop offset="1" stop-color="#575757"/></linearGradient><linearGradient x1="205.77772" y1="-60.69073" x2="205.77772" y2="61.26049" gradientUnits="userSpaceOnUse" id="color-3"><stop offset="0" stop-color="#ffffff"/><stop offset="1" stop-color="#575757"/></linearGradient><radialGradient cx="228.71301" cy="128.96205" r="266.59713" gradientUnits="userSpaceOnUse" id="color-4"><stop offset="0" stop-color="#210000" stop-opacity="0"/><stop offset="1" stop-color="#210000"/></radialGradient><linearGradient x1="233.07957" y1="-28.75467" x2="233.07957" y2="287.24533" gradientUnits="userSpaceOnUse" id="color-5"><stop offset="0" stop-color="#000000"/><stop offset="1" stop-color="#000000" stop-opacity="0"/></linearGradient></defs><g transform="translate(105.6073,93.76027)"><g data-paper-data="{&quot;isPaintingLayer&quot;:true}" fill-rule="nonzero" stroke-linejoin="miter" stroke-miterlimit="10" stroke-dasharray="" stroke-dashoffset="0" style="mix-blend-mode: normal"><path d="M-93.82716,313.72187l-9.47867,-370.9705l319.00079,118.48341l-2.36967,239.05896z" fill="url(#color-1)" stroke="none" stroke-width="0" stroke-linecap="butt"/><path d="M212.86032,300.55443l2.30541,-239.05897l327.65048,-118.48341l-9.73569,370.97049z" fill="url(#color-2)" stroke="none" stroke-width="0" stroke-linecap="butt"/><path d="M215.21432,72.17968l-252.87,-101.91356l420.26266,-30.95685l108.81801,27.2045z" fill="url(#color-3)" stroke="none" stroke-width="0" stroke-linecap="butt"/><path d="M196.89439,305.11101v-253.22501h91.18203v253.22501z" fill="none" stroke="none" stroke-width="0" stroke-linecap="butt"/><path d="M202.64108,302.89011c0,0 -0.63536,-94.38387 -0.79335,-118.01201c-0.05451,-8.15261 8.18688,-36.76129 40.20201,-36.9211c31.60235,-0.15775 39.85672,29.48704 39.84884,36.89673c-0.07659,46.24274 0.65429,117.98648 0.65429,117.98648l-10.49667,0.09614l-0.15882,-114.84311c0,0 0.07549,-3.0993 -2.81625,-3.15415c-3.43441,-0.06514 -2.94538,3.11562 -2.94538,3.11562l0.20548,114.86995l-48.21366,0.07222l-0.30539,-115.23309c0,0 0.27949,-2.919 -2.8856,-2.93443c-3.11083,-0.01515 -2.81569,2.90899 -2.81569,2.90899l0.35311,115.0668z" fill="#030000" stroke="#000000" stroke-width="0" stroke-linecap="butt"/><path d="M241.74008,259.61963c-0.81895,0 -1.48284,-0.66389 -1.48284,-1.48284c0,-0.81895 0.66389,-1.48284 1.48284,-1.48284c0.81895,0 1.48284,0.66389 1.48284,1.48284c0,0.81895 -0.66389,1.48284 -1.48284,1.48284z" data-paper-data="{&quot;index&quot;:null}" fill="#000202" stroke="none" stroke-width="1.5" stroke-linecap="butt"/><path d="M30.1181,103.33342c0,0 148.34404,-27.34053 148.47236,-28.20627c0.15053,-1.01567 21.71859,-9.30561 21.71859,-9.30561l41.67153,-159.58181l40.56133,167.96564l163.19632,36.67376c0,0 -163.04377,6.7968 -164.82396,17.14368c-1.5623,9.48098 -7.29782,17.22543 -7.29782,17.22543l-1.15522,-2.34735c0,0 -1.02266,2.19794 -2.16005,3.33274c-1.1374,1.13479 -3.43873,2.91273 -3.43873,2.91273l-0.09205,-3.70421c0,0 -7.0601,11.01795 -24.35066,10.87154c-16.30625,-0.25547 -26.07151,-10.6752 -26.07151,-10.6752l-0.1162,2.65484c0,0 -3.89477,-3.29276 -6.18145,-9.70754c-2.72545,-7.64567 -3.23946,-12.24324 -3.23946,-12.24324c0,0 -2.33908,1.89916 -5.71704,2.7744c-4.23278,1.09673 -6.94665,0.34526 -6.94665,0.34526c0,0 3.60795,-2.71717 5.58396,-4.76989c1.76007,-1.8284 2.64658,-3.37722 2.64658,-3.37722c0,0 -2.10758,1.0847 -4.23277,1.61795c-2.21739,0.5564 -4.03008,0.53093 -4.03008,0.53093z" fill="#000000" stroke="none" stroke-width="1.5" stroke-linecap="butt"/><path d="M214.32347,113.70023c-0.57709,-7.29323 0.335,-17.15448 0.335,-17.15448c0,0 3.41059,-0.04124 13.91429,-3.14424c8.0696,-2.38394 20.54731,-9.48722 20.54731,-9.48722c0,0 -2.16005,3.00503 -3.40781,4.46015c-1.32651,1.54696 -3.99292,4.56297 -3.99292,4.56297c0,0 7.838,-1.66761 14.67476,-4.72931c8.56837,-3.53575 10.59252,-6.05309 12.95042,-4.5927c2.7829,1.72362 1.03006,23.1827 0.71846,28.74062c-0.42163,5.66922 -2.53327,9.49969 -3.15031,12.52053c-0.61704,3.02084 -0.4096,6.13662 -2.20622,16.0397c-1.12121,6.18021 -4.16183,8.92466 -10.01942,14.66081c-5.85759,5.73616 -9.05378,9.25275 -13.01359,9.32173c-3.81077,0.06639 -8.93565,-5.1002 -13.93542,-10.38244c-5.32393,-5.62474 -8.87489,-8.47713 -9.71551,-15.13975c-0.75707,-6.00039 -0.77653,-9.90853 -1.12266,-15.24835c-0.25298,-3.90273 -2.26119,-6.44504 -2.57636,-10.42801z" fill="#000202" stroke="#000000" stroke-width="1.5" stroke-linecap="butt"/><path d="M262.39349,98.57987c0,0 1.52429,0.31807 4.2558,1.11029c2.49492,0.72361 4.44935,1.74403 4.44935,1.74403l0.1951,1.17035c0,0 -7.24963,-3.12997 -15.1158,-2.4706c-6.2896,0.52724 -9.96319,2.8124 -9.96319,2.8124l0.04575,-4.17683c0,0 3.12748,-1.70421 7.86366,-1.85557c4.90428,-0.15672 8.09084,0.59125 8.09084,0.59125z" data-paper-data="{&quot;index&quot;:null}" fill="#000202" stroke="none" stroke-width="1.5" stroke-linecap="butt"/><path d="M241.95563,143.12733c-1.03376,0 -3.5381,-3.26042 -3.7867,-5.3637c-0.22243,-1.88186 1.31512,-3.82799 3.7867,-3.82799c2.47159,0 4.2021,0.49077 4.02999,4.18853c-0.14607,3.13818 -1.55841,5.00317 -4.02999,5.00317z" fill="#000202" stroke="#000000" stroke-width="1.15" stroke-linecap="butt"/><path d="M245.55773,113.03361c0,0 0.1026,3.96976 0.00576,7.12662c-0.19174,6.25113 -1.08147,27.7607 -1.08147,27.7607l-2.98167,0.00864c0,0 -0.80294,-4.17274 -1.12322,-9.49979c-0.43353,-7.21063 -0.4495,-16.29321 -0.76344,-19.63229c-0.29758,-3.16513 -0.89593,-5.71453 -0.89593,-5.71453" fill="#000202" stroke="#000000" stroke-width="1.3" stroke-linecap="round"/><path d="M216.02313,123.82345c0,0 -4.93211,-3.51705 -6.16417,-8.97502c-1.29636,-5.74284 -1.46118,-9.7328 0.48013,-9.99193c1.94131,-0.25915 2.70321,2.37692 3.73262,8.35569c1.0294,5.97877 1.95143,10.61127 1.95143,10.61127z" data-paper-data="{&quot;index&quot;:null}" fill="#000202" stroke="#000000" stroke-width="1" stroke-linecap="butt"/><path d="M215.82055,119.87589c0,0 -3.56385,-2.92338 -4.31816,-8.45061c-0.42079,-3.08327 2.15675,-2.28016 2.15675,-2.28016" fill="#000202" stroke="#000000" stroke-width="0.25" stroke-linecap="round"/><path d="M218.83394,113.21999c0.07093,-4.89188 4.83834,-8.93609 10.21137,-8.8582c5.37302,0.0779 9.02724,4.2484 8.95632,9.14029c-0.07093,4.89188 -4.12352,8.79439 -9.49655,8.7165c-5.37302,-0.0779 -9.74207,-4.1067 -9.67114,-8.99859z" fill="#ffffff" stroke="#000000" stroke-width="1.4" stroke-linecap="butt"/><path d="M220.65084,111.41183c0.04848,-2.85134 4.71332,-5.53736 8.05752,-5.49603c1.76462,0.02181 4.92342,1.69874 6.64176,4.38022c1.53819,2.40034 1.75655,5.72983 1.48398,7.37519c-1.33618,8.06589 -5.54275,20.2393 -7.8783,20.21044c-2.05665,-0.02542 -6.82636,-8.11899 -8.57879,-15.65236c-1.09711,-4.71626 0.25517,-9.71967 0.27383,-10.81746z" fill="#000202" stroke="none" stroke-width="1.5" stroke-linecap="butt"/><path d="M245.89023,113.22072c0.20353,-4.88817 4.45264,-8.85847 9.77048,-8.85847c5.31783,0 9.27453,3.96607 9.27453,8.85847c0,4.8924 -3.88585,9.07104 -9.69964,9.14188c-5.52997,0.06739 -9.55792,-4.03692 -9.34537,-9.14188z" fill="#ffffff" stroke="#000000" stroke-width="1.4" stroke-linecap="butt"/><path d="M222.29535,102.67615c0,0 3.36963,-1.819 8.03244,-2.28178c5.16698,-0.51283 7.76823,-0.06628 7.76823,-0.06628l0.29508,4.13747c0,0 -3.83554,-0.68065 -8.01795,-0.52113c-5.59346,0.21333 -6.64488,1.43293 -10.89774,1.89119c-3.64408,0.39266 -6.73723,0.15884 -6.73723,0.15884l-0.02589,-1.23155c0,0 3.59517,0.07398 5.23371,-0.06836c1.35239,-0.11749 3.9757,-0.93808 3.9757,-0.93808z" fill="#000202" stroke="none" stroke-width="1.5" stroke-linecap="butt"/><path d="M270.25629,113.21218c1.0294,-5.97877 1.7913,-8.61483 3.73262,-8.35569c1.94131,0.25914 1.77649,4.24909 0.48013,9.99193c-1.23206,5.45797 -6.16417,8.97502 -6.16417,8.97502c0,0 0.92203,-4.6325 1.95143,-10.61127z" data-paper-data="{&quot;index&quot;:null}" fill="#000202" stroke="#000000" stroke-width="1" stroke-linecap="butt"/><path d="M270.66885,109.14512c0,0 2.57754,-0.80312 2.15675,2.28016c-0.75431,5.52723 -4.31816,8.45061 -4.31816,8.45061" data-paper-data="{&quot;index&quot;:null}" fill="#000202" stroke="#000000" stroke-width="0.25" stroke-linecap="round"/><path d="M267.98216,104.33552c0,-1.38071 1.11929,-2.5 2.5,-2.5c1.38071,0 2.5,1.11929 2.5,2.5c0,1.38071 -1.11929,2.5 -2.5,2.5c-1.38071,0 -2.5,-1.11929 -2.5,-2.5z" fill="#000000" stroke="none" stroke-width="0.5" stroke-linecap="butt"/><g stroke="none" stroke-width="0" stroke-linecap="butt"><path d="M-37.8841,284.36746v-310.81081h533.19424v310.81081z" fill="url(#color-4)"/><path d="M-105.6073,292.80275v-326h84.80636v326z" fill="#210000"/><path d="M478.1248,292.80275v-326h84.80636v326z" fill="#210000"/></g><path d="M-13.33225,287.24533v-316h492.82364v316z" fill="url(#color-5)" stroke="none" stroke-width="0" stroke-linecap="butt"/><path d="M247.73417,110.99516c0.04848,-2.85134 4.71332,-5.53736 8.05752,-5.49602c1.76461,0.02181 4.92341,1.69873 6.64176,4.38022c1.53818,2.40035 1.75655,5.72983 1.48398,7.3752c-1.33619,8.06589 -5.54275,20.23931 -7.8783,20.21044c-2.05665,-0.02542 -6.82636,-8.11899 -8.57879,-15.65236c-1.0971,-4.71626 0.25517,-9.71967 0.27383,-10.81746z" fill="#000202" stroke="none" stroke-width="1.5" stroke-linecap="butt"/></g></g></svg>