<svg version="1.1" xmlns="http://www.w3.org/2000/svg" xmlns:xlink="http://www.w3.org/1999/xlink" width="34.17311" height="34.17311" viewBox="0,0,34.17311,34.17311"><g transform="translate(-302.91346,-162.91346)"><g data-paper-data="{&quot;isPaintingLayer&quot;:true}" stroke-miterlimit="10" stroke-dasharray="" stroke-dashoffset="0" style="mix-blend-mode: normal"><path d="M309.98314,162.91347h20.03378c3.9166,0 7.06966,3.15307 7.06966,7.06966v20.03379c0,3.91659 -3.15306,7.06966 -7.06966,7.06966h-20.03378c-3.91659,0 -7.06967,-3.15307 -7.06967,-7.06966v-20.03379c0,-3.91659 3.15308,-7.06966 7.06967,-7.06966z" fill-opacity="0.09677" fill="#191919" fill-rule="evenodd" stroke="none" stroke-width="4.43922" stroke-linecap="round" stroke-linejoin="round"/><g data-paper-data="{&quot;index&quot;:null}" fill-rule="nonzero" stroke-width="0" stroke-linecap="butt" stroke-linejoin="miter"><path d="M326.0107,190.1502l-7.39362,-21.12583l8.00092,-1.34376l7.39362,21.12583z" fill="#000000" stroke="none"/><path d="M323.49003,179.92232l-3.28606,-9.38926l6.00069,-1.00782l3.28605,9.38926z" fill="#e6e6e6" stroke="#000000"/></g><g data-paper-data="{&quot;index&quot;:null}" fill-rule="nonzero" stroke-width="0" stroke-linecap="butt" stroke-linejoin="miter"><path d="M313.38194,192.31936l-7.39362,-21.12583l8.00092,-1.34376l7.39362,21.12583z" fill="#000000" stroke="none"/><path d="M310.86127,182.09147l-3.28606,-9.38926l6.00069,-1.00782l3.28605,9.38926z" fill="#e6e6e6" stroke="#000000"/></g></g></g></svg>