<svg version="1.1" xmlns="http://www.w3.org/2000/svg" xmlns:xlink="http://www.w3.org/1999/xlink" width="34.17311" height="34.17311" viewBox="0,0,34.17311,34.17311"><g transform="translate(-222.91344,-162.91344)"><g data-paper-data="{&quot;isPaintingLayer&quot;:true}" stroke-miterlimit="10" stroke-dasharray="" stroke-dashoffset="0" style="mix-blend-mode: normal"><path d="M229.98312,162.91345h20.03378c3.9166,0 7.06966,3.15307 7.06966,7.06966v20.03379c0,3.91659 -3.15306,7.06966 -7.06966,7.06966h-20.03378c-3.91659,0 -7.06967,-3.15307 -7.06967,-7.06966v-20.03379c0,-3.91659 3.15308,-7.06966 7.06967,-7.06966z" fill-opacity="0.09677" fill="#191919" fill-rule="evenodd" stroke="none" stroke-width="4.43922" stroke-linecap="round" stroke-linejoin="round"/><g fill="#000000" stroke="#ffffff" stroke-width="0.5"><path d="M238.82694,181.48353h-12.99158c0,0 -0.88031,-0.27083 -0.86973,-1.19588c0.01158,-1.01206 0.86973,-1.19588 0.86973,-1.19588h12.99158z" fill-rule="nonzero" stroke-linecap="butt" stroke-linejoin="miter"/><path d="M229.51303,185.44379v-10.33333h12.66667v10.33333z" fill-rule="nonzero" stroke-linecap="butt" stroke-linejoin="miter"/><path d="M241.1731,179.09177h12.99158c0,0 0.85816,0.18382 0.86973,1.19588c0.01058,0.92505 -0.86973,1.19588 -0.86973,1.19588h-12.99158z" data-paper-data="{&quot;index&quot;:null}" fill-rule="nonzero" stroke-linecap="butt" stroke-linejoin="miter"/><path d="M228.52494,186.21803c-1.39983,0 -2.52677,-1.12695 -2.52677,-2.52678v-7.16029c0,-1.39984 1.12694,-2.52678 2.52677,-2.52678h23.10532c1.39983,0 2.52678,1.12695 2.52678,2.52678v7.16029c0,1.39984 -1.12695,2.52678 -2.52678,2.52678zM238.80351,175.32728l-6.69918,0.18166l-2.60723,0.74684c0,0 -0.3893,3.07537 -0.30191,4.38616c0.08655,1.29828 0.82374,3.44139 0.82374,3.44139c0,0 2.57617,0.77417 4.33672,0.88507c1.90923,0.12026 6.70884,-0.18929 6.70884,-0.18929l2.04386,-9.04518z" fill-rule="evenodd" stroke-linecap="round" stroke-linejoin="round"/><path d="M228.80212,182.92421v-5.77116c0,-1.12826 0.90831,-2.03656 2.03657,-2.03656h18.62278c1.12826,0 2.03656,0.9083 2.03656,2.03656v5.77116c0,1.12826 -0.9083,2.03657 -2.03656,2.03657h-18.62278c-1.12826,0 -2.03657,-0.90831 -2.03657,-2.03657zM232.7998,176.49878l-1.74906,-0.17615l-0.18751,1.74782l-1.10455,1.27658l0.47771,1.25739l-0.3412,2.02786l1.23601,0.44585l1.13009,1.50558l1.91913,-0.05109l2.2132,-0.05357l1.68152,-1.20844l1.49181,-0.66101l-0.41586,-2.17914l1.02481,-1.99167l-1.95924,-0.01215l0.20658,-0.91681l-1.10368,-0.41624l-0.70975,-1.184l-1.0647,0.44155l-1.65588,-0.70418z" fill-rule="evenodd" stroke-linecap="round" stroke-linejoin="round"/></g></g></g></svg>