<svg version="1.1" xmlns="http://www.w3.org/2000/svg" xmlns:xlink="http://www.w3.org/1999/xlink" width="34.67311" height="34.67311" viewBox="0,0,34.67311,34.67311"><defs><linearGradient x1="320" y1="162.91346" x2="320" y2="197.08658" gradientUnits="userSpaceOnUse" id="color-1"><stop offset="0" stop-color="#000000"/><stop offset="1" stop-color="#7f7f7f"/></linearGradient></defs><g transform="translate(-302.66345,-162.66346)"><g data-paper-data="{&quot;isPaintingLayer&quot;:true}" stroke-miterlimit="10" stroke-dasharray="" stroke-dashoffset="0" style="mix-blend-mode: normal"><path d="M309.98312,162.91346h20.03378c3.9166,0 7.06966,3.15307 7.06966,7.06966v20.03379c0,3.91659 -3.15306,7.06966 -7.06966,7.06966h-20.03378c-3.91659,0 -7.06967,-3.15307 -7.06967,-7.06966v-20.03379c0,-3.91659 3.15308,-7.06966 7.06967,-7.06966z" fill="url(#color-1)" fill-rule="evenodd" stroke="#7f7f7f" stroke-width="0.5" stroke-linecap="round" stroke-linejoin="round"/><g fill-rule="nonzero" stroke="none" stroke-width="0" stroke-linecap="butt" stroke-linejoin="miter"><path d="M332.50765,186.34817c-0.9395,4.45345 -6.25298,2.29054 -13.06709,0.85304c-6.81412,-1.4375 -12.5485,-1.60524 -11.609,-6.05869c0.9395,-4.45345 3.14508,-12.76688 15.01122,-10.06869c11.56546,2.62982 10.60438,10.82088 9.66488,15.27433z" fill="#3b383b"/><path d="M334.58133,187.92553c-0.39911,1.89188 -7.25094,2.04835 -15.30398,0.34949c-8.05305,-1.69886 -14.25779,-4.60974 -13.85868,-6.50161c0.39911,-1.89188 7.25094,-2.04835 15.30398,-0.34949c8.05305,1.69886 14.25779,4.60974 13.85868,6.50162z" fill="#222023"/><path d="M332.15616,187.41391c-0.26498,1.25609 -5.92229,1.12621 -12.63596,-0.2901c-6.71366,-1.41631 -11.94135,-3.58271 -11.67637,-4.8388c0.26498,-1.25609 5.92229,-1.12621 12.63596,0.2901c6.71366,1.41631 11.94135,3.58271 11.67637,4.8388z" fill="#000000"/></g></g></g></svg>