<svg version="1.1" xmlns="http://www.w3.org/2000/svg" xmlns:xlink="http://www.w3.org/1999/xlink" width="34.67311" height="34.67311" viewBox="0,0,34.67311,34.67311"><defs><linearGradient x1="240.00003" y1="162.9135" x2="240.00003" y2="197.08661" gradientUnits="userSpaceOnUse" id="color-1"><stop offset="0" stop-color="#000000"/><stop offset="1" stop-color="#1a0b00"/></linearGradient><linearGradient x1="227.33248" y1="172.27909" x2="227.33248" y2="178.26993" gradientUnits="userSpaceOnUse" id="color-2"><stop offset="0" stop-color="#331600"/><stop offset="1" stop-color="#994200"/></linearGradient><linearGradient x1="252.66756" y1="172.27909" x2="252.66756" y2="178.26993" gradientUnits="userSpaceOnUse" id="color-3"><stop offset="0" stop-color="#331600"/><stop offset="1" stop-color="#994200"/></linearGradient><linearGradient x1="239.93836" y1="177.49726" x2="239.93836" y2="187.72097" gradientUnits="userSpaceOnUse" id="color-4"><stop offset="0" stop-color="#1a0b00"/><stop offset="1" stop-color="#803700"/></linearGradient></defs><g transform="translate(-222.66348,-162.6635)"><g data-paper-data="{&quot;isPaintingLayer&quot;:true}" stroke-miterlimit="10" stroke-dasharray="" stroke-dashoffset="0" style="mix-blend-mode: normal"><path d="M229.98314,162.9135h20.03379c3.9166,0 7.06966,3.15307 7.06966,7.06966v20.03379c0,3.91659 -3.15306,7.06966 -7.06966,7.06966h-20.03379c-3.91659,0 -7.06966,-3.15307 -7.06966,-7.06966v-20.03379c0,-3.91659 3.15307,-7.06966 7.06966,-7.06966z" fill="url(#color-1)" fill-rule="evenodd" stroke="#803700" stroke-width="0.5" stroke-linecap="round" stroke-linejoin="round"/><g fill-rule="nonzero" stroke="#000000" stroke-width="0" stroke-linecap="butt" stroke-linejoin="miter"><path d="M235.28528,184.10652l-8.3924,-8.3924l0.8792,-0.8792l8.3924,8.3924z" fill="#4d3726"/><path d="M225.2144,177.3926c-1.16978,-1.16978 -1.16978,-3.06638 0,-4.23617c1.16978,-1.16978 3.06638,-1.16978 4.23617,0c1.16978,1.16978 1.16978,3.06638 0,4.23617c-1.16978,1.16978 -3.06638,1.16978 -4.23617,0z" fill="url(#color-2)"/></g><g data-paper-data="{&quot;index&quot;:null}" fill-rule="nonzero" stroke="#000000" stroke-width="0" stroke-linecap="butt" stroke-linejoin="miter"><path d="M243.83556,183.22731l8.3924,-8.3924l0.8792,0.8792l-8.3924,8.3924z" fill="#4d3726"/><path d="M250.54948,177.3926c-1.16978,-1.16978 -1.16978,-3.06638 0,-4.23617c1.16978,-1.16978 3.06638,-1.16978 4.23617,0c1.16978,1.16978 1.16978,3.06638 0,4.23617c-1.16978,1.16978 -3.06638,1.16978 -4.23617,0z" fill="url(#color-3)"/></g><path d="M229.04684,187.72097c0,-5.6464 4.8763,-10.22371 10.89152,-10.22371c6.01522,0 10.89153,4.57732 10.89153,10.22371" fill="url(#color-4)" fill-rule="nonzero" stroke="#000000" stroke-width="0" stroke-linecap="butt" stroke-linejoin="miter"/></g></g></svg>