<svg version="1.1" xmlns="http://www.w3.org/2000/svg" xmlns:xlink="http://www.w3.org/1999/xlink" width="34.17311" height="34.17311" viewBox="0,0,34.17311,34.17311"><g transform="translate(-222.91348,-162.9135)"><g data-paper-data="{&quot;isPaintingLayer&quot;:true}" stroke-miterlimit="10" stroke-dasharray="" stroke-dashoffset="0" style="mix-blend-mode: normal"><path d="M229.98316,162.9135h20.03378c3.9166,0 7.06966,3.15307 7.06966,7.06966v20.03379c0,3.91659 -3.15306,7.06966 -7.06966,7.06966h-20.03378c-3.91659,0 -7.06967,-3.15307 -7.06967,-7.06966v-20.03379c0,-3.91659 3.15308,-7.06966 7.06967,-7.06966z" fill-opacity="0.09677" fill="#191919" fill-rule="evenodd" stroke="none" stroke-width="4.43922" stroke-linecap="round" stroke-linejoin="round"/><g fill="#000000" fill-rule="nonzero" stroke="#ffffff" stroke-width="0.5" stroke-linecap="butt" stroke-linejoin="miter"><path d="M228.93112,190.89391c0,-6.00322 5.13359,-11.07328 11.52893,-11.07328c0.06079,0 -0.52359,0.61816 -0.26818,2.5953c0.20212,1.56467 1.00224,1.65818 1.00224,1.65818c0,0 -0.55474,1.10943 -0.27982,2.65606c0.331,1.86204 0.89821,1.91779 0.89821,1.91779c0,0 -0.8209,1.0059 -0.68227,2.50807c0.01039,0.1126 -0.48821,0.18382 -1.28916,0.22274c-3.13659,0.15239 -10.90994,-0.19073 -10.90994,-0.48486z"/><path d="M226.9439,191.25c0,-6.7764 5.85217,-12.26974 13.0712,-12.26974c0.06862,0 -0.64844,0.75519 -0.36014,2.98696c0.22815,1.76619 1.13132,2.04402 1.13132,2.04402c0,0 -0.62619,0.90779 -0.31586,2.65361c0.37363,2.10187 1.01389,2.10737 1.01389,2.10737c0,0 -0.8403,1.00589 -0.78535,2.55152c0.00513,0.14432 -13.75505,0.40395 -13.75505,-0.07373z"/></g></g></g></svg>