<svg version="1.1" xmlns="http://www.w3.org/2000/svg" xmlns:xlink="http://www.w3.org/1999/xlink" width="34.67311" height="34.67311" viewBox="0,0,34.67311,34.67311"><defs><linearGradient x1="240.00005" y1="162.91349" x2="240.00005" y2="197.08663" gradientUnits="userSpaceOnUse" id="color-1"><stop offset="0" stop-color="#000000"/><stop offset="1" stop-color="#19191a"/></linearGradient><linearGradient x1="229.76852" y1="165.71176" x2="229.76852" y2="172.08207" gradientUnits="userSpaceOnUse" id="color-2"><stop offset="0" stop-color="#33270a"/><stop offset="1" stop-color="#99761f"/></linearGradient><linearGradient x1="250.23156" y1="165.71176" x2="250.23156" y2="172.08207" gradientUnits="userSpaceOnUse" id="color-3"><stop offset="0" stop-color="#33270a"/><stop offset="1" stop-color="#99761f"/></linearGradient><linearGradient x1="240.05583" y1="176.81852" x2="240.05583" y2="189.71047" gradientUnits="userSpaceOnUse" id="color-4"><stop offset="0" stop-color="#1a1405"/><stop offset="1" stop-color="#806319"/></linearGradient></defs><g transform="translate(-222.6635,-162.66349)"><g data-paper-data="{&quot;isPaintingLayer&quot;:true}" stroke-miterlimit="10" stroke-dasharray="" stroke-dashoffset="0" style="mix-blend-mode: normal"><path d="M229.98316,162.91349h20.03379c3.9166,0 7.06966,3.15307 7.06966,7.06966v20.03379c0,3.91659 -3.15306,7.06966 -7.06966,7.06966h-20.03379c-3.91659,0 -7.06966,-3.15307 -7.06966,-7.06966v-20.03379c0,-3.91659 3.15307,-7.06966 7.06966,-7.06966z" fill="url(#color-1)" fill-rule="evenodd" stroke="#777780" stroke-width="0.5" stroke-linecap="round" stroke-linejoin="round"/><g fill-rule="nonzero" stroke="#000000" stroke-width="0" stroke-linecap="butt" stroke-linejoin="miter"><path d="M229.10746,181.51731v-12.62037h1.32213v12.62037z" fill="#4d4636"/><path d="M226.58338,168.89691c0,-1.75911 1.42604,-3.18515 3.18514,-3.18515c1.75911,0 3.18514,1.42604 3.18514,3.18515c0,1.75911 -1.42604,3.18514 -3.18514,3.18514c-1.75911,0 -3.18514,-1.42603 -3.18514,-3.18514z" fill="url(#color-2)"/></g><g fill-rule="nonzero" stroke="#000000" stroke-width="0" stroke-linecap="butt" stroke-linejoin="miter"><path d="M249.57049,181.51731v-12.62037h1.32214v12.62037z" fill="#4d4636"/><path d="M247.04642,168.89691c0,-1.75911 1.42603,-3.18515 3.18514,-3.18515c1.75911,0 3.18515,1.42604 3.18515,3.18515c0,1.75911 -1.42604,3.18514 -3.18515,3.18514c-1.75911,0 -3.18514,-1.42603 -3.18514,-3.18514z" fill="url(#color-3)"/></g><path d="M236.41862,187.62298h7.27443c0.44072,0 0.79552,0.3548 0.79552,0.79552v3.30399c0,0.44072 -0.3548,0.79552 -0.79552,0.79552h-7.27442c-0.44072,0 -0.79552,-0.3548 -0.79552,-0.79552v-3.30399c0,-0.44072 0.3548,-0.79552 0.79552,-0.79552z" fill="#000000" fill-rule="evenodd" stroke="#000000" stroke-width="0" stroke-linecap="round" stroke-linejoin="round"/><path d="M230.47656,176.81852h19.15854c1.16072,0 2.09516,0.93444 2.09516,2.09516v8.70165c0,1.16072 -0.93444,2.09516 -2.09516,2.09516h-19.15853c-1.16072,0 -2.09516,-0.93444 -2.09516,-2.09516v-8.70165c0,-1.16072 0.93444,-2.09516 2.09516,-2.09516z" fill="url(#color-4)" fill-rule="evenodd" stroke="#000000" stroke-width="0" stroke-linecap="round" stroke-linejoin="round"/><path d="M231.9066,177.78078h16.29846c0.98745,0 1.78239,0.79494 1.78239,1.78238v7.40264c0,0.98744 -0.79495,1.78238 -1.78239,1.78238h-16.29846c-0.98744,0 -1.78239,-0.79494 -1.78239,-1.78238v-7.40264c0,-0.98744 0.79495,-1.78238 1.78239,-1.78238z" fill="#000000" fill-rule="evenodd" stroke="#000000" stroke-width="0" stroke-linecap="round" stroke-linejoin="round"/></g></g></svg>