<svg version="1.1" xmlns="http://www.w3.org/2000/svg" xmlns:xlink="http://www.w3.org/1999/xlink" width="35.375" height="35.37434" viewBox="0,0,35.375,35.37434"><defs><linearGradient x1="239.52411" y1="162.43783" x2="239.52411" y2="196.61094" gradientUnits="userSpaceOnUse" id="color-1"><stop offset="0" stop-color="#000000"/><stop offset="1" stop-color="#001a02"/></linearGradient><linearGradient x1="246.07627" y1="171.61697" x2="246.07627" y2="187.8812" gradientUnits="userSpaceOnUse" id="color-2"><stop offset="0" stop-color="#000000"/><stop offset="1" stop-color="#4d2800"/></linearGradient><linearGradient x1="241.1058" y1="168.00567" x2="251.27279" y2="180.70045" gradientUnits="userSpaceOnUse" id="color-3"><stop offset="0" stop-color="#000000"/><stop offset="1" stop-color="#4d2800"/></linearGradient><linearGradient x1="242.1492" y1="170.606" x2="254.08036" y2="185.50356" gradientUnits="userSpaceOnUse" id="color-4"><stop offset="0" stop-color="#000000"/><stop offset="1" stop-color="#4d2800"/></linearGradient><linearGradient x1="238.73474" y1="167.80765" x2="228.61454" y2="180.53974" gradientUnits="userSpaceOnUse" id="color-5"><stop offset="0" stop-color="#000000"/><stop offset="1" stop-color="#4d2800"/></linearGradient><linearGradient x1="237.70091" y1="170.4118" x2="225.82465" y2="185.35314" gradientUnits="userSpaceOnUse" id="color-6"><stop offset="0" stop-color="#000000"/><stop offset="1" stop-color="#4d2800"/></linearGradient><linearGradient x1="245.26518" y1="174.29886" x2="245.26518" y2="193.38524" gradientUnits="userSpaceOnUse" id="color-7"><stop offset="0" stop-color="#000000"/><stop offset="1" stop-color="#4d2800"/></linearGradient><linearGradient x1="233.03493" y1="171.61698" x2="233.03493" y2="187.88121" gradientUnits="userSpaceOnUse" id="color-8"><stop offset="0" stop-color="#000000"/><stop offset="1" stop-color="#4d2800"/></linearGradient><linearGradient x1="233.84602" y1="174.29887" x2="233.84602" y2="193.38524" gradientUnits="userSpaceOnUse" id="color-9"><stop offset="0" stop-color="#000000"/><stop offset="1" stop-color="#4d2800"/></linearGradient><linearGradient x1="243.29106" y1="174.47085" x2="239.68378" y2="193.21324" gradientUnits="userSpaceOnUse" id="color-10"><stop offset="0" stop-color="#000000"/><stop offset="1" stop-color="#4d2800"/></linearGradient><linearGradient x1="235.5792" y1="174.47448" x2="239.22392" y2="193.20962" gradientUnits="userSpaceOnUse" id="color-11"><stop offset="0" stop-color="#000000"/><stop offset="1" stop-color="#4d2800"/></linearGradient><radialGradient cx="239.50558" cy="174.79444" r="5.23614" gradientUnits="userSpaceOnUse" id="color-12"><stop offset="0" stop-color="#808080"/><stop offset="1" stop-color="#1a0000"/></radialGradient></defs><g transform="translate(-222.18754,-162.18783)"><g data-paper-data="{&quot;isPaintingLayer&quot;:true}" stroke-miterlimit="10" stroke-dasharray="" stroke-dashoffset="0" style="mix-blend-mode: normal"><path d="M257.56253,169.8317v20.49804c0,4.00745 -3.22497,7.23243 -7.23242,7.23243h-20.5c-3.66107,0 -6.66147,-2.69385 -7.1543,-6.21484c0.7952,3.03475 3.54108,5.26367 6.83204,5.26367h20.0332c3.9166,0 7.07032,-3.15372 7.07032,-7.07031v-20.03321c0,-3.2976 -2.23906,-6.0451 -5.28321,-6.83398c3.52994,0.48496 6.23438,3.49081 6.23438,7.15821z" fill-opacity="0.29839" fill="#000000" fill-rule="evenodd" stroke="none" stroke-width="4.54219" stroke-linecap="round" stroke-linejoin="round"/><path d="M229.50721,162.43783h20.03378c3.9166,0 7.06966,3.15307 7.06966,7.06966v20.03379c0,3.91659 -3.15307,7.06966 -7.06966,7.06966h-20.03378c-3.91659,0 -7.06967,-3.15307 -7.06967,-7.06966v-20.03379c0,-3.91659 3.15308,-7.06966 7.06967,-7.06966z" fill="url(#color-1)" fill-rule="evenodd" stroke="#00800b" stroke-width="0.5" stroke-linecap="round" stroke-linejoin="round"/><path d="M243.68458,172.89326c4.43769,3.1418 11.80716,13.24369 7.84989,14.83027c-3.50524,1.40534 -3.47606,-6.94061 -9.01213,-10.86047c-4.74893,-3.36252 -3.58688,-7.33208 1.16223,-3.96981z" data-paper-data="{&quot;index&quot;:null}" fill="url(#color-2)" fill-rule="nonzero" stroke="#000000" stroke-width="0" stroke-linecap="butt" stroke-linejoin="miter"/><path d="M240.03682,170.49695c5.42775,-0.32178 17.4947,2.95632 15.39771,6.66845c-1.85746,3.28809 -7.05185,-3.24445 -13.8233,-2.84336c-5.80865,0.34407 -7.38307,-3.48072 -1.57443,-3.82509z" data-paper-data="{&quot;index&quot;:null}" fill="url(#color-3)" fill-rule="nonzero" stroke="#000000" stroke-width="0" stroke-linecap="butt" stroke-linejoin="miter"/><path d="M243.68601,172.45986c5.16495,1.69921 15.17732,9.18985 11.86091,11.86914c-2.93759,2.37323 -5.36195,-5.61289 -11.80541,-7.73307c-5.52731,-1.81874 -5.58291,-5.95451 -0.05551,-4.13607z" data-paper-data="{&quot;index&quot;:null}" fill="url(#color-4)" fill-rule="nonzero" stroke="#000000" stroke-width="0" stroke-linecap="butt" stroke-linejoin="miter"/><path d="M239.81291,170.29497c5.80987,0.32299 4.24955,4.15355 -1.56034,3.83086c-6.77287,-0.37617 -11.9432,6.17542 -13.81275,2.89419c-2.11063,-3.70439 9.94418,-7.02686 15.37308,-6.72505z" data-paper-data="{&quot;index&quot;:null}" fill="url(#color-5)" fill-rule="nonzero" stroke="#000000" stroke-width="0" stroke-linecap="butt" stroke-linejoin="miter"/><path d="M236.17097,172.27129c5.52067,-1.83877 5.48029,2.29719 -0.04028,4.13624c-6.43562,2.14389 -8.83058,10.13887 -11.77688,7.77645c-3.32624,-2.66708 6.6585,-10.19451 11.81716,-11.91271z" data-paper-data="{&quot;index&quot;:null}" fill="url(#color-6)" fill-rule="nonzero" stroke="#000000" stroke-width="0" stroke-linecap="butt" stroke-linejoin="miter"/><path d="M245.30584,176.70654c2.96922,4.55497 6.1017,16.66054 1.83827,16.67868c-3.77643,0.01606 -0.67649,-7.73288 -4.38047,-13.41565c-3.17733,-4.87478 -0.63539,-8.13765 2.54219,-3.26304z" data-paper-data="{&quot;index&quot;:null}" fill="url(#color-7)" fill-rule="nonzero" stroke="#000000" stroke-width="0" stroke-linecap="butt" stroke-linejoin="miter"/><path d="M235.42663,172.89326c4.74911,-3.36227 5.91116,0.60729 1.16223,3.96981c-5.53607,3.91986 -5.50689,12.2658 -9.01213,10.86047c-3.95727,-1.58658 3.4122,-11.68847 7.84989,-14.83027z" data-paper-data="{&quot;index&quot;:null}" fill="url(#color-8)" fill-rule="nonzero" stroke="#000000" stroke-width="0" stroke-linecap="butt" stroke-linejoin="miter"/><path d="M233.80537,176.70654c3.17758,-4.87461 5.71952,-1.61174 2.54219,3.26303c-3.70397,5.68278 -0.60404,13.43171 -4.38047,13.41565c-4.26343,-0.01815 -1.13095,-12.12372 1.83827,-16.67869z" data-paper-data="{&quot;index&quot;:null}" fill="url(#color-9)" fill-rule="nonzero" stroke="#000000" stroke-width="0" stroke-linecap="butt" stroke-linejoin="miter"/><path d="M242.87595,176.84282c2.05482,5.03405 2.84292,17.51349 -1.3471,16.72552c-3.71141,-0.69797 0.7972,-7.72136 -1.76599,-14.00176c-2.19874,-5.38744 0.91406,-8.11108 3.11308,-2.72376z" data-paper-data="{&quot;index&quot;:null}" fill="url(#color-10)" fill-rule="nonzero" stroke="#000000" stroke-width="0" stroke-linecap="butt" stroke-linejoin="miter"/><path d="M235.99906,176.84561c2.18825,-5.39169 5.30649,-2.67428 3.11852,2.71753c-2.55062,6.28552 1.972,13.29988 -1.738,14.00527c-4.18844,0.79633 -3.42529,-11.68465 -1.38053,-16.7228z" data-paper-data="{&quot;index&quot;:null}" fill="url(#color-11)" fill-rule="nonzero" stroke="#000000" stroke-width="0" stroke-linecap="butt" stroke-linejoin="miter"/><path d="M239.14184,169.57096c2.88485,-0.20089 5.38634,1.97489 5.58723,4.85974c0.20088,2.88485 -1.97491,5.38634 -4.85976,5.58723c-2.88485,0.20089 -5.38634,-1.97491 -5.58723,-4.85976c-0.20088,-2.88485 1.97491,-5.38633 4.85976,-5.58721z" data-paper-data="{&quot;index&quot;:null}" fill="url(#color-12)" fill-rule="nonzero" stroke="#000000" stroke-width="0" stroke-linecap="butt" stroke-linejoin="miter"/><path d="M239.24953,171.11768c2.03062,-0.1414 3.7914,1.39012 3.9328,3.42074c0.1414,2.03062 -1.39011,3.7914 -3.42073,3.9328c-2.03062,0.1414 -3.7914,-1.39012 -3.93281,-3.42074c-0.1414,-2.03062 1.39012,-3.7914 3.42074,-3.93281z" data-paper-data="{&quot;index&quot;:null}" fill="#000000" fill-rule="nonzero" stroke="none" stroke-width="0" stroke-linecap="butt" stroke-linejoin="miter"/></g></g></svg>