<svg version="1.1" xmlns="http://www.w3.org/2000/svg" xmlns:xlink="http://www.w3.org/1999/xlink" width="104.5" height="53" viewBox="0,0,104.5,53"><g transform="translate(-267.75,-153.5)"><g data-paper-data="{&quot;isPaintingLayer&quot;:true}" fill="#ffffff" fill-rule="nonzero" stroke="none" stroke-width="0" stroke-linecap="butt" stroke-linejoin="miter" stroke-miterlimit="10" stroke-dasharray="" stroke-dashoffset="0" style="mix-blend-mode: normal"><path d="M332.75,179.375c0,14.29037 -12.98374,25.875 -29,25.875c-16.01626,0 -29,-11.58463 -29,-25.875c0,-14.29037 12.98374,-25.875 29,-25.875c16.01626,0 29,11.58463 29,25.875z"/><path d="M320,206.5c-28.85688,0 -52.25,-2.23857 -52.25,-5c0,-2.76143 23.39312,-5 52.25,-5c28.85688,0 52.25,2.23857 52.25,5c0,2.76143 -23.39312,5 -52.25,5z"/><path d="M335.625,183c11.39087,0 20.625,4.36522 20.625,9.75c0,5.38478 -9.23413,9.75 -20.625,9.75c-11.39087,0 -20.625,-4.36522 -20.625,-9.75c0,-5.38478 9.23413,-9.75 20.625,-9.75z"/><path d="M290.5,196.25c0,2.89949 -4.47715,5.25 -10,5.25c-5.52285,0 -10,-2.35051 -10,-5.25c0,-2.89949 4.47715,-5.25 10,-5.25c5.52285,0 10,2.35051 10,5.25z"/><path d="M351.25,178.5c0,7.1797 -6.37994,13 -14.25,13c-7.87006,0 -14.25,-5.8203 -14.25,-13c0,-7.1797 6.37994,-13 14.25,-13c7.87006,0 14.25,5.8203 14.25,13z"/></g></g></svg>