<svg version="1.1" xmlns="http://www.w3.org/2000/svg" xmlns:xlink="http://www.w3.org/1999/xlink" width="34.17311" height="34.17311" viewBox="0,0,34.17311,34.17311"><g transform="translate(-222.91345,-162.91345)"><g data-paper-data="{&quot;isPaintingLayer&quot;:true}" stroke-miterlimit="10" stroke-dasharray="" stroke-dashoffset="0" style="mix-blend-mode: normal"><path d="M229.98313,162.91346h20.03378c3.9166,0 7.06966,3.15307 7.06966,7.06966v20.03379c0,3.91659 -3.15306,7.06966 -7.06966,7.06966h-20.03378c-3.91659,0 -7.06967,-3.15307 -7.06967,-7.06966v-20.03379c0,-3.91659 3.15308,-7.06966 7.06967,-7.06966z" fill-opacity="0.09677" fill="#191919" fill-rule="evenodd" stroke="none" stroke-width="4.43922" stroke-linecap="round" stroke-linejoin="round"/><path d="M229.27929,184.89013c-0.97378,-1.15685 -4.90766,-9.85281 -4.90766,-9.85281c0,0 7.89749,5.35956 8.87127,6.51641c0.97378,1.15685 0.87591,2.84154 -0.21861,3.76286c-1.09453,0.92132 -2.77122,0.73039 -3.745,-0.42646z" fill="#000000" fill-rule="nonzero" stroke="#ffffff" stroke-width="0.5" stroke-linecap="butt" stroke-linejoin="miter"/><path d="M228.80431,187.59179c0,-5.80075 5.0096,-10.50317 11.18924,-10.50317c6.17964,0 10.59215,4.35864 10.59215,10.15938c0,0 -21.7814,0.53215 -21.7814,0.3438z" fill="#000000" fill-rule="nonzero" stroke="#ffffff" stroke-width="0.5" stroke-linecap="butt" stroke-linejoin="miter"/><path d="M228.17149,187.59179c0,-6.11822 5.28378,-11.07802 11.80165,-11.07802c0.05282,0 0.96615,1.83917 1.01827,3.04413c0.08297,1.91805 -0.80923,5.00572 -0.91335,8.03272c-0.01065,0.30974 -11.90656,0.48971 -11.90656,0.00117z" fill="#000000" fill-rule="nonzero" stroke="#ffffff" stroke-width="0.5" stroke-linecap="butt" stroke-linejoin="miter"/><path d="M234.71767,179.78227c-0.8498,0.36111 -1.74322,0.17252 -1.99551,-0.4212c-0.25229,-0.59372 -0.24621,-4.85435 -0.24621,-4.85435c0,0 3.07133,2.95297 3.32361,3.54669c0.25229,0.59372 -0.2321,1.36775 -1.0819,1.72885z" data-paper-data="{&quot;index&quot;:null}" fill="#000000" fill-rule="nonzero" stroke="#ffffff" stroke-width="0.5" stroke-linecap="butt" stroke-linejoin="miter"/></g></g></svg>