<svg version="1.1" xmlns="http://www.w3.org/2000/svg" xmlns:xlink="http://www.w3.org/1999/xlink" width="91.25" height="45" viewBox="0,0,91.25,45"><g transform="translate(-274.375,-157.5)"><g data-paper-data="{&quot;isPaintingLayer&quot;:true}" fill="#000000" fill-rule="nonzero" stroke="none" stroke-width="0" stroke-linecap="butt" stroke-linejoin="miter" stroke-miterlimit="10" stroke-dasharray="" stroke-dashoffset="0" style="mix-blend-mode: normal"><path d="M359.375,179.25c0,12.01219 -12.53603,21.75 -28,21.75c-15.46397,0 -28,-9.73781 -28,-21.75c0,-12.01219 12.53603,-21.75 28,-21.75c15.46397,0 28,9.73781 28,21.75z"/><path d="M317.625,202.5c-23.88632,0 -43.25,-3.69365 -43.25,-8.25c0,-4.55635 19.36368,-8.25 43.25,-8.25c23.88632,0 43.25,3.69365 43.25,8.25c0,4.55635 -19.36368,8.25 -43.25,8.25z"/><path d="M320.125,182.625c0,5.86803 -7.33134,10.625 -16.375,10.625c-9.04366,0 -16.375,-4.75697 -16.375,-10.625c0,-5.86803 7.33134,-10.625 16.375,-10.625c9.04366,0 16.375,4.75697 16.375,10.625z"/><path d="M365.625,187.125c0,4.76346 -4.19733,8.625 -9.375,8.625c-5.17767,0 -9.375,-3.86154 -9.375,-8.625c0,-4.76346 4.19733,-8.625 9.375,-8.625c5.17767,0 9.375,3.86154 9.375,8.625z"/></g></g></svg>