<svg version="1.1" xmlns="http://www.w3.org/2000/svg" xmlns:xlink="http://www.w3.org/1999/xlink" width="34.17311" height="34.17311" viewBox="0,0,34.17311,34.17311"><g transform="translate(-222.91348,-162.9135)"><g data-paper-data="{&quot;isPaintingLayer&quot;:true}" stroke-miterlimit="10" stroke-dasharray="" stroke-dashoffset="0" style="mix-blend-mode: normal"><path d="M229.98316,162.9135h20.03378c3.9166,0 7.06966,3.15307 7.06966,7.06966v20.03379c0,3.91659 -3.15306,7.06966 -7.06966,7.06966h-20.03378c-3.91659,0 -7.06967,-3.15307 -7.06967,-7.06966v-20.03379c0,-3.91659 3.15308,-7.06966 7.06967,-7.06966z" fill-opacity="0.09677" fill="#191919" fill-rule="evenodd" stroke="none" stroke-width="4.43922" stroke-linecap="round" stroke-linejoin="round"/><g fill="#000000" stroke="#ffffff" stroke-width="0.5"><path d="M237.97533,191.83974v-9.33915h4.04934v9.33915z" fill-rule="nonzero" stroke-linecap="butt" stroke-linejoin="miter"/><path d="M229.87664,194.27789l1.63617,-3.25088h17.472l1.69461,3.25088z" fill-rule="nonzero" stroke-linecap="butt" stroke-linejoin="miter"/><path d="M232.38552,165.72213h15.22895c2.54519,0 4.59421,2.04902 4.59421,4.59421v13.01892c0,2.54519 -2.04901,4.59421 -4.59421,4.59421h-15.22895c-2.54519,0 -4.59421,-2.04902 -4.59421,-4.59421v-13.01892c0,-2.54519 2.04902,-4.59421 4.59421,-4.59421z" fill-rule="evenodd" stroke-linecap="round" stroke-linejoin="round"/><path d="M233.80838,167.79697h12.38326c2.0696,0 3.73573,1.66614 3.73573,3.73573v10.5862c0,2.06959 -1.66613,3.73573 -3.73573,3.73573h-12.38326c-2.06959,0 -3.73573,-1.66614 -3.73573,-3.73573v-10.5862c0,-2.06959 1.66614,-3.73573 3.73573,-3.73573z" fill-rule="evenodd" stroke-linecap="round" stroke-linejoin="round"/></g></g></g></svg>