<svg version="1.1" xmlns="http://www.w3.org/2000/svg" xmlns:xlink="http://www.w3.org/1999/xlink" width="756" height="423" viewBox="0,0,756,423"><g transform="translate(58,31.5)"><g data-paper-data="{&quot;isPaintingLayer&quot;:true}" fill-rule="nonzero" stroke-linecap="butt" stroke-linejoin="miter" stroke-miterlimit="10" stroke-dasharray="" stroke-dashoffset="0" style="mix-blend-mode: normal"><path d="M-58,391.5v-423h756v423z" fill-opacity="0.49804" fill="#000000" stroke="none" stroke-width="0"/><path d="M119.85417,315.23698c0,-16.38445 13.28222,-29.66667 29.66667,-29.66667c16.38445,0 29.66667,13.28222 29.66667,29.66667c0,16.38445 -13.28222,29.66667 -29.66667,29.66667c-16.38445,0 -29.66667,-13.28222 -29.66667,-29.66667z" fill="none" stroke="#ffffff" stroke-width="6"/><text transform="translate(206.03562,92.76875) scale(0.93337,0.93337)" font-size="40" xml:space="preserve" fill="#ffffff" fill-rule="nonzero" stroke="none" stroke-width="1" stroke-linecap="butt" stroke-linejoin="miter" stroke-miterlimit="10" stroke-dasharray="" stroke-dashoffset="0" font-family="Sans Serif" font-weight="normal" text-anchor="start" style="mix-blend-mode: normal"><tspan x="0" dy="0">SMALL NOTE</tspan></text><text transform="translate(175.1875,119.57032) scale(0.5,0.5)" font-size="40" xml:space="preserve" fill="#ffffff" fill-rule="nonzero" stroke="none" stroke-width="1" stroke-linecap="butt" stroke-linejoin="miter" stroke-miterlimit="10" stroke-dasharray="" stroke-dashoffset="0" font-family="Sans Serif" font-weight="normal" text-anchor="start" style="mix-blend-mode: normal"><tspan x="0" dy="0">   according to some players,</tspan><tspan x="0" dy="46.150000000000006px">this character sound is broken.</tspan><tspan x="0" dy="46.150000000000006px">I currently do not know how to</tspan><tspan x="0" dy="46.150000000000006px">fix this as it looks and sounds</tspan><tspan x="0" dy="46.150000000000006px">normal to me</tspan></text><path d="M163.63887,245.33424c2.23607,1.11803 1.11803,3.3541 1.11803,3.3541l-1.6165,2.35903c-5.84154,3.46131 -8.2811,9.00296 -12.7314,13.85981c-1.64479,1.79505 -5.53104,6.87718 -8.72262,6.49082c-2.15202,-0.26051 -3.79918,-2.2181 -5.26961,-3.81086c-0.56652,-0.61366 0.02174,-1.81074 -0.51272,-2.45252c-0.5629,-0.67594 -1.80834,-0.42656 -2.41519,-1.06335c-1.68163,-1.76461 -1.99551,-4.45226 -3.14354,-6.60256c-1.09276,-2.04678 -3.34502,-3.21673 -4.98567,-4.85738c-3.53553,-3.53553 -7.07107,-7.07107 -10.6066,-10.6066c0,0 -1.76777,-1.76777 0,-3.53553c1.76777,-1.76777 3.53553,0 3.53553,0c3.53553,3.53553 7.07107,7.07107 10.6066,10.6066c1.95521,1.95521 4.42332,3.53206 5.80113,5.92942c1.47438,2.56539 -0.09409,3.24507 2.18979,5.39744c0.47987,0.45224 1.16871,0.63216 1.79787,0.88247c-0.02896,-18.70492 -0.21558,-37.42256 0.27643,-56.11912c0.12981,-4.93263 -0.35249,-10.49655 0.4315,-15.36193c0.61121,-3.79313 1.87394,-7.51771 2.47073,-11.39687c0.64428,-4.18782 0.71847,-9.19508 2.05483,-13.22734c0.08907,-0.26874 4.05706,-8.98458 4.2584,-9.42557c0.65279,-1.42978 1.43071,-2.80806 1.96599,-4.28586c0.34264,-0.94595 0.15342,-2.07375 0.65371,-2.94664c0.93067,-1.62376 2.34751,-2.91559 3.53525,-4.36198c2.11541,-2.57608 4.21375,-5.16759 6.40184,-7.68221c1.32708,-1.52511 2.29771,-3.51588 4.06109,-4.50462c1.27931,-0.71732 2.92915,-0.15735 4.39372,-0.23603c0,0 2.5,0 2.5,2.5c0,2.5 -2.5,2.5 -2.5,2.5c-0.75765,-0.07868 -1.63066,-0.64553 -2.27294,-0.23603c-1.10928,0.70725 -1.52553,2.14508 -2.34076,3.1776c-2.06562,2.61616 -4.24706,5.13898 -6.40184,7.68221c-3.21614,3.79593 -3.33615,5.80526 -5.44422,10.46256c-1.32742,2.93263 -2.98739,5.73203 -4.01766,8.78176c-1.27739,3.78124 -1.29955,8.62342 -1.90555,12.56243c-0.60258,3.91678 -1.85833,7.67749 -2.48812,11.50235c-0.75877,4.60816 -0.23473,9.95455 -0.35771,14.62769c-0.52241,19.85142 -0.27697,39.7268 -0.2713,59.58522c1.04255,-1.08946 2.01658,-2.24283 3.03584,-3.35422c4.79095,-5.22403 7.53906,-10.94497 13.84469,-14.76865l-0.28316,-0.30764c0,0 1.11803,-2.23607 3.3541,-1.11803z" fill="#ffffff" stroke="none" stroke-width="0.5"/><text transform="translate(189.20872,246.96398) scale(0.40278,0.40278)" font-size="40" xml:space="preserve" fill="#ffffff" fill-rule="nonzero" stroke="none" stroke-width="1" stroke-linecap="butt" stroke-linejoin="miter" stroke-miterlimit="10" stroke-dasharray="" stroke-dashoffset="0" font-family="Sans Serif" font-weight="normal" text-anchor="start" style="mix-blend-mode: normal"><tspan x="0" dy="0">tap anywhere or press any key to continue</tspan></text></g></g></svg>