<svg version="1.1" xmlns="http://www.w3.org/2000/svg" xmlns:xlink="http://www.w3.org/1999/xlink" width="92" height="26.5" viewBox="0,0,92,26.5"><g transform="translate(-274,-166.75)"><g data-paper-data="{&quot;isPaintingLayer&quot;:true}" fill="#000000" fill-rule="nonzero" stroke="none" stroke-width="0" stroke-linecap="butt" stroke-linejoin="miter" stroke-miterlimit="10" stroke-dasharray="" stroke-dashoffset="0" style="mix-blend-mode: normal"><g><path d="M362.5,179.25c0,6.90356 -16.11775,12.5 -36,12.5c-19.88225,0 -36,-5.59644 -36,-12.5c0,-6.90356 16.11775,-12.5 36,-12.5c19.88225,0 36,5.59644 36,12.5z"/><path d="M315,184.5c0,3.45178 -6.71573,6.25 -15,6.25c-8.28427,0 -15,-2.79822 -15,-6.25c0,-3.45178 6.71573,-6.25 15,-6.25c8.28427,0 15,2.79822 15,6.25z"/><path d="M352.75,178.25c7.31777,0 13.25,2.46243 13.25,5.5c0,3.03757 -5.93223,5.5 -13.25,5.5c-7.31778,0 -13.25,-2.46243 -13.25,-5.5c0,-3.03757 5.93223,-5.5 13.25,-5.5z"/><path d="M318.5,193.25c-24.57667,0 -44.5,-1.90279 -44.5,-4.25c0,-2.34721 19.92333,-4.25 44.5,-4.25c24.57667,0 44.5,1.90279 44.5,4.25c0,2.34721 -19.92333,4.25 -44.5,4.25z"/></g></g></g></svg>